<?xml version="1.0" encoding="utf-8"?>
<!-- Generator: Adobe Illustrator 15.1.0, SVG Export Plug-In . SVG Version: 6.00 Build 0)  -->
<!DOCTYPE svg PUBLIC "-//W3C//DTD SVG 1.1//EN" "http://www.w3.org/Graphics/SVG/1.1/DTD/svg11.dtd">
<svg version="1.1" id="Layer_1" xmlns="http://www.w3.org/2000/svg" xmlns:xlink="http://www.w3.org/1999/xlink" x="0px" y="0px"
	 width="580px" height="492px" viewBox="0 0 580 492" enable-background="new 0 0 580 492" xml:space="preserve">
<g>
	<path d="M434.477,142.133c0-1.952-0.781-3.514-1.953-5.076L355.6,49.59l0,0c-0.391-0.39-1.171-0.781-1.562-1.171l-0.391-0.391
		c-0.39-0.39-1.171-0.39-1.562-0.781h-0.391c-0.781,0-1.172-0.391-1.953-0.391H161.143c-8.591,0-15.619,7.029-15.619,15.619v367.047
		c0,8.591,7.028,15.619,15.619,15.619h257.714c8.59,0,15.619-7.028,15.619-15.619V143.305
		C434.477,142.914,434.477,142.524,434.477,142.133z M161.143,62.476h180.791v80.048c0,4.295,3.514,7.81,7.809,7.81h69.115v162.047
		H161.143"/>
	<path d="M213.467,154.628h113.629c2.732,0,5.076-2.343,5.076-5.076s-2.344-5.076-5.076-5.076H213.467
		c-2.733,0-5.076,2.343-5.076,5.076C208.39,152.286,210.733,154.628,213.467,154.628z"/>
	<path d="M354.818,185.867H213.467c-2.733,0-5.076,2.343-5.076,5.076s2.343,5.076,5.076,5.076h141.352
		c2.734,0,5.077-2.343,5.077-5.076S357.553,185.867,354.818,185.867z"/>
	<path d="M354.818,226.867H213.467c-2.733,0-5.076,2.343-5.076,5.076s2.343,5.076,5.076,5.076h141.352
		c2.734,0,5.077-2.343,5.077-5.076C359.895,229.209,357.553,226.867,354.818,226.867z"/>
	<path d="M354.818,269.038H213.467c-2.733,0-5.076,2.343-5.076,5.076s2.343,5.076,5.076,5.076h141.352
		c2.734,0,5.077-2.343,5.077-5.076S357.553,269.038,354.818,269.038z"/>
</g>
</svg>
