<?xml version="1.0" encoding="utf-8"?>
<!-- Generator: Adobe Illustrator 17.1.0, SVG Export Plug-In . SVG Version: 6.00 Build 0)  -->
<!DOCTYPE svg PUBLIC "-//W3C//DTD SVG 1.1//EN" "http://www.w3.org/Graphics/SVG/1.1/DTD/svg11.dtd">
<svg version="1.1" id="Layer_1" xmlns="http://www.w3.org/2000/svg" xmlns:xlink="http://www.w3.org/1999/xlink" x="0px" y="0px"
	 viewBox="0 0 126 126" enable-background="new 0 0 126 126" xml:space="preserve">
<g>
	<path d="M64,88.6c-3.4,0-5.4,3.3-5.4,7.7c0,4.4,2.1,7.5,5.5,7.5c3.4,0,5.4-3.3,5.4-7.7C69.5,92.1,67.5,88.6,64,88.6z"/>
	<path d="M38.4,88.7c-1.1,0-1.9,0.1-2.3,0.2v14.7c0.4,0.1,1.1,0.1,1.8,0.1c4.6,0,7.6-2.5,7.6-7.9C45.5,91.1,42.8,88.7,38.4,88.7z"/>
	<path d="M100,36.4c0-0.5-0.2-0.9-0.5-1.3L79.8,12.7c0,0,0,0,0,0c-0.1-0.1-0.3-0.2-0.4-0.3c0,0-0.1-0.1-0.1-0.1
		c-0.1-0.1-0.3-0.1-0.4-0.2c0,0-0.1,0-0.1,0c-0.2,0-0.3-0.1-0.5-0.1H30c-2.2,0-4,1.8-4,4v94c0,2.2,1.8,4,4,4h66c2.2,0,4-1.8,4-4
		V36.7C100,36.6,100,36.5,100,36.4z M47.2,104.8c-2.4,2-6,2.9-10.4,2.9c-2.6,0-4.5-0.2-5.8-0.3V85.2c1.9-0.3,4.3-0.5,6.9-0.5
		c4.3,0,7.1,0.8,9.2,2.4c2.3,1.7,3.8,4.5,3.8,8.5C50.9,99.9,49.3,102.9,47.2,104.8z M63.8,107.8c-6.7,0-10.6-5-10.6-11.5
		c0-6.8,4.3-11.8,11-11.8c6.9,0,10.7,5.2,10.7,11.4C74.9,103.3,70.4,107.8,63.8,107.8z M89.7,103.6c1.5,0,3.2-0.3,4.2-0.7l0.8,4
		c-0.9,0.5-3,1-5.8,1c-7.8,0-11.8-4.8-11.8-11.3c0-7.7,5.5-12,12.3-12c2.6,0,4.6,0.5,5.5,1l-1,4c-1-0.4-2.5-0.8-4.3-0.8
		c-4,0-7.2,2.4-7.2,7.5C82.5,100.7,85.2,103.6,89.7,103.6z M30,79.9V16h46.3v20.5c0,1.1,0.9,2,2,2H96l0,41.5H30z"/>
	<path d="M57.9,39.6h14.6c0.7,0,1.3-0.6,1.3-1.3c0-0.7-0.6-1.3-1.3-1.3H57.9c-0.7,0-1.3,0.6-1.3,1.3C56.6,39,57.2,39.6,57.9,39.6z"
		/>
	<path d="M79.6,47.6H43.4c-0.7,0-1.3,0.6-1.3,1.3s0.6,1.3,1.3,1.3h36.2c0.7,0,1.3-0.6,1.3-1.3S80.3,47.6,79.6,47.6z"/>
	<path d="M47.2,42.3l1.2-5c0.3-1.2,0.5-2.2,0.7-3.4h0c0.1,1.1,0.3,2.2,0.6,3.4l1.1,5h2.1l2.8-10.6h-2l-1.1,4.8
		c-0.3,1.3-0.5,2.5-0.7,3.7h0c-0.2-1.1-0.4-2.3-0.6-3.6l-1.1-4.9h-2l-1.1,4.8c-0.3,1.3-0.6,2.6-0.8,3.7h0c-0.2-1.1-0.4-2.4-0.7-3.7
		l-1-4.8h-2.1l2.6,10.6L47.2,42.3L47.2,42.3z"/>
	<path d="M79.6,58.1H43.4c-0.7,0-1.3,0.6-1.3,1.3c0,0.7,0.6,1.3,1.3,1.3h36.2c0.7,0,1.3-0.6,1.3-1.3C80.9,58.7,80.3,58.1,79.6,58.1z
		"/>
	<path d="M79.6,68.9H43.4c-0.7,0-1.3,0.6-1.3,1.3s0.6,1.3,1.3,1.3h36.2c0.7,0,1.3-0.6,1.3-1.3S80.3,68.9,79.6,68.9z"/>
</g>
</svg>
