<?xml version="1.0" encoding="utf-8"?>
<!-- Generated by IcoMoon.io -->
<!DOCTYPE svg PUBLIC "-//W3C//DTD SVG 1.1//EN" "http://www.w3.org/Graphics/SVG/1.1/DTD/svg11.dtd">
<svg version="1.1" xmlns="http://www.w3.org/2000/svg" xmlns:xlink="http://www.w3.org/1999/xlink" width="34" height="32" viewBox="0 0 34 32">
<g id="icomoon-ignore">
</g>
<path d="M1.143 24q0-0.464 0.339-0.804t0.804-0.339v-7.429q0-0.464 0.232-1.036t0.571-0.911l3.536-3.536q0.339-0.339 0.911-0.571t1.036-0.232h2.857v-5.714q0-0.464 0.339-0.804t0.804-0.339h20.571q0.464 0 0.804 0.339t0.339 0.804v20.571q0 0.464-0.339 0.804t-0.804 0.339h-3.429q0 1.893-1.339 3.232t-3.232 1.339-3.232-1.339-1.339-3.232h-6.857q0 1.893-1.339 3.232t-3.232 1.339-3.232-1.339-1.339-3.232h-2.286q-0.464 0-0.804-0.339t-0.339-0.804zM4.571 16h6.857v-4.571h-2.821q-0.25 0.036-0.393 0.161l-3.482 3.482q-0.125 0.214-0.161 0.393v0.536zM6.857 25.143q0 0.946 0.67 1.616t1.616 0.67 1.616-0.67 0.67-1.616-0.67-1.616-1.616-0.67-1.616 0.67-0.67 1.616zM16 13.143q0 0.25 0.161 0.411t0.411 0.161h4v4q0 0.25 0.161 0.411t0.411 0.161h3.429q0.25 0 0.411-0.161t0.161-0.411v-4h4q0.25 0 0.411-0.161t0.161-0.411v-3.429q0-0.25-0.161-0.411t-0.411-0.161h-4v-4q0-0.25-0.161-0.411t-0.411-0.161h-3.429q-0.25 0-0.411 0.161t-0.161 0.411v4h-4q-0.25 0-0.411 0.161t-0.161 0.411v3.429zM22.857 25.143q0 0.946 0.67 1.616t1.616 0.67 1.616-0.67 0.67-1.616-0.67-1.616-1.616-0.67-1.616 0.67-0.67 1.616z" fill="#000000"></path>
</svg>
