<?xml version="1.0" encoding="utf-8"?>
<!-- Generated by IcoMoon.io -->
<!DOCTYPE svg PUBLIC "-//W3C//DTD SVG 1.1//EN" "http://www.w3.org/Graphics/SVG/1.1/DTD/svg11.dtd">
<svg version="1.1" xmlns="http://www.w3.org/2000/svg" xmlns:xlink="http://www.w3.org/1999/xlink" width="32" height="32" viewBox="0 0 32 32">
<g id="icomoon-ignore">
</g>
<path d="M0 27.429v-22.857q0-0.946 0.67-1.616t1.616-0.67h27.429q0.946 0 1.616 0.67t0.67 1.616v22.857q0 0.946-0.67 1.616t-1.616 0.67h-27.429q-0.946 0-1.616-0.67t-0.67-1.616zM2.286 27.429h27.429v-2.286h-27.429v2.286zM2.286 9.143h27.429v-4.571h-14.786l-1.143 2.286h-11.5v2.286zM4.571 5.714h6.857v-2.286h-6.857v2.286zM9.143 17.179q0 2.839 2.009 4.848t4.848 2.009 4.848-2.009 2.009-4.848-2.009-4.848-4.848-2.009-4.848 2.009-2.009 4.848zM11.429 17.179q0-1.893 1.339-3.232t3.232-1.339 3.232 1.339 1.339 3.232-1.339 3.232-3.232 1.339-3.232-1.339-1.339-3.232zM13.143 17.143q0 0.25 0.161 0.411t0.411 0.161 0.411-0.161 0.161-0.411q0-0.714 0.5-1.214t1.214-0.5q0.25 0 0.411-0.161t0.161-0.411-0.161-0.411-0.411-0.161q-1.179 0-2.018 0.839t-0.839 2.018z" fill="#000000"></path>
</svg>
