<?xml version="1.0" encoding="utf-8"?>
<!-- Generated by IcoMoon.io -->
<!DOCTYPE svg PUBLIC "-//W3C//DTD SVG 1.1//EN" "http://www.w3.org/Graphics/SVG/1.1/DTD/svg11.dtd">
<svg version="1.1" xmlns="http://www.w3.org/2000/svg" xmlns:xlink="http://www.w3.org/1999/xlink" width="32" height="32" viewBox="0 0 32 32">
<g id="icomoon-ignore">
</g>
<path d="M11.642 7.341c-0.992 0-1.797-0.804-1.797-1.797h-6.155c0 0.992-0.804 1.797-1.797 1.797h-1.644v19.114h31.5v-19.114h-20.108zM9.845 12.999h-6.155v-2.676h6.155v2.676zM20.664 23.588c-3.647 0-6.614-2.967-6.614-6.614s2.967-6.461 6.614-6.461 6.614 2.814 6.614 6.461-2.967 6.614-6.614 6.614zM24.219 16.975c0 1.96-1.595 3.555-3.555 3.555s-3.555-1.595-3.555-3.555c0-1.96 1.595-3.555 3.555-3.555s3.555 1.595 3.555 3.555z" fill="#000000"></path>
</svg>
