<?xml version="1.0" encoding="utf-8"?>
<!-- Generated by IcoMoon.io -->
<!DOCTYPE svg PUBLIC "-//W3C//DTD SVG 1.1//EN" "http://www.w3.org/Graphics/SVG/1.1/DTD/svg11.dtd">
<svg version="1.1" xmlns="http://www.w3.org/2000/svg" xmlns:xlink="http://www.w3.org/1999/xlink" width="33" height="32" viewBox="0 0 33 32">
<g id="icomoon-ignore">
</g>
<path d="M20.486 12.263c-3.035 0-5.495 2.46-5.495 5.495 0 3.033 2.46 5.494 5.495 5.494 3.033 0 5.494-2.46 5.494-5.494 0-3.035-2.46-5.495-5.494-5.495zM20.486 20.981c-1.78 0-3.225-1.443-3.225-3.223s1.444-3.224 3.225-3.224 3.223 1.444 3.223 3.224c0 1.78-1.443 3.223-3.223 3.223zM11.967 7.638l-1.538-1.769h-4.515l-1.539 1.769h-2.808v19.271h29.483v-19.271h-19.082zM10.83 11.487h-4.197c-0.496 0-0.899-0.403-0.899-0.899s0.403-0.899 0.899-0.899h4.197c0.496 0 0.899 0.403 0.899 0.899s-0.403 0.899-0.899 0.899zM20.486 24.937c-3.958 0-7.179-3.221-7.179-7.179s3.22-7.179 7.179-7.179c3.957 0 7.178 3.22 7.178 7.179-0.001 3.957-3.221 7.179-7.178 7.179zM29.514 10.852c0 0.263-0.213 0.477-0.477 0.477h-1.106c-0.263 0-0.475-0.213-0.475-0.477v-1.107c0-0.263 0.213-0.477 0.475-0.477h1.106c0.264 0 0.477 0.213 0.477 0.477v1.107z" fill="#000000"></path>
</svg>
