<?xml version="1.0" encoding="utf-8"?>
<!-- Generated by IcoMoon.io -->
<!DOCTYPE svg PUBLIC "-//W3C//DTD SVG 1.1//EN" "http://www.w3.org/Graphics/SVG/1.1/DTD/svg11.dtd">
<svg version="1.1" xmlns="http://www.w3.org/2000/svg" xmlns:xlink="http://www.w3.org/1999/xlink" width="33" height="32" viewBox="0 0 33 32">
<g id="icomoon-ignore">
</g>
<path d="M0.874 16.281c0 8.533 6.874 15.407 15.407 15.407s15.407-6.874 15.407-15.407c0-8.533-6.874-15.407-15.407-15.407s-15.407 6.874-15.407 15.407zM28.015 16.281c0 6.459-5.215 11.674-11.674 11.674s-11.674-5.215-11.674-11.674c0-6.459 5.215-11.674 11.674-11.674 6.4-0.059 11.674 5.215 11.674 11.674z" fill="#000000"></path>
<path d="M14.444 10.237v3.022h-5.985v5.748h5.985v3.259c0 1.185 0.77 1.659 1.719 1.067l9.6-5.985c0.948-0.593 0.948-1.541 0-2.133l-9.6-6.044c-0.948-0.533-1.719-0.059-1.719 1.067z" fill="#000000"></path>
</svg>
