<?xml version="1.0" encoding="utf-8"?>
<!-- Generated by IcoMoon.io -->
<!DOCTYPE svg PUBLIC "-//W3C//DTD SVG 1.1//EN" "http://www.w3.org/Graphics/SVG/1.1/DTD/svg11.dtd">
<svg version="1.1" xmlns="http://www.w3.org/2000/svg" xmlns:xlink="http://www.w3.org/1999/xlink" width="33" height="32" viewBox="0 0 33 32">
<g id="icomoon-ignore">
</g>
<path d="M16 0.593c-8.533 0-15.407 6.874-15.407 15.407s6.874 15.407 15.407 15.407c8.533 0 15.407-6.874 15.407-15.407s-6.874-15.407-15.407-15.407zM16 27.733c-6.459 0-11.674-5.215-11.674-11.674s5.215-11.674 11.674-11.674c6.459 0 11.674 5.215 11.674 11.674 0.059 6.4-5.215 11.674-11.674 11.674z" fill="#000000"></path>
<path d="M22.044 14.163h-3.022v-5.985h-5.748v5.985h-3.259c-1.185 0-1.659 0.77-1.067 1.719l5.985 9.6c0.593 0.948 1.541 0.948 2.133 0l6.044-9.6c0.533-0.948 0.059-1.719-1.067-1.719z" fill="#000000"></path>
</svg>
