<?xml version="1.0" encoding="utf-8"?>
<!-- Generated by IcoMoon.io -->
<!DOCTYPE svg PUBLIC "-//W3C//DTD SVG 1.1//EN" "http://www.w3.org/Graphics/SVG/1.1/DTD/svg11.dtd">
<svg version="1.1" xmlns="http://www.w3.org/2000/svg" xmlns:xlink="http://www.w3.org/1999/xlink" width="30" height="32" viewBox="0 0 30 32">
<g id="icomoon-ignore">
</g>
<path d="M15 1.271c-8.137 0-14.729 6.592-14.729 14.729 0 8.135 6.592 14.729 14.729 14.729 8.135 0 14.729-6.594 14.729-14.729 0-8.137-6.594-14.729-14.729-14.729zM15 7.163c1.273 0 2.471 0.28 3.564 0.762l-11.639 11.639c-0.482-1.093-0.762-2.291-0.762-3.564 0-4.879 3.956-8.837 8.837-8.837zM15 24.837c-1.29 0-2.51-0.293-3.618-0.788l11.687-11.622c0.486 1.096 0.768 2.297 0.768 3.573 0 4.882-3.956 8.837-8.837 8.837z" fill="#000000"></path>
</svg>
