<?xml version="1.0" encoding="utf-8"?>
<!-- Generated by IcoMoon.io -->
<!DOCTYPE svg PUBLIC "-//W3C//DTD SVG 1.1//EN" "http://www.w3.org/Graphics/SVG/1.1/DTD/svg11.dtd">
<svg version="1.1" xmlns="http://www.w3.org/2000/svg" xmlns:xlink="http://www.w3.org/1999/xlink" width="89" height="32" viewBox="0 0 89 32">
<g id="icomoon-ignore">
</g>
<path d="M22.429 11.167v1.865l-11.511-1.055 11.511-0.81z" fill="#000000"></path>
<path d="M22.472 14.859v2.707l-21.873-1.496 21.873-1.21z" fill="#000000"></path>
<path d="M22.429 19.392v1.865l-11.511-1.056 11.511-0.809z" fill="#000000"></path>
<path d="M41.734 20.712c0.132 0.141 0.241 0.097 0.241-0.095v-9.223c0-0.192-0.119-0.248-0.267-0.123l-4.671 3.977c-0.145 0.125-0.157 0.341-0.025 0.479l4.721 4.985z" fill="#000000"></path>
<path d="M41.083 10.428c0.145-0.125 0.109-0.226-0.083-0.226h-14.938c-0.191 0-0.228 0.1-0.081 0.224l7.339 6.158c0.148 0.123 0.388 0.12 0.534-0.002l7.229-6.153z" fill="#000000"></path>
<path d="M25.208 20.618c0 0.191 0.108 0.235 0.24 0.095l4.704-4.965c0.132-0.138 0.12-0.353-0.027-0.477l-4.648-3.899c-0.147-0.124-0.268-0.068-0.268 0.125v9.122h-0.001z" fill="#000000"></path>
<path d="M34.198 17.665c-0.146 0.125-0.364 0.284-0.486 0.353 0 0 0 0-0.119 0s-0.119 0-0.119 0c-0.119-0.069-0.337-0.224-0.485-0.35l-1.522-1.277c-0.147-0.123-0.377-0.11-0.51 0.030l-4.787 5.051c-0.132 0.138-0.082 0.255 0.11 0.255h14.624c0.191 0 0.241-0.117 0.109-0.255l-4.8-5.067c-0.132-0.141-0.36-0.152-0.506-0.028l-1.51 1.287z" fill="#000000"></path>
<path d="M80.533 16.597c-1.008-2.433-11.096-2.35-12.679 0-2.564 0-5.129 0-7.692 0 2.061-8.962 25.821-7.978 28.348 0z" fill="#000000"></path>
<path d="M88.438 21.584c-2.294 0.231-5.329 0.24-7.619 0-0.553-0.585-0.367-2.48-0.285-3.135 2.754 0 5.291 0 8.046 0 0.096 0.585 0.135 2.323-0.142 3.135z" fill="#000000"></path>
<path d="M67.748 21.584c-2.244 0.231-5.388 0.24-7.63 0-0.21-1.053-0.245-1.852 0-3.135 2.706 0 5.014 0 7.719 0 0.178 1.224 0.189 2.323-0.089 3.135z" fill="#000000"></path>
<path d="M54.060 9.358h2.391l-5.829 13.283h-2.467z" fill="#000000"></path>
</svg>
