<?xml version="1.0" encoding="utf-8"?>
<!-- Generated by IcoMoon.io -->
<!DOCTYPE svg PUBLIC "-//W3C//DTD SVG 1.1//EN" "http://www.w3.org/Graphics/SVG/1.1/DTD/svg11.dtd">
<svg version="1.1" xmlns="http://www.w3.org/2000/svg" xmlns:xlink="http://www.w3.org/1999/xlink" width="33" height="32" viewBox="0 0 33 32">
<g id="icomoon-ignore">
</g>
<path d="M24.253 11.361l-3.012-3.011c-0.118-0.118-0.272-0.177-0.427-0.177s-0.309 0.059-0.427 0.177l-4.086 4.086-4.086-4.086c-0.118-0.118-0.272-0.177-0.427-0.177s-0.309 0.059-0.427 0.177l-3.012 3.011c-0.236 0.236-0.236 0.618 0 0.854l4.085 4.087-4.085 4.086c-0.236 0.236-0.236 0.618 0 0.854l3.012 3.012c0.114 0.113 0.267 0.177 0.427 0.177s0.314-0.063 0.427-0.177l4.086-4.088 4.086 4.088c0.113 0.113 0.267 0.177 0.427 0.177s0.314-0.063 0.427-0.177l3.012-3.012c0.236-0.236 0.236-0.618 0-0.854l-4.085-4.086 4.085-4.087c0.236-0.235 0.236-0.618 0-0.854zM16.291-0.008c-9.002 0-16.301 7.297-16.301 16.299s7.299 16.299 16.301 16.299 16.301-7.297 16.301-16.299-7.299-16.299-16.301-16.299zM16.302 28.677c-6.835 0-12.377-5.541-12.377-12.376s5.542-12.376 12.377-12.376 12.377 5.541 12.377 12.376-5.542 12.376-12.377 12.376z" fill="#000000"></path>
</svg>
