<?xml version="1.0" encoding="utf-8"?>
<!-- Generated by IcoMoon.io -->
<!DOCTYPE svg PUBLIC "-//W3C//DTD SVG 1.1//EN" "http://www.w3.org/Graphics/SVG/1.1/DTD/svg11.dtd">
<svg version="1.1" xmlns="http://www.w3.org/2000/svg" xmlns:xlink="http://www.w3.org/1999/xlink" width="33" height="32" viewBox="0 0 33 32">
<g id="icomoon-ignore">
</g>
<path d="M19.204 23.773c-0.048-0.214-0.082-0.425-0.107-0.625h-5.592c-0.050 0.401-0.139 0.854-0.295 1.272-0.156 0.421-0.378 0.804-0.679 1.073-0.303 0.269-0.679 0.437-1.204 0.439v0.5h9.95v-0.5c-0.526-0.002-0.902-0.17-1.205-0.44-0.453-0.401-0.724-1.066-0.868-1.719zM27.312 6.169h-22.022c-0.367 0-0.664 0.298-0.664 0.665v14.471c0 0.367 0.297 0.666 0.664 0.666h22.022c0.367 0 0.665-0.298 0.665-0.666v-14.471c0-0.367-0.298-0.664-0.665-0.664zM26.364 20.357h-20.126v-12.575h20.126v12.575z" fill="#000000"></path>
</svg>
