<?xml version="1.0" encoding="utf-8"?>
<!-- Generated by IcoMoon.io -->
<!DOCTYPE svg PUBLIC "-//W3C//DTD SVG 1.1//EN" "http://www.w3.org/Graphics/SVG/1.1/DTD/svg11.dtd">
<svg version="1.1" xmlns="http://www.w3.org/2000/svg" xmlns:xlink="http://www.w3.org/1999/xlink" width="33" height="32" viewBox="0 0 33 32">
<g id="icomoon-ignore">
</g>
<path d="M28.855 0h-25.136c-2.046 0-3.719 1.673-3.719 3.719v25.142c0 2.044 1.674 3.719 3.719 3.719h25.135c2.046 0 3.72-1.675 3.72-3.719v-25.142c0-2.046-1.674-3.719-3.719-3.719zM27.606 10.856c-1.049 0-2.18 0-2.718 0s-1.081 0.563-1.081 0.98c0 0.416 0 2.793 0 2.793s3.356 0 3.792 0c-0.152 2.143-0.464 4.102-0.464 4.102h-3.347v12.144h-4.986l-0-12.144h-2.428v-4.088h2.428c0 0 0-2.73 0-3.34 0-0.612-0.123-4.701 5.11-4.701 0.701 0 2.294 0 3.693 0 0.001 1.776 0.001 3.698 0.001 4.253z" fill="#000000"></path>
</svg>
