<?xml version="1.0" encoding="utf-8"?>
<!-- Generated by IcoMoon.io -->
<!DOCTYPE svg PUBLIC "-//W3C//DTD SVG 1.1//EN" "http://www.w3.org/Graphics/SVG/1.1/DTD/svg11.dtd">
<svg version="1.1" xmlns="http://www.w3.org/2000/svg" xmlns:xlink="http://www.w3.org/1999/xlink" width="89" height="32" viewBox="0 0 89 32">
<g id="icomoon-ignore">
</g>
<path d="M45.907 15.755c-0.714 0-1.229 0.234-1.751 0.473v5.399c0.5 0.048 0.787 0.048 1.261 0.048 1.715 0 1.95-0.785 1.95-1.881v-2.579c0-0.809-0.269-1.46-1.46-1.46zM34.521 15.46c-1.189 0-1.461 0.653-1.461 1.462v0.454h2.92v-0.454c0-0.809-0.271-1.462-1.459-1.462zM12.465 21.081c0 0.64 0.302 0.972 0.968 0.972 0.715 0 1.138-0.233 1.659-0.472v-1.281h-1.563c-0.739 0-1.065 0.138-1.065 0.781zM56.982 15.755c-1.191 0-1.604 0.65-1.604 1.46v2.954c0 0.812 0.413 1.464 1.604 1.464 1.188 0 1.604-0.652 1.604-1.464v-2.954c-0-0.809-0.416-1.46-1.604-1.46zM6.626 24.393h-3.502v-8.478h-1.75v-2.921h1.75v-1.754c0-2.383 0.988-3.8 3.795-3.8h2.337v2.922h-1.461c-1.093 0-1.165 0.408-1.165 1.17l-0.004 1.462h2.647l-0.31 2.921h-2.337v8.478zM18.596 24.415h-2.919l-0.127-0.738c-1.333 0.738-2.522 0.858-3.307 0.858-2.141 0-3.28-1.43-3.28-3.408 0-2.333 1.33-3.166 3.708-3.166h2.421v-0.504c0-1.191-0.136-1.541-1.968-1.541h-2.995l0.293-2.921h3.274c4.019 0 4.9 1.27 4.9 4.485v6.935zM28.522 16.13c-1.817-0.311-2.338-0.38-3.212-0.38-1.57 0-2.044 0.346-2.044 1.68v2.522c0 1.333 0.474 1.681 2.044 1.681 0.874 0 1.396-0.070 3.212-0.382v2.849c-1.591 0.357-2.628 0.45-3.504 0.45-3.76 0-5.255-1.978-5.255-4.834v-2.046c0-2.859 1.495-4.84 5.255-4.84 0.876 0 1.913 0.094 3.504 0.452v2.848zM39.483 19.716h-6.423v0.235c0 1.333 0.475 1.681 2.044 1.681 1.411 0 2.272-0.070 4.085-0.382v2.849c-1.749 0.357-2.66 0.45-4.376 0.45-3.761 0-5.256-1.978-5.256-4.834v-2.34c0-2.499 1.11-4.547 4.963-4.547s4.962 2.024 4.962 4.547v2.34zM50.868 19.77c0 2.761-0.789 4.775-5.57 4.775-1.726 0-2.739-0.152-4.644-0.445v-15.783l3.501-0.584v5.521c0.757-0.281 1.736-0.424 2.627-0.424 3.502 0 4.085 1.57 4.085 4.093v2.848zM62.092 19.83c0 2.382-0.983 4.692-5.098 4.692-4.116 0-5.118-2.31-5.118-4.692v-2.3c0-2.383 1.002-4.693 5.118-4.693 4.114 0 5.098 2.31 5.098 4.693v2.3zM73.308 19.83c0 2.382-0.984 4.692-5.098 4.692-4.116 0-5.118-2.31-5.118-4.692v-2.3c0-2.383 1.002-4.693 5.118-4.693 4.114 0 5.098 2.31 5.098 4.693v2.3zM84.818 24.393h-3.795l-3.21-5.358v5.358h-3.502v-16.076l3.502-0.584v10.349l3.21-5.088h3.795l-3.504 5.552 3.504 5.847zM68.198 15.755c-1.189 0-1.602 0.65-1.602 1.46v2.954c0 0.812 0.413 1.464 1.602 1.464 1.188 0 1.608-0.652 1.608-1.464v-2.954c0-0.809-0.42-1.46-1.608-1.46z" fill="#000000"></path>
<path d="M86.817 22.393c0.59 0 1.060 0.481 1.060 1.081 0 0.61-0.47 1.085-1.064 1.085-0.591 0-1.070-0.475-1.070-1.085 0-0.601 0.479-1.081 1.070-1.081h0.004zM86.813 22.562c-0.475 0-0.864 0.409-0.864 0.913 0 0.514 0.389 0.917 0.868 0.917 0.48 0.005 0.863-0.404 0.863-0.913s-0.383-0.918-0.863-0.918h-0.004zM86.611 24.104h-0.192v-1.207c0.101-0.014 0.197-0.028 0.341-0.028 0.183 0 0.302 0.038 0.375 0.091 0.071 0.053 0.109 0.134 0.109 0.249 0 0.16-0.105 0.255-0.234 0.294v0.009c0.105 0.020 0.177 0.115 0.201 0.292 0.028 0.188 0.057 0.26 0.076 0.299h-0.201c-0.029-0.039-0.058-0.149-0.082-0.308-0.028-0.153-0.106-0.211-0.26-0.211h-0.133v0.519zM86.611 23.437h0.139c0.158 0 0.292-0.058 0.292-0.207 0-0.106-0.076-0.211-0.292-0.211-0.063 0-0.106 0.005-0.139 0.009v0.409z" fill="#000000"></path>
</svg>
