<?xml version="1.0" encoding="utf-8"?>
<!-- Generator: Adobe Illustrator 15.1.0, SVG Export Plug-In  -->
<!DOCTYPE svg PUBLIC "-//W3C//DTD SVG 1.1//EN" "http://www.w3.org/Graphics/SVG/1.1/DTD/svg11.dtd" [
	<!ENTITY ns_flows "http://ns.adobe.com/Flows/1.0/">
]>
<svg version="1.1"
	 xmlns="http://www.w3.org/2000/svg" xmlns:xlink="http://www.w3.org/1999/xlink" xmlns:a="http://ns.adobe.com/AdobeSVGViewerExtensions/3.0/"
	 x="0px" y="0px" width="64px" height="64px" viewBox="-0.01 0 64 64" enable-background="new -0.01 0 64 64" xml:space="preserve">
<defs>
</defs>
<path display="none" d="M23.17,31.88c0-1.47,0.06-2.94,0.18-4.4c-4.29-0.76-7.46-2.19-9.38-4.23c-1.27,2.61-2.01,5.54-2.01,8.63
	c0,3.1,0.74,6.03,2.02,8.65c1.97-2.07,5.17-3.57,9.36-4.39C23.23,34.73,23.17,33.3,23.17,31.88z"/>
<path display="none" d="M31.77,25.39c1.94,0,3.75-0.1,5.41-0.28c-0.99-7.41-3.49-11.77-5.41-11.77s-4.42,4.36-5.41,11.77
	C28.02,25.29,29.83,25.39,31.77,25.39z"/>
<path display="none" d="M23.66,24.73c0.71-5.16,2.2-9.78,4.4-12.25c-3.78,0.8-7.27,2.71-9.83,4.99c-0.03,0.03-0.07,0.06-0.1,0.09
	c-0.15,0.14-0.29,0.28-0.44,0.42c-0.83,0.84-1.58,1.75-2.25,2.73C16.76,22.6,19.62,23.98,23.66,24.73z"/>
<path display="none" d="M26.07,27.86c-0.09,1.27-0.15,2.61-0.15,4.03c0,1.34,0.05,2.62,0.14,3.84c1.77-0.21,3.68-0.33,5.71-0.33
	c1.82,0,3.77,0.07,5.71,0.27c0.08-1.2,0.13-2.46,0.13-3.78c0-1.41-0.05-2.76-0.15-4.03c-1.75,0.19-3.65,0.29-5.7,0.29
	C29.72,28.14,27.83,28.04,26.07,27.86z"/>
<path display="none" d="M48.06,20.64c-0.17-0.24-0.35-0.47-0.52-0.7c-2.32-2.85-6.68-6.29-12.04-7.45c2.2,2.47,3.68,7.07,4.39,12.22
	C43.88,23.95,46.72,22.56,48.06,20.64z"/>
<path display="none" d="M31.77,38.15c-1.94,0-3.76,0.11-5.43,0.31c0.97,7.54,3.5,11.97,5.43,11.97c1.94,0,4.47-4.45,5.44-12.02
	C35.54,38.24,33.73,38.15,31.77,38.15z"/>
<path display="none" d="M56.68,0H7.31C3.29,0,0,3.29,0,7.31v49.39C0,60.71,3.29,64,7.31,64h49.38c4.02,0,7.3-3.29,7.3-7.31V7.31
	C63.99,3.29,60.7,0,56.68,0z M51.51,42.78l-0.4,0.72c-0.1,0.16-0.22,0.31-0.32,0.47c-1.5,2.36-3.43,4.41-5.67,6.06
	c-0.03,0.02-0.05,0.04-0.08,0.06c-0.33,0.24-0.66,0.48-1,0.7c-0.49,0.33-0.99,0.63-1.5,0.91c-0.03,0.01-0.05,0.03-0.08,0.04
	c-2.54,1.39-5.32,2.26-8.27,2.57c-0.09,0.01-0.18,0.02-0.27,0.03c-0.71,0.06-1.42,0.11-2.15,0.11c-7.05,0-13-2.82-17.38-8.19
	c-0.05-0.06-0.09-0.13-0.14-0.19c-0.34-0.42-0.66-0.86-0.98-1.3c-0.12-0.16-0.23-0.33-0.34-0.5c-0.09-0.14-0.19-0.27-0.29-0.42
	l-0.43-0.67l0.03-0.05c-1.92-3.31-3.03-7.15-3.03-11.24c0-4.1,1.12-7.94,3.04-11.26l0-0.01l0.36-0.63c0.7-1.25,1.7-2.5,2.91-3.7
	c3.72-3.88,8.81-6.43,14.48-6.87c0.59-0.05,1.18-0.09,1.77-0.09c0.58,0,1.16,0.03,1.73,0.09c6.58,0.5,12.37,3.84,16.17,8.8
	c0.27,0.34,0.53,0.68,0.76,1.02c0.02,0.03,0.04,0.06,0.06,0.09c0.12,0.18,0.25,0.35,0.36,0.53l0.4,0.65l-0.02,0.04
	c1.95,3.34,3.09,7.2,3.09,11.34C54.33,35.83,53.3,39.54,51.51,42.78z"/>
<path display="none" d="M40.18,27.47c0.12,1.46,0.18,2.95,0.18,4.42c0,1.38-0.05,2.77-0.16,4.15c3.81,0.65,7.34,1.89,9.53,4.13
	c1.17-2.52,1.84-5.32,1.84-8.28c0-3.13-0.75-6.08-2.05-8.71C47.6,25.24,44.45,26.69,40.18,27.47z"/>
<path display="none" d="M15.44,43.06c0.31,0.45,0.63,0.88,0.98,1.3c0.05,0.07,0.11,0.13,0.16,0.19c2.89,3.46,6.93,5.91,11.54,6.78
	c-2.25-2.48-3.76-7.19-4.47-12.45C19.69,39.69,16.82,41.12,15.44,43.06z"/>
<path display="none" d="M39.92,38.79c-0.7,5.3-2.22,10.06-4.48,12.55c3.7-0.64,6.62-2.55,6.76-2.64c2.33-1.48,4.39-3.48,6.12-5.97
	C46.95,40.86,44.04,39.52,39.92,38.79z"/>
<path display="none" d="M56.58,0.13H7.41c-4,0-7.28,3.27-7.28,7.28v49.19c0,4,3.27,7.28,7.28,7.28h49.17c4,0,7.28-3.27,7.28-7.28
	V7.41C63.86,3.41,60.58,0.13,56.58,0.13z M52.71,36.07c-0.85,2.23-2.04,3.97-3.57,5.21c-1.54,1.24-3.31,1.87-5.33,1.87
	c-1.49,0-2.78-0.4-3.87-1.19c-1.09-0.79-1.83-1.87-2.2-3.22H37.4c-0.92,1.47-2.06,2.57-3.42,3.31c-1.35,0.74-2.88,1.1-4.58,1.1
	c-3.07,0-5.49-0.99-7.25-2.97c-1.76-1.98-2.64-4.65-2.64-8.02c0-3.88,1.17-7.03,3.51-9.45c2.33-2.42,5.47-3.63,9.41-3.63
	c1.43,0,3.02,0.13,4.76,0.38c1.74,0.25,3.29,0.61,4.65,1.06l-0.62,13.14v0.68c0,3.01,0.98,4.52,2.94,4.52
	c1.49,0,2.67-0.96,3.55-2.88s1.31-4.37,1.31-7.35c0-3.22-0.66-6.05-1.98-8.49c-1.32-2.44-3.19-4.32-5.63-5.64
	c-2.43-1.32-5.22-1.98-8.36-1.98c-4.01,0-7.5,0.83-10.47,2.49c-2.97,1.66-5.23,4.03-6.8,7.11c-1.57,3.08-2.35,6.65-2.35,10.72
	c0,5.46,1.46,9.66,4.38,12.6c2.92,2.94,7.11,4.41,12.58,4.41c4.16,0,8.5-0.85,13.03-2.54v4.63c-3.96,1.62-8.26,2.43-12.92,2.43
	c-6.97,0-12.4-1.88-16.3-5.64c-3.9-3.76-5.85-9-5.85-15.73c0-4.92,1.05-9.29,3.17-13.13c2.11-3.83,5.03-6.77,8.77-8.8
	c3.74-2.04,7.97-3.05,12.7-3.05c4.09,0,7.73,0.85,10.92,2.54c3.19,1.7,5.67,4.11,7.43,7.25c1.76,3.14,2.64,6.76,2.64,10.87
	C53.98,31.38,53.56,33.84,52.71,36.07z"/>
<path display="none" d="M26.95,25.74c-1.35,1.6-2.02,3.78-2.02,6.53c0,4.39,1.72,6.58,5.17,6.58c3.64,0,5.62-2.76,5.96-8.28
	l0.34-6.75c-1.19-0.32-2.46-0.48-3.81-0.48C30.18,23.34,28.3,24.14,26.95,25.74z"/>
<path display="none" d="M56.68,0.17H7.31c-4.02,0-7.3,3.29-7.3,7.3v49.38c0,4.01,3.29,7.3,7.3,7.3h49.37c4.02,0,7.3-3.29,7.3-7.3
	V7.48C63.98,3.46,60.69,0.17,56.68,0.17z M35.99,43.69c-3.21,0-6.23-1.74-7.26-3.7c0,0-1.72,6.85-2.09,8.17
	c-1.29,4.67-5.07,9.34-5.37,9.73c-0.2,0.26-0.66,0.18-0.71-0.17c-0.08-0.6-1.05-6.49,0.09-11.29c0.57-2.41,3.82-16.19,3.82-16.19
	s-0.95-1.9-0.95-4.7c0-4.4,2.55-7.69,5.73-7.69c2.7,0,4.01,2.03,4.01,4.46c0,2.72-1.73,6.78-2.62,10.55
	c-0.75,3.15,1.58,5.72,4.69,5.72c5.63,0,9.42-7.23,9.42-15.8c0-6.51-4.39-11.39-12.37-11.39c-9.01,0-14.63,6.72-14.63,14.23
	c0,2.59,0.76,4.42,1.96,5.83c0.55,0.65,0.63,0.91,0.43,1.65c-0.14,0.55-0.47,1.86-0.61,2.38c-0.2,0.75-0.81,1.02-1.49,0.75
	c-4.15-1.7-6.09-6.24-6.09-11.35c0-8.44,7.12-18.57,21.24-18.57c11.35,0,18.82,8.21,18.82,17.03
	C52.02,34.98,45.54,43.69,35.99,43.69z"/>
<path fill="#010101" d="M55.5,15.41c0-0.29-0.15-0.58-0.29-0.86L42.9,0.35l0,0C42.75,0.2,42.75,0.2,42.62,0.2c0,0,0,0-0.15,0
	c-0.15,0-0.15-0.15-0.29-0.15l0,0c-0.15,0-0.15,0-0.29,0H11.48c-1.45,0-2.47,1.17-2.47,2.47V61.6c0,1.45,1.17,2.47,2.47,2.47h41.55
	c1.46,0,2.47-1.17,2.47-2.47V15.41L55.5,15.41z M11.48,2.52h29.11v12.89c0,0.73,0.58,1.3,1.3,1.3h11.15v44.02H11.48V2.52z"/>
<path fill="#010101" d="M15.3,22.3v20.43h33.57v-20.4L15.3,22.3z M27.19,27.08v-3.35h9.43v3.35H27.19z M37.89,27.08v-3.35h9.43v3.35
	H37.89z M27.34,28.37h20.16v12.9h-3.23v-11.6h-3.89v11.6h-1.32v-9H35.3v9h-1.17v-6.39h-3.89v6.39h-2.91V28.37z M25.9,38.06v3.35
	h-9.43v-3.35H25.9z M25.9,33.29v3.35h-9.43v-3.35H25.9z M25.9,28.51v3.35h-9.43v-3.35H25.9z"/>
<rect x="15.8" y="22.8" display="none" fill="none" stroke="#010101" stroke-miterlimit="10" width="32.57" height="19.43"/>
</svg>
