<?xml version="1.0" encoding="utf-8"?>
<!-- Generator: Adobe Illustrator 17.1.0, SVG Export Plug-In . SVG Version: 6.00 Build 0)  -->
<!DOCTYPE svg PUBLIC "-//W3C//DTD SVG 1.1//EN" "http://www.w3.org/Graphics/SVG/1.1/DTD/svg11.dtd">
<svg version="1.1" id="Layer_1" xmlns="http://www.w3.org/2000/svg" xmlns:xlink="http://www.w3.org/1999/xlink" x="0px" y="0px"
	 viewBox="0 0 128 128" enable-background="new 0 0 128 128" xml:space="preserve">
<path display="none" d="M46.4,64.8c0-3,0.2-5.8,0.4-8.8c-8.6-1.6-15-4.4-18.8-8.4c-2.6,5.2-4,11-4,17.2s1.4,12,4,17.4
	c4-4.2,10.4-7.2,18.8-8.8C46.4,70.4,46.4,67.6,46.4,64.8z"/>
<path display="none" d="M63.6,51.8c3.8,0,7.4-0.2,10.8-0.6c-2-14.8-7-23.6-10.8-23.6s-8.8,8.8-10.8,23.6
	C56,51.6,59.6,51.8,63.6,51.8z"/>
<path display="none" d="M47.4,50.4C48.8,40,51.8,30.8,56.2,26c-7.6,1.6-14.6,5.4-19.6,10l-0.2,0.2c-0.4,0.2-0.6,0.6-0.8,0.8
	c-1.6,1.6-3.2,3.6-4.6,5.4C33.6,46.2,39.2,49,47.4,50.4z"/>
<path display="none" d="M52.2,56.8C52,59.4,52,62,52,64.8c0,2.6,0,5.2,0.2,7.6c3.6-0.4,7.4-0.6,11.4-0.6c3.6,0,7.6,0.2,11.4,0.6
	c0.2-2.4,0.2-5,0.2-7.6c0-2.8-0.2-5.6-0.2-8c-3.6,0.4-7.2,0.6-11.4,0.6C59.4,57.2,55.6,57,52.2,56.8z"/>
<path display="none" d="M96.2,42.2c-0.4-0.4-0.6-1-1-1.4c-4.6-5.6-13.4-12.6-24-15c4.4,5,7.4,14.2,8.8,24.4
	C87.8,48.8,93.4,46.2,96.2,42.2z"/>
<path display="none" d="M63.6,77.2c-3.8,0-7.6,0.2-10.8,0.6c2,15,7,24,10.8,24c3.8,0,9-8.8,10.8-24C71,77.4,67.4,77.2,63.6,77.2z"/>
<path display="none" d="M113.4,1H14.6C6.6,1,0,7.6,0,15.6v98.8c0,8,6.6,14.6,14.6,14.6h98.8c8,0,14.6-6.6,14.6-14.6V15.6
	C128,7.6,121.4,1,113.4,1z M103,86.6l-0.8,1.4c-0.2,0.4-0.4,0.6-0.6,1c-3,4.8-6.8,8.8-11.4,12.2c0,0-0.2,0-0.2,0.2
	c-0.6,0.4-1.4,1-2,1.4c-1,0.6-2,1.2-3,1.8h-0.2c-5,2.8-10.6,4.6-16.6,5.2c-0.2,0-0.4,0-0.6,0c-1.4,0.2-2.8,0.2-4.2,0.2
	c-14,0-26-5.6-34.8-16.4c0-0.2-0.2-0.2-0.2-0.4c-0.6-0.8-1.4-1.8-2-2.6c-0.2-0.4-0.4-0.6-0.6-1c-0.2-0.2-0.4-0.6-0.6-0.8l-0.8-1.4
	v-0.2c-3.8-6.6-6-14.2-6-22.4s2.2-15.8,6-22.6l0,0l0.8-1.2c1.4-2.4,3.4-5,5.8-7.4c7.4-7.8,17.6-12.8,29-13.8
	c1.2-0.2,2.4-0.2,3.6-0.2c1.2,0,2.4,0,3.4,0.2c13.2,1,24.8,7.6,32.4,17.6c0.6,0.6,1,1.4,1.6,2c0,0,0,0.2,0.2,0.2
	c0.2,0.4,0.4,0.8,0.8,1l0.8,1.2l0,0c4,6.6,6.2,14.4,6.2,22.6C108.6,72.6,106.6,80,103,86.6z"/>
<path display="none" d="M80.4,56c0.2,3,0.4,5.8,0.4,8.8c0,2.8-0.2,5.6-0.4,8.2c7.6,1.2,14.6,3.8,19,8.2c2.4-5,3.6-10.6,3.6-16.6
	c0-6.2-1.6-12.2-4-17.4C95.2,51.4,89,54.4,80.4,56z"/>
<path display="none" d="M30.8,87.2c0.6,0.8,1.2,1.8,2,2.6C33,90,33,90,33.2,90.2c5.8,7,13.8,11.8,23,13.6c-4.6-5-7.6-14.4-9-25
	C39.4,80.4,33.6,83.2,30.8,87.2z"/>
<path display="none" d="M79.8,78.6c-1.4,10.6-4.4,20.2-9,25c7.4-1.2,13.2-5.2,13.6-5.2c4.6-3,8.8-7,12.2-12C94,82.8,88,80,79.8,78.6
	z"/>
<path display="none" d="M113.2,1.2H14.8c-8,0-14.6,6.6-14.6,14.6v98.4c0,8,6.6,14.6,14.6,14.6h98.4c8,0,14.6-6.6,14.6-14.6V15.8
	C127.8,7.8,121.2,1.2,113.2,1.2z M105.4,73.2c-1.6,4.4-4,8-7.2,10.4c-3,2.4-6.6,3.8-10.6,3.8c-3,0-5.6-0.8-7.8-2.4s-3.6-3.8-4.4-6.4
	h-0.6c-1.8,3-4.2,5.2-6.8,6.6c-2.8,1.4-5.8,2.2-9.2,2.2c-6.2,0-11-2-14.4-6c-3.6-4-5.2-9.4-5.2-16c0-7.8,2.4-14,7-19
	c4.6-4.8,11-7.2,18.8-7.2c2.8,0,6,0.2,9.6,0.8c3.4,0.6,6.6,1.2,9.2,2.2l-1.2,26.2v1.4c0,6,2,9,5.8,9c3,0,5.4-2,7-5.8
	c1.8-3.8,2.6-8.8,2.6-14.6c0-6.4-1.4-12.2-4-17s-6.4-8.6-11.2-11.2c-4.8-2.6-10.4-4-16.8-4c-8,0-15,1.6-21,5s-10.4,8-13.6,14.2
	s-4.6,13.4-4.6,21.4c0,11,3,19.4,8.8,25.2s14.2,8.8,25.2,8.8c8.4,0,17-1.6,26-5v9.2c-8,3.2-16.6,4.8-25.8,4.8
	c-14,0-24.8-3.8-32.6-11.2c-7.8-7.6-11.8-18-11.8-31.4c0-9.8,2.2-18.6,6.4-26.2s10-13.6,17.6-17.6C48,19,56.6,17,66,17
	c8.2,0,15.4,1.6,21.8,5s11.4,8.2,14.8,14.4c3.6,6.6,5.4,13.8,5.4,22C108,63.8,107.2,68.6,105.4,73.2z"/>
<path display="none" d="M54,52.4c-2.6,3.2-4,7.6-4,13c0,8.8,3.4,13.2,10.4,13.2c7.2,0,11.2-5.6,12-16.6L73,48.4c-2.4-0.6-5-1-7.6-1
	C60.4,47.6,56.6,49.2,54,52.4z"/>
<path display="none" d="M113.4,1.4H14.6C6.6,1.4,0,8,0,16v98.8c0,8,6.6,14.6,14.6,14.6h98.8c8,0,14.6-6.6,14.6-14.6V16
	C128,8,121.4,1.4,113.4,1.4z M72,88.4c-6.4,0-12.4-3.4-14.6-7.4c0,0-3.4,13.6-4.2,16.4c-2.6,9.4-10.2,18.6-10.8,19.4
	c-0.4,0.6-1.4,0.4-1.4-0.4c-0.2-1.2-2-13,0.2-22.6c1.2-4.8,7.6-32.4,7.6-32.4S47,57.6,47,52c0-8.8,5.2-15.4,11.4-15.4c5.4,0,8,4,8,9
	c0,5.4-3.4,13.6-5.2,21C59.8,73,64.4,78,70.6,78c11.2,0,18.8-14.4,18.8-31.6c0-13-8.8-22.8-24.8-22.8c-18,0-29.2,13.4-29.2,28.4
	c0,5.2,1.6,8.8,4,11.6c1.2,1.2,1.2,1.8,0.8,3.4c-0.2,1-1,3.8-1.2,4.8c-0.4,1.6-1.6,2-3,1.4C27.8,70,24,61,24,50.8
	C24,34,38.2,13.6,66.4,13.6c22.8,0,37.6,16.4,37.6,34C104,71,91,88.4,72,88.4z"/>
<path display="none" fill="#010101" d="M111,31.8c0-0.6-0.4-1.2-0.6-1.8L85.8,1.8l0,0c-0.4-0.4-0.4-0.4-0.6-0.4c0,0,0,0-0.4,0
	S84.4,1,84.2,1l0,0c-0.4,0-0.4,0-0.6,0H23c-3,0.2-5,2.4-5,5v118.2c0,3,2.4,5,5,5h83c3,0,5-2.4,5-5V31.8L111,31.8z M23,6h58.2v25.8
	c0,1.4,1.2,2.6,2.6,2.6H106v88H23V6z"/>
<path display="none" fill="#010101" d="M30.6,45.6v40.8h67.2V45.6H30.6z M54.4,55.2v-6.6h18.8v6.6H54.4z M75.8,55.2v-6.6h18.8v6.6
	H75.8z M54.6,57.8H95v25.8h-6.4V60.4h-7.8v23.2h-2.6v-18h-7.6v18h-2.4V70.8h-7.8v12.8h-5.8V57.8z M51.8,77.2v6.6H33v-6.6H51.8z
	 M51.8,67.6v6.6H33v-6.6H51.8z M51.8,58v6.6H33V58H51.8z"/>
<rect x="31.6" y="46.6" display="none" fill="none" stroke="#010101" stroke-miterlimit="10" width="65.2" height="38.8"/>
<path fill="#010101" d="M109.8,29L85.2,0.6c-0.4-0.4-0.4-0.4-0.6-0.4c0,0,0,0-0.4,0C84,0.4,84,0,83.8,0c-0.4,0-0.4,0-0.6,0H22.4
	c-2.8,0-4.8,2.4-4.8,5v118c0,3,2.4,5,5,5h83c3,0,5-2.4,5-5V30.8C110.4,30.2,110.2,29.6,109.8,29z M105.6,121.2H22.4V5h58.2v25.8
	c0,1.4,1.2,2.6,2.6,2.6h22.2v87.8H105.6z"/>
<path display="none" fill="#010101" d="M43,49.2v8.4v0.2c0,1.4-0.6,2.6-1.8,3.4c-1.2,0.8-2.8,1.2-5,1.2v6.4c2.2,0,4,0.4,5,1.2
	c1.2,0.8,1.8,2,1.8,3.6V82c0,2.8,0.8,4.6,2.6,5.8c1.8,1.2,4.8,1.6,9,1.6v-6c-1.8,0-3-0.4-3.6-1s-1-1.6-1-2.8v-8v-0.2
	c0-3.2-2-5-6.2-5.6v-0.4c4-0.6,6.2-2.6,6.2-6v-8c0-1.2,0.4-2.2,1-2.8s1.8-1,3.6-1v-6c-4.4,0-7.4,0.6-9,1.6
	C43.8,44.6,43,46.6,43,49.2z"/>
<path display="none" fill="#010101" d="M80.2,42.6c-1.6-0.4-4-0.8-7-0.8v6c1.8,0,3,0.4,3.6,1s1,1.6,1,2.8v8C78,63,80,65,84,65.6V66
	c-2,0.4-3.6,1-4.6,1.8c-1,1-1.6,2.2-1.6,3.8v0.2v8c0,1.2-0.4,2.2-1,2.8c-0.6,0.6-1.8,1-3.6,1v6c3,0,5.2-0.2,7-0.8
	c1.6-0.4,2.8-1.2,3.6-2.2s1-2.6,1-4.4v-8.4c0-1.8,0.6-3,1.8-3.6c1.2-0.8,2.8-1,5-1v-6.4c-2.4,0-4-0.4-5.2-1.2
	c-1-0.8-1.6-1.8-1.6-3.4V58v-8.4c0-2-0.4-3.4-1-4.4C83,43.8,81.8,43,80.2,42.6z"/>
<polygon display="none" fill="#010101" points="27,67.2 41.4,73.8 41.4,70.6 30.4,65.8 30.4,65.8 41.4,61 41.4,57.8 27,64.6 "/>
<polygon display="none" fill="#010101" points="86.8,61 98,65.8 98,65.8 86.8,70.6 86.8,73.8 101.2,67.2 101.2,64.4 86.8,57.8 "/>
<path display="none" fill="#010101" d="M63.8,48.6c-9.6,0-17.2,7.8-17.2,17.2c0,9.6,7.8,17.2,17.2,17.2C73.4,83,81,75.2,81,65.8
	S73.2,48.6,63.8,48.6z M70.2,55.4l1.2-0.8c0,0-0.6-1.4-0.4-2c0.2-0.2,1.6,0.4,2.6,1.6c-0.6,2.6-2.4,2.2-2.4,2.2S70,56.4,70.2,55.4z
	 M59.8,70.6c0,0.4-0.6,1.4-0.8,2c-0.4,0.6-0.4,0.8-0.8,1.2c-0.4,0.4-0.6,0.8-0.6,0.8V76c0,0,0.2,1,0.4,1.4S57.2,80,57.2,80
	c-0.6-0.2-1-1-1.2-1.6s-0.6-1-0.4-1.6c0-0.6-0.6-1-0.8-1.4C54.2,75,54,74.4,54,74s-0.8-1-0.8-1s-1.6-0.6-1.8-1s-0.4-1.6-0.6-2.2
	c0-0.6,0.2-2,0.2-2s0.6-0.4,0.2-0.8c-0.4-0.4-0.4-1.4-0.4-1.4L50,65c0,0-0.6-0.8-0.6-1.2c0-0.4,0-0.6,0-1s-0.2-1-0.2-1.4
	c2.8-7,7.8-8.8,7.8-8.8l0.4,1.6c0,0-0.8,0.2-1.4,0C55.6,54,55.2,54,55.2,54l-0.6,0.8c0,0-0.2,0.6-0.4,0.8c0,0.4,0.2,0.8,0.2,0.8
	s1,0,1-0.2c0-0.4-0.2-0.4-0.2-0.4L55,55.2c0,0,0.8-0.4,2.6-0.2s1.2,1.4,2,1.8c0.8,0.4-0.6,1.4-1,2S57.8,58,57.8,58s0.4-0.6-0.4-0.6
	c-0.8-0.2-1.2,1.4-0.8,1.4s0.8,0.4,0.8,0.8s0,0.4-0.4,1.2s-1.2,1.4-1.2,1.4s-0.4-0.2-0.2,0.2s0,1.6,0,1.8c0,0.4-1-0.6-1-1.4
	c-0.2-0.8-1,0-1.4,0s-0.8-0.2-1-0.6c-0.2-0.4-1.6,0.8-2,1S50,64,50.6,63.8c0.6-0.4,1.2,0,1,0.6C51.4,65,50.8,64.6,51,65
	c0,0.4,0.6,0.8,0.8,1.4s1.6,0,2-0.2s1.8-0.4,2,0.2s1.6,0.8,2.2,1c0.6,0.2,1.6,0.2,2.2,0.8C61,69,60,70.2,59.8,70.6z M63.4,52.6
	c0,0.8-1.4,1.8-1.2,2c0.2,0.4,0,1.6-1,0.4s-2.2-1.6-2-2.4c0-0.2,1.2-0.4,1.2-0.6c1.6-1.6,4.2-1.2,4.4-0.8
	C64.2,52,63.4,51.8,63.4,52.6z M76.8,57.8c1,1.8,2.6,6.6,2,7.4C78.4,65,78.2,65,78.2,65h-2l1.2,1.4c0,0,0.6,0.8,1.4,0.8
	c-0.6,6.4-6,10.6-6,10.6c-0.8-0.8-0.4-1.6-0.4-1.6l0.2-1.2l0.2-2c0,0,0-2.2-2-1.2c-2.2,0.6-1.2,0.6-3.6,0.8C65,72.8,65.4,68,65.4,68
	c0-7,5.4-1.8,5.4-1.8c3,2,3.4-1.8,3.4-1.8l2.2-0.8l0.2-1l-0.4-1.4L73,59.8c0,0-0.4,1,0.6,2.4c0,0-0.2,1.4-1,1.2l-2-1
	c0,0-0.6-0.2-1.6,0.4c-1,0.6-2.8,0-2.8,0s0.2-1,1.2-1.6l0.8-0.6c0,0-0.2-1,0-1.8s0.6-0.2,1.4-0.8s1.4,1.2,2.6,1s0.6-0.4,1.4-0.8
	C74.4,57.8,75,59,75,59l1.6,0.2C76.8,59.2,76.6,57.2,76.8,57.8z"/>
<path display="none" fill="#010101" d="M109.8,30L85.2,1.6c-0.4-0.4-0.4-0.4-0.6-0.4c0,0,0,0-0.4,0C84,1.4,84,1,83.8,1
	c-0.4,0-0.4,0-0.6,0H22.4c-2.8,0-4.8,2.4-4.8,5v118c0,3,2.4,5,5,5h83c3,0,5-2.4,5-5V31.8C110.4,31.2,110.2,30.6,109.8,30z
	 M105.6,122.2H22.4V6h58.2v25.8c0,1.4,1.2,2.6,2.6,2.6h22.2v87.8H105.6z"/>
<path display="none" fill="#010101" d="M109.8,30L85.2,1.6c-0.4-0.4-0.4-0.4-0.6-0.4c0,0,0,0-0.4,0C84,1.4,84,1,83.8,1
	c-0.4,0-0.4,0-0.6,0H22.4c-2.8,0-4.8,2.4-4.8,5v118c0,3,2.4,5,5,5h1.2c0.2,0.2,0.4,0.2,0.4,0.2h1.6c-0.6,0-1.2,0-1.6-0.2h77.2l0,0
	c0,0,0,0,0.2,0h4.4c3,0,5-2.4,5-5V31.8C110.4,31.2,110.2,30.6,109.8,30z M105.6,122.2H22.4V6h40.4l0.2,6.4h-8V17h8v9.2h-8v4.6h8v8.8
	h-8v4.6h8v0.4V45v7h-8v4.6h8v9.2h-8v4.6h8v8.8h-8v4.6h4.2c-1.6,0-3,1.4-3,3.2v1.8l0,0v14c0,3.6,2.8,6.6,6.2,6.6c3.4,0,6.2-3,6.2-6.6
	v-14l0,0V87c0-1.8-1.4-3.2-3-3.2l0,0v-7.2H73V72h-7v-8.8h7.4v-4.6H66v-9.2h7.4v-4.6H66v-7.6h7.4v-4.6H66v-8.8h7.4V19H66V9.8V6h14.6
	v25.8c0,1.4,1.2,2.6,2.6,2.6h22.2v87.8H105.6z M66.8,95v7.8c0,2.4-1.8,4.2-4,4.2c-2.2,0-4-2-4-4.2V95H66.8z"/>
<path display="none" fill="#010101" d="M109.8,30L85.2,1.6c-0.4-0.4-0.4-0.4-0.6-0.4c0,0,0,0-0.4,0C84,1.4,84,1,83.8,1
	c-0.4,0-0.4,0-0.6,0H22.4c-2.8,0-4.8,2.4-4.8,5v118c0,3,2.4,5,5,5h83c3,0,5-2.4,5-5V31.8C110.4,31.2,110.2,30.6,109.8,30z
	 M105.6,122.2H22.4V6h58.2v25.8c0,1.4,1.2,2.6,2.6,2.6h22.2v87.8H105.6z"/>
<path display="none" fill="#010101" d="M109.8,30L85.2,1.6c-0.4-0.4-0.4-0.4-0.6-0.4c0,0,0,0-0.4,0C84,1.4,84,1,83.8,1
	c-0.4,0-0.4,0-0.6,0H22.4c-2.8,0-4.8,2.4-4.8,5v118c0,3,2.4,5,5,5h83c3,0,5-2.4,5-5V31.8C110.4,31.2,110.2,30.6,109.8,30z
	 M105.6,122.2H22.4V6h58.2v25.8c0,1.4,1.2,2.6,2.6,2.6h22.2v87.8H105.6z"/>
<path display="none" fill="#010101" d="M109.8,30L85.2,1.6c-0.4-0.4-0.4-0.4-0.6-0.4c0,0,0,0-0.4,0C84,1.4,84,1,83.8,1
	c-0.4,0-0.4,0-0.6,0H22.4c-2.8,0-4.8,2.4-4.8,5v118c0,3,2.4,5,5,5h83c3,0,5-2.4,5-5V31.8C110.4,31.2,110.2,30.6,109.8,30z
	 M105.6,122.2H22.4V6h58.2v25.8c0,1.4,1.2,2.6,2.6,2.6h22.2v87.8H105.6z"/>
<path display="none" fill="#010101" d="M57,90.8c-0.8-0.4-1.4-0.8-1.8-1.4c-0.4,0-0.8,0-1.2,0c-13,0-22.2-4.6-22.2-8.6V74
	c4,3.8,12.4,6.2,22.2,6.2c0.6,0,1.2,0,1.8,0c0.4-0.4,0.8-0.6,1.2-0.8c0.6-0.2,1-0.6,1.2-1s0.2-1,0-1.4C58,76.8,58,76.4,58,76.2
	c-1.2,0-2.4,0.2-3.8,0.2c-13,0-22.2-4.6-22.2-8.6V61c4,3.8,12.4,6.2,22.2,6.2s18-2.4,22.2-6.2v4.4h0.2c1,0,1.8,0.4,2.4,0.8v-5.8
	c0-1-0.2-2-0.8-3v-0.2c0.6-1,1-2,1-3.2v-7.2c0-1-0.2-2-0.8-3v-0.2c0.2-0.4,0.2-0.8,0.2-1.4c0-5.8-12.4-8.8-24.2-8.8
	s-24.2,3.2-24.2,8.8c0,0.4,0.2,1,0.2,1.4v0.2c-0.6,1-0.8,2-0.8,3V54c0,1,0.4,2.2,1,3.2v0.2c-0.6,1-0.8,2-0.8,3v7.2c0,1,0.4,2,1,3
	l0,0c-0.6,1-0.8,2-0.8,3v7.2c0,6.4,10.8,11.4,24.8,11.4c1.4,0,2.8,0,4-0.2c0,0,0,0,0-0.2C57.8,91.4,57.6,91,57,90.8z M32,48
	c4,3.4,13.2,5.2,22.2,5.2s18.2-1.8,22.2-5.2v6c0,4-9,8.6-22.2,8.6C41.2,62.6,32,58,32,54V48z"/>
<path display="none" fill="#010101" d="M83.6,89.8c0.2,0,0.4-0.2,0.6-0.6c0-0.2,0-0.4,0-0.8c-0.2-0.6-0.2-1.4,0.4-2L86,85
	c0.4-0.4,0.8-0.6,1.2-0.6h0.4l0.4,0.2c0.2,0.2,0.6,0.2,0.8,0c0.2,0,0.4-0.2,0.6-0.6c0.2-0.6,0.8-1,1.6-1.2v-1.2c0-0.2,0-0.2-0.2-0.4
	c-1.4-0.6-2.4-1.6-3-3s-0.6-3,0-4.2c0-0.2,0-0.2,0-0.4l-3-3c-0.2-0.2-0.2-0.2-0.4,0c-1.4,0.6-3,0.6-4.2,0c-1.4-0.6-2.4-1.6-3-3
	c0-0.2-0.2-0.2-0.4-0.2h-4.2c-0.2,0-0.2,0-0.4,0.2c-0.6,1.4-1.6,2.4-3,3s-3,0.6-4.2,0c0,0-0.2,0-0.4,0l-3,3c0,0-0.2,0.2,0,0.4
	c0.6,1.4,0.6,3,0,4.2c-0.6,1.4-1.6,2.4-3,3c-0.2,0-0.2,0.2-0.2,0.4v4.2c0,0.2,0,0.2,0.2,0.4c1.4,0.6,2.4,1.6,3,3s0.6,3,0,4.2
	c0,0.2,0,0.2,0,0.4l3,3c0.2,0.2,0.2,0.2,0.4,0c0.6-0.4,1.4-0.4,2.2-0.4s1.4,0.2,2,0.4c1.4,0.6,2.4,1.6,3,3c0,0.2,0.2,0.2,0.4,0.2
	h4.2c0.2,0,0.2,0,0.4-0.2c0.6-1.4,1.6-2.4,3-3s2.8-0.6,4.2,0c0-0.2,0-0.4,0.2-0.6s0.2-0.6,0-0.8c0-0.2-0.2-0.4-0.6-0.6
	c-0.8-0.2-1.2-1-1.2-1.6v-2C82.4,90.6,82.8,90,83.6,89.8z M74.4,92c-4.4,0-8-3.6-8-8s3.6-8,8-8s8,3.6,8,8S78.8,92,74.4,92z"/>
<path display="none" fill="#010101" d="M99.6,91.2c-0.6-0.2-1.2-0.8-1.4-1.4c-0.2-0.6-0.2-1.4,0-2v-0.2l-1.4-1.4h-0.2
	c-0.6,0.2-1.4,0.2-2,0s-1.2-0.8-1.4-1.4c0,0,0-0.2-0.2-0.2h-2c0,0-0.2,0-0.2,0.2c-0.2,0.6-0.8,1.2-1.4,1.4c-0.6,0.2-1.4,0.2-2,0
	c0,0,0,0-0.2,0l-1.4,1.4v0.2c0.2,0.6,0.2,1.4,0,2S85,91,84.4,91.2c0,0-0.2,0-0.2,0.2v2c0,0,0,0.2,0.2,0.2c0.6,0.2,1.2,0.8,1.4,1.4
	s0.2,1.4,0,2v0.2l1.4,1.4h0.2c0.4-0.2,0.6-0.2,1-0.2s0.6,0,1,0.2c0.6,0.2,1.2,0.8,1.4,1.4c0,0,0,0,0.2,0h2h0.2
	c0.2-0.6,0.8-1.2,1.4-1.4c0.6-0.2,1.4-0.2,2,0h0.2l1.4-1.4V97c-0.2-0.6-0.2-1.4,0-2s0.8-1.2,1.4-1.4c0,0,0,0,0-0.2V91.2
	C99.6,91.4,99.6,91.2,99.6,91.2z M92,96.2c-2.2,0-3.8-1.8-3.8-3.8c0-2.2,1.8-3.8,3.8-3.8c2.2,0,3.8,1.8,3.8,3.8
	C95.8,94.6,94.2,96.2,92,96.2z"/>
<path display="none" fill="#010101" d="M109.8,30L85.2,1.6c-0.4-0.4-0.4-0.4-0.6-0.4c0,0,0,0-0.4,0C84,1.4,84,1,83.8,1
	c-0.4,0-0.4,0-0.6,0H22.4c-2.8,0-4.8,2.4-4.8,5v118c0,3,2.4,5,5,5h83c3,0,5-2.4,5-5V31.8C110.4,31.2,110.2,30.6,109.8,30z
	 M105.6,122.2H22.4V6h58.2v25.8c0,1.4,1.2,2.6,2.6,2.6h22.2v87.8H105.6z"/>
<path display="none" fill="#040305" d="M55.6,86.2c0-0.6,0-1-0.2-1.6l21-10.6c2.2,2.2,5.4,3.6,8.8,3.6c7,0,12.8-5.8,12.8-12.8
	S92.2,52,85.2,52c-3.4,0-6.6,1.4-8.8,3.6L55.4,45c0-0.6,0.2-1,0.2-1.6c0-7-5.8-12.8-12.8-12.8S30,36.4,30,43.4
	c0,5.6,3.6,10.2,8.4,12V74c-5,1.8-8.4,6.4-8.4,12c0,7,5.8,12.8,12.8,12.8C49.8,99,55.6,93.2,55.6,86.2z M47,74.2V55.6
	c1.8-0.6,3.2-1.6,4.6-2.8l21,10.6c0,0.6-0.2,1-0.2,1.6s0,1,0.2,1.6L51.6,77C50.2,75.8,48.8,74.8,47,74.2z"/>
<path display="none" fill="#010101" d="M109.8,30L85.2,1.6c-0.4-0.4-0.4-0.4-0.6-0.4c0,0,0,0-0.4,0C84,1.4,84,1,83.8,1
	c-0.4,0-0.4,0-0.6,0H22.4c-2.8,0-4.8,2.4-4.8,5v118c0,3,2.4,5,5,5h83c3,0,5-2.4,5-5V31.8C110.4,31.2,110.2,30.6,109.8,30z
	 M105.6,122.2H22.4V6h58.2v25.8c0,1.4,1.2,2.6,2.6,2.6h22.2v87.8H105.6z"/>
<path display="none" fill="#010101" d="M31.6,73c0,18,14.6,33.2,33,33.4C83,106.6,98,91.4,98,73.2C98,54.6,83,39.8,64.8,40
	C46.6,40,31.6,55,31.6,73z M88.4,93c-2.4,3.6-6.2,4.4-10.2,5c-7.4,1.2-14.6,0.2-21.8-1.6c-0.4-0.2-0.8-0.2-1.2-0.2
	c-3-0.6-4.2,0.6-3.4,3.6c0,0.4,0.2,0.8,0.4,1.6c-0.8-0.2-1.2-0.4-1.6-0.6c-5.6-3-9.8-7.2-12.8-12.6c-1.2-2.4,0.2-5,2.8-4.8
	c2,0.2,4,0.8,6,1.6c6,2.4,11.8,5.2,18.2,6.4c3.6,0.6,7.4,1.2,11.2,1.4c4.4,0.2,8.6-0.8,12.8-2c0.4-0.2,0.8-0.2,1.2-0.2
	c0.2,0.2,0.2,0.2,0.4,0.4C89.6,91.4,89,92.2,88.4,93z M95,78.4c-0.4,1.2-0.4,2.4-0.8,3.4c-0.2,0.8-0.6,1-1.6,1
	c-6.2-1.2-11.8-3.6-17.2-6.8c-6.6-4.2-13-8.8-19.6-13c-1.4-1-3-1.8-4.6-2.6c-4.6-2.4-9-1.4-12.8,1.8c-0.6,0.6-1.2,1.2-2,1.6
	c-0.2,0.2-0.6,0.4-1,0.6c-0.2,0-0.2-0.2-0.4-0.2c0.2-0.8,0.4-1.6,0.8-2.4c1.6-4.2,4-7.6,7.2-10.6c1-0.8,2.6-1.2,3.8-1.4
	c5.4-1,10.4-0.4,14.8,3.2c3.2,2.8,6.2,5.6,9.4,8.4c4.6,4,9.2,7.8,14,11.6c2.6,2,5.6,3.4,8.8,4.2C95,77.4,95.2,77.8,95,78.4z
	 M93.8,63.2c0.6,1.6,0.4,2.4-0.6,3.4c-1,0.8-2.4,1-3.6,0c-1.6-1.4-3-2.8-4.2-4.4c-3-3.6-5.6-7.4-8.6-10.6c-4-4.4-9.2-6.4-15-6.8
	c-1.6,0-3.2-0.2-4.8-0.2c-0.4,0-0.6,0-1-0.2c0-0.2,0-0.4,0-0.6c1.4-0.4,3-0.8,4.4-1c8.6-1.2,16.4,1,23.4,6.4
	C88.6,52.8,92,57.6,93.8,63.2z"/>
<path display="none" fill="#010101" d="M109.8,30L85.2,1.6c-0.4-0.4-0.4-0.4-0.6-0.4c0,0,0,0-0.4,0C84,1.4,84,1,83.8,1
	c-0.4,0-0.4,0-0.6,0H22.4c-2.8,0-4.8,2.4-4.8,5v118c0,3,2.4,5,5,5h83c3,0,5-2.4,5-5V31.8C110.4,31.2,110.2,30.6,109.8,30z
	 M105.6,122.2H22.4V6h58.2v25.8c0,1.4,1.2,2.6,2.6,2.6h22.2v87.8H105.6z"/>
<path display="none" fill="#010101" d="M90.8,66.4v2H89c-0.2,0-0.4,0-0.6,0.2S88.2,69,88.2,69v2h-1.6c-0.2,0-0.4,0-0.6,0.2
	s-0.2,0.4-0.2,0.4v1.8H84c-0.4,0-0.6,0-0.8,0.2l0,0C83,73.8,83,74,83,74.4v1.8h-2c-0.2,0-0.4,0-0.6,0.2l-3,3c-3.8-1.6-8-0.6-11,2.2
	c-4,4-4,10.4,0,14.2c4,4,10.4,4,14.2,0c2.6-2.6,3.6-6.6,2.4-10.2l15-15c0.2-0.2,0.2-0.4,0.4-0.6l1.4-5.8c0.2-0.4,0-1-0.4-1.4
	s-0.8-0.4-1.4-0.4L92.6,64c-0.2,0-0.4,0.2-0.6,0.4l-1.2,1.2C91,66,91,66.2,90.8,66.4z M74.4,94.8c-1,1-3.6,0.4-5.4-1.4
	s-2.4-4.2-1.4-5.4c1-1,3.6-0.4,5.4,1.4C75,91.2,75.6,93.6,74.4,94.8z M97.6,69.2L83.2,83.6L83,83.4L97.4,69L97.6,69.2z M96.2,67.8
	l0.4,0.4L82.2,82.6l-0.4-0.4L96.2,67.8z"/>
<path display="none" fill="#010101" d="M28,92h34c-0.2-1.2-0.2-2.6-0.2-3.8h-30V60H88v6.4c0.4-0.4,1-0.8,1.6-1
	c0.2-0.6,0.6-1.2,1.2-1.8l1.2-1.2V49H28V92z"/>
<rect x="43.4" y="65.8" display="none" fill="#010101" width="32.6" height="4.2"/>
<path display="none" fill="#010101" d="M43.4,80.8h21.4c0.4-0.4,0.8-0.8,1.2-1.2c1.2-1.2,2.8-2.2,4.4-3h-27V80.8z"/>
<path display="none" fill="#010101" d="M109.8,30L85.2,1.6c-0.4-0.4-0.4-0.4-0.6-0.4c0,0,0,0-0.4,0C84,1.4,84,1,83.8,1
	c-0.4,0-0.4,0-0.6,0H22.4c-2.8,0-4.8,2.4-4.8,5v118c0,3,2.4,5,5,5h83c3,0,5-2.4,5-5V31.8C110.4,31.2,110.2,30.6,109.8,30z
	 M105.6,122.2H22.4V6h58.2v25.8c0,1.4,1.2,2.6,2.6,2.6h22.2v87.8H105.6z"/>
<rect x="32.4" y="68" display="none" fill="#010101" width="17" height="4.2"/>
<rect x="32.4" y="55.4" display="none" fill="#010101" width="34.8" height="4.2"/>
<rect x="32.4" y="42.6" display="none" fill="#010101" width="47.4" height="4.2"/>
<rect x="32.4" y="80.8" display="none" fill="#010101" width="17" height="4.2"/>
<rect x="32.4" y="93.2" display="none" fill="#010101" width="17" height="4.2"/>
<path display="none" fill="#010101" d="M75,62.6c-10.6,0-19.4,8.6-19.4,19.4s8.6,19.4,19.4,19.4c10.6,0,19.4-8.6,19.4-19.4H75V62.6z
	"/>
<path display="none" fill="#010101" d="M77.6,78.8L77.6,78.8H97c0-5.4-2.2-10.4-5.8-13.8L77.6,78.8z"/>
<path display="none" fill="#010101" d="M77.4,75.4L91,61.8c-3.8-3.8-8.6-5.8-13.6-5.6V75.4L77.4,75.4z"/>
<path display="none" fill="#010101" d="M109.8,30L85.2,1.6c-0.4-0.4-0.4-0.4-0.6-0.4c0,0,0,0-0.4,0C84,1.4,84,1,83.8,1
	c-0.4,0-0.4,0-0.6,0H22.4c-2.8,0-4.8,2.4-4.8,5v118c0,3,2.4,5,5,5h83c3,0,5-2.4,5-5V31.8C110.4,31.2,110.2,30.6,109.8,30z
	 M105.6,122.2H22.4V6h58.2v25.8c0,1.4,1.2,2.6,2.6,2.6h22.2v87.8H105.6z"/>
<path display="none" fill="#010101" d="M34.6,43.6H94c1.4,0,2.6,1.2,2.6,2.6c0,1.4-1.2,2.6-2.6,2.6H34.6c-1.4,0-2.6-1.2-2.6-2.6
	C32,44.8,33.2,43.6,34.6,43.6z"/>
<path display="none" fill="#010101" d="M96.6,63.8c0,1.4-1.2,2.6-2.6,2.6H34.6c-1.4,0-2.6-1.2-2.6-2.6s1.2-2.6,2.6-2.6H94
	C95.4,61.2,96.6,62.4,96.6,63.8z"/>
<path display="none" fill="#010101" d="M96.6,80.8c0,1.4-1.2,2.6-2.6,2.6H34.6c-1.4,0-2.6-1.2-2.6-2.6s1.2-2.6,2.6-2.6H94
	C95.4,78.2,96.6,79.4,96.6,80.8z"/>
<path display="none" fill="#010101" d="M96.6,98c0,1.4-1.2,2.6-2.6,2.6H34.6c-1.4,0-2.6-1.2-2.6-2.6s1.2-2.6,2.6-2.6H94
	C95.4,95.4,96.6,96.6,96.6,98z"/>
<path display="none" fill="#010101" d="M109.8,30L85.2,1.6c-0.4-0.4-0.4-0.4-0.6-0.4c0,0,0,0-0.4,0C84,1.4,84,1,83.8,1
	c-0.4,0-0.4,0-0.6,0H22.4c-2.8,0-4.8,2.4-4.8,5v118c0,3,2.4,5,5,5h83c3,0,5-2.4,5-5V31.8C110.4,31.2,110.2,30.6,109.8,30z
	 M105.6,122.2H22.4V6h58.2v25.8c0,1.4,1.2,2.6,2.6,2.6h22.2v87.8H105.6z"/>
<path display="none" fill="#010101" d="M33.6,33.6h37c1.2,0,2.2-1,2.2-2.2s-1-2.2-2.2-2.2h-37c-1.2,0-2.2,1-2.2,2.2
	C31.4,32.6,32.4,33.6,33.6,33.6z"/>
<path display="none" fill="#010101" d="M31.4,49.2c0,1.2,1,2.2,2.2,2.2h60.8c1.2,0,2.2-1,2.2-2.2s-1-2.2-2.2-2.2H33.6
	C32.4,47,31.4,48,31.4,49.2z"/>
<path display="none" fill="#010101" d="M94.4,64.6H33.6c-1.2,0-2.2,1-2.2,2.2s1,2.2,2.2,2.2h60.8c1.2,0,2.2-1,2.2-2.2
	S95.6,64.6,94.4,64.6z"/>
<path display="none" fill="#010101" d="M94.4,82.8H33.6c-1.2,0-2.2,1-2.2,2.2s1,2.2,2.2,2.2h60.8c1.2,0,2.2-1,2.2-2.2
	S95.6,82.8,94.4,82.8z"/>
<path display="none" fill="#010101" d="M109.8,30L85.2,1.6c-0.4-0.4-0.4-0.4-0.6-0.4c0,0,0,0-0.4,0C84,1.4,84,1,83.8,1
	c-0.4,0-0.4,0-0.6,0H22.4c-2.8,0-4.8,2.4-4.8,5v118c0,3,2.4,5,5,5h83c3,0,5-2.4,5-5V31.8C110.4,31.2,110.2,30.6,109.8,30z
	 M105.6,122.2H22.4V6h58.2v25.8c0,1.4,1.2,2.6,2.6,2.6h22.2v87.8H105.6z"/>
<polygon display="none" fill="#231F20" points="76,50.8 80.2,50.8 75.4,72.2 69.2,42.2 59.2,42.2 52,72.2 46.4,42.2 36,42.2 
	46.6,90.2 56.8,90.2 64,62 70.4,90.2 79.8,90.2 92,42.2 76,42.2 "/>
<path display="none" fill="#010101" d="M53,43H29v10.2v1.4v8.8v1.4v8.8V75v10.2h22.6H53h21.2h1.4h22.6V73.6v-8.8V54.6v-1.4V43h-24
	H53z M51.6,84H30.4v-9h21.2V84z M51.6,73.6H30.4v-8.8h21.2V73.6z M51.6,63.4H30.4v-8.8h21.2V63.4z M51.6,53.2H30.4v-8.8h21.2V53.2z
	 M74.2,84H53v-9h21.2V84z M74.2,63.4H53v-8.8h21.2V63.4z M75.6,44.4h21.2v8.8H75.6V44.4z M75.6,54.6h21.2v8.8H75.6V54.6z M75.6,75
	h21.2v8.8H75.6V75z"/>
<path display="none" fill="#010101" d="M109.8,30L85.2,1.6c-0.4-0.4-0.4-0.4-0.6-0.4c0,0,0,0-0.4,0C84,1.4,84,1,83.8,1
	c-0.4,0-0.4,0-0.6,0H22.4c-2.8,0-4.8,2.4-4.8,5v118c0,3,2.4,5,5,5h83c3,0,5-2.4,5-5V31.8C110.4,31.2,110.2,30.6,109.8,30z
	 M105.6,122.2H22.4V6h58.2v25.8c0,1.4,1.2,2.6,2.6,2.6h22.2v87.8H105.6z"/>
<path fill="#010101" d="M75.2,71.4c-10.4-7.8-19-15.8-23.6-20.2c0-0.4,0.2-0.8,0.2-1.2c0.6-6.4,0-10.8-2-12.8
	c-1.2-1.4-3.2-1.8-5-1.4c-1.2,0.4-3.4,1.4-4.2,3.8c-0.8,2.6,0.4,5.8,3.8,9.4c0,0,1.2,1.2,3.2,3.2c-1.4,6.4-4.8,20-6.4,26.6
	c-4,2.2-7.2,4.6-9.8,7.6L31.2,87L31,87.2c-0.2,0.6-1.6,3.4-0.6,5.8c0.4,1,1.2,1.8,2.4,2.2H33c0,0,0.2,0,0.8,0c2,0,7-1,9.8-11
	l0.6-2.6c9.4-4.6,21.2-6,29.8-6.4c4.4,3.2,8.8,6.2,13,9h0.2c0.2,0.2,2,1,4.2,1c3.2,0,5.4-2,6.2-5.2v-0.2c0.2-2-0.2-3.6-1.4-5
	c-2.2-2.8-6.8-3-7.2-3c-0.2,0-3.6-0.4-8.8-0.4C78.6,71.4,76.8,71.4,75.2,71.4z M33.8,91.6c-0.2-0.6,0-1.8,0.4-2.6
	c1.6-1.8,3.4-3.4,5.6-4.8C37.6,91,34.6,91.6,33.8,91.6z M47,47c-3.2-3.6-3.2-5.4-3-6c0.2-1,1.6-1.4,1.6-1.4c0.6-0.2,1-0.2,1.4,0.2
	c0.8,0.8,1.4,3.4,1.2,8.2C47.4,47.4,47,47,47,47z M45.4,77.2V77c1.6-6.2,4-15.4,5.2-21.4c4.2,4,10.8,10,18.8,16h0.2
	C62.2,72.6,53.2,74,45.4,77.2z M93.6,77.4c0.4,0.4,0.6,1,0.6,1.8c-0.6,2-1.6,2.4-2.6,2.4c-1.2,0-2.2-0.4-2.6-0.6
	c-2.8-1.8-5.8-3.8-8.8-5.8c5.2,0,8.6,0.4,8.6,0.4C89.6,75.6,92.4,76,93.6,77.4z"/>
</svg>
