<?xml version="1.0" encoding="utf-8"?>
<!-- Generator: Adobe Illustrator 17.1.0, SVG Export Plug-In . SVG Version: 6.00 Build 0)  -->
<!DOCTYPE svg PUBLIC "-//W3C//DTD SVG 1.1//EN" "http://www.w3.org/Graphics/SVG/1.1/DTD/svg11.dtd">
<svg version="1.1" id="Layer_1" xmlns="http://www.w3.org/2000/svg" xmlns:xlink="http://www.w3.org/1999/xlink" x="0px" y="0px"
	 viewBox="0 0 200 200" enable-background="new 0 0 200 200" xml:space="preserve">
<g>
	<path d="M171.6,45.3L133.1,0.9c-0.6-0.6-0.6-0.6-0.9-0.6c0,0,0,0-0.6,0S131.2,0,130.9,0c-0.6,0-0.6,0-0.9,0H35
		c-4.4,0-7.5,3.8-7.5,7.8v184.4c0,4.7,3.8,7.8,7.8,7.8H165c4.7,0,7.8-3.8,7.8-7.8V48.1C172.5,47.2,172.2,46.2,171.6,45.3z
		 M165,189.7H35V7.8h90.9v40.3c0,2.2,1.9,4.1,4.1,4.1h34.7v137.5H165z"/>
	<path d="M86.6,133.1c0-0.9,0-1.6-0.3-2.5l32.8-16.6c3.8,3.4,8.4,5.6,13.8,5.6c10.9,0,20-9.1,20-20s-8.8-20-20-20
		c-5.3,0-10.3,2.2-13.8,5.6L86.2,68.8c0-0.9,0.3-1.6,0.3-2.5c0-10.9-9.1-20-20-20s-20,9.1-20,20c0,8.8,5.6,15.9,13.1,18.8v29.1
		c-7.8,2.8-13.1,10-13.1,18.8c0,10.9,9.1,20,20,20C77.8,153.1,86.6,144.1,86.6,133.1z M73.4,114.4V85.3c2.8-0.9,5-2.5,7.2-4.4
		l32.8,16.6c0,0.9-0.3,1.6-0.3,2.5s0,1.6,0.3,2.5l-32.8,16.2C78.4,116.9,76.2,115.6,73.4,114.4z"/>
</g>
</svg>
