<?xml version="1.0" encoding="utf-8"?>
<!-- Generated by IcoMoon.io -->
<!DOCTYPE svg PUBLIC "-//W3C//DTD SVG 1.1//EN" "http://www.w3.org/Graphics/SVG/1.1/DTD/svg11.dtd">
<svg version="1.1" xmlns="http://www.w3.org/2000/svg" xmlns:xlink="http://www.w3.org/1999/xlink" width="32" height="32" viewBox="0 0 32 32">
<g id="icomoon-ignore">
</g>
<path d="M26.831 0.006h-21.669c-5.162 0-5.162 5.125-5.162 5.162v21.675c0 0.044 0 5.163 5.162 5.163h21.669c5.162 0 5.162-5.1 5.162-5.163v-21.681c-0.006-0.019-0.006-5.156-5.163-5.156zM17.688 30.375c1.531-0.719 2.125-2 2.156-3.5 0.063-2.188-1.688-4.094-4.344-3.188-2.719 0.906-4.906-1.594-3.719-5.5-4.563 4.031-3.656 10.469 0.563 12.688-10.031-2.25-9.563-10.844-6.781-14.75 2.094-2.938 5.063-4.438 6.969-6.438 1.75-1.813 2.563-4.094 1-8.281 6.938 4.094 6 9.563 3.594 11.938-1.125 1.125-1.156 2.625 0.125 3.406 1.594 0.938 3.75-0.469 3.563-2.531-0.281-3.125 0.719-5.031 3.625-5.281-2.438 4.563 2.406 5.313 2.406 10.75 0 4.125-2.625 9.531-9.156 10.688z" fill="#000000"></path>
</svg>
