<?xml version="1.0" encoding="utf-8"?>
<!-- Generated by IcoMoon.io -->
<!DOCTYPE svg PUBLIC "-//W3C//DTD SVG 1.1//EN" "http://www.w3.org/Graphics/SVG/1.1/DTD/svg11.dtd">
<svg version="1.1" xmlns="http://www.w3.org/2000/svg" xmlns:xlink="http://www.w3.org/1999/xlink" width="32" height="32" viewBox="0 0 32 32">
<g id="icomoon-ignore">
</g>
<path d="M28.335 0.006h-24.683c-2.009 0-3.652 1.644-3.652 3.652v24.689c0 2.008 1.643 3.652 3.652 3.652h24.683c2.009 0 3.652-1.644 3.652-3.652v-24.689c0-2.008-1.643-3.652-3.652-3.652zM19.871 27.764c0 0 2.98-4.303-1.197-7.401 0 0 0.943 2.425 0.539 3.233 0 0-4.073-1.698-3.278-8.488 0 0-1.416 0.868-1.976 5.658 0 0-0.642-0.039-0.808-1.347 0 0-0.674 1.078 0 3.772 0 0-0.808-0.269-1.213-1.482 0 0-1.478 2.776 1.378 6.504 0 0-10.614-4.631-3.13-15.666 0 0-0.572 3.432-0.057 5.653 0 0 5.177-5.114 2.213-14.411 0 0 5.254 3.907 5.793 7.814 0 0 0.507-0.494 0.674-2.964 0 0 2.829 1.348 1.617 7.612 0 0 1.61 0.144 1.482-5.052 0.001 0.001 6.954 9.677-2.036 16.563z" fill="#000000"></path>
</svg>
