<?xml version="1.0" encoding="utf-8"?>
<!-- Generated by IcoMoon.io -->
<!DOCTYPE svg PUBLIC "-//W3C//DTD SVG 1.1//EN" "http://www.w3.org/Graphics/SVG/1.1/DTD/svg11.dtd">
<svg version="1.1" xmlns="http://www.w3.org/2000/svg" xmlns:xlink="http://www.w3.org/1999/xlink" width="32" height="32" viewBox="0 0 32 32">
<g id="icomoon-ignore">
</g>
<path d="M28.387 0h-24.728c-2.012 0-3.659 1.644-3.659 3.653v24.694c0 2.009 1.647 3.653 3.659 3.653h24.728c2.012 0 3.659-1.644 3.659-3.653v-24.694c0-2.009-1.647-3.653-3.659-3.653zM24.862 17.198c0 0.246-0.007 0.493-0.023 0.741-1.105-0.055-3.801-0.599-4.818-4.453 0.573-0.124 1.525-0.413 2.241-1.058 0.322-0.053 0.635-0.147 0.922-0.265 0.535 1 1.306 2.642 1.678 5.034zM15.013 10.626c3.866-0.808 7.371-0.135 7.641 0.539 0.024 0.059 0.059 0.132 0.103 0.215-0.226 0.086-0.48 0.157-0.751 0.19l-0.151 0.019-0.108 0.107c-0.84 0.831-2.298 0.991-2.312 0.993l-0.494 0.050 0.104 0.485c0.845 3.915 3.25 5.104 4.788 5.46-1.429 0.532-3.993 1.322-6.618 1.322-3.955 0-8.27-1.436-8.27-1.436s2.203-7.135 6.068-7.942zM26.987 20.903c-1.791 1.376-21.851 0.841-22.344-0.031s0.697-1.765 2.667-1.765 4.866 1.703 9.858 1.703c4.991 0 7.192-1.526 7.192-1.526 0.722-0.81 4.532 0.156 2.627 1.62z" fill="#000000"></path>
</svg>
