<?xml version="1.0" encoding="utf-8"?>
<!-- Generated by IcoMoon.io -->
<!DOCTYPE svg PUBLIC "-//W3C//DTD SVG 1.1//EN" "http://www.w3.org/Graphics/SVG/1.1/DTD/svg11.dtd">
<svg version="1.1" xmlns="http://www.w3.org/2000/svg" xmlns:xlink="http://www.w3.org/1999/xlink" width="32" height="32" viewBox="0 0 32 32">
<g id="icomoon-ignore">
</g>
<path d="M13.956 4.85c1.2 3.206 0.575 4.956-0.769 6.344-1.463 1.531-3.738 2.681-5.338 4.931-2.131 3-2.494 9.581 5.194 11.306-3.231-1.7-3.925-6.631-0.431-9.725-0.912 2.994 0.769 4.913 2.85 4.212 2.038-0.694 3.375 0.769 3.331 2.444-0.025 1.15-0.481 2.131-1.65 2.681 5.006-0.887 7.019-5.031 7.019-8.188 0-4.169-3.712-4.744-1.844-8.238-2.225 0.194-2.994 1.65-2.775 4.050 0.144 1.581-1.506 2.656-2.731 1.938-0.981-0.6-0.956-1.75-0.094-2.613 1.831-1.819 2.55-6.006-2.762-9.144z" fill="#000000"></path>
<path d="M26.831 0.006h-21.669c-5.162 0-5.162 5.125-5.162 5.162v21.675c0 0.044 0 5.163 5.162 5.163h21.669c5.162 0 5.162-5.1 5.162-5.163v-21.681c-0.006-0.019-0.006-5.156-5.163-5.156zM28.681 24.594c0 0.044 0 4.094-4.094 4.094h-17.181c-4.094 0-4.094-4.056-4.094-4.094v-17.188c0-0.031 0-4.094 4.094-4.094h17.181c4.094 0 4.094 4.075 4.094 4.094v17.188z" fill="#000000"></path>
</svg>
