<?xml version="1.0" encoding="utf-8"?>
<!-- Generated by IcoMoon.io -->
<!DOCTYPE svg PUBLIC "-//W3C//DTD SVG 1.1//EN" "http://www.w3.org/Graphics/SVG/1.1/DTD/svg11.dtd">
<svg version="1.1" xmlns="http://www.w3.org/2000/svg" xmlns:xlink="http://www.w3.org/1999/xlink" width="33" height="32" viewBox="0 0 33 32">
<g id="icomoon-ignore">
</g>
<path d="M27.335 0h-22.078c-5.257 0-5.257 5.216-5.257 5.254v22.065c0 0.044 0 5.253 5.257 5.253h22.078c5.257 0 5.257-5.194 5.257-5.253v-22.065c-0.001-0.023-0.001-5.254-5.258-5.254zM10.577 21.683c-2.838 0-5.139-2.3-5.139-5.136s2.301-5.137 5.139-5.137 5.139 2.301 5.139 5.137-2.302 5.136-5.139 5.136zM22.291 21.666c-2.851 0-5.163-2.293-5.163-5.119 0-2.828 2.312-5.119 5.163-5.119s5.163 2.292 5.163 5.119c0 2.827-2.312 5.119-5.163 5.119z" fill="#000000"></path>
</svg>
