<?xml version="1.0" encoding="utf-8"?>
<!-- Generated by IcoMoon.io -->
<!DOCTYPE svg PUBLIC "-//W3C//DTD SVG 1.1//EN" "http://www.w3.org/Graphics/SVG/1.1/DTD/svg11.dtd">
<svg version="1.1" xmlns="http://www.w3.org/2000/svg" xmlns:xlink="http://www.w3.org/1999/xlink" width="32" height="32" viewBox="0 0 32 32">
<g id="icomoon-ignore">
</g>
<path d="M13.398 19.050c-1.237-0.052-2.436 0.142-3.586 0.611-1.061 0.433-1.76 1.188-1.907 2.34-0.154 1.199 0.362 2.118 1.33 2.813 1.011 0.726 2.17 0.916 3.388 0.971 0.796-0.041 1.6-0.117 2.352-0.472 1.905-0.899 2.286-3.225 0.731-4.646-0.58-0.53-1.226-0.991-1.854-1.467-0.12-0.092-0.299-0.144-0.454-0.151z" fill="#000000"></path>
<path d="M13.723 7.68c-0.639-0.76-1.472-1.090-2.458-0.892-1.032 0.208-1.618 0.904-1.886 1.886-0.287 1.054-0.097 2.075 0.259 3.077 0.353 0.994 0.861 1.878 1.746 2.506 1.223 0.869 3.305 0.359 3.636-1.258 0.075-0.367 0.1-0.744 0.141-1.069-0.037-0.392-0.047-0.735-0.105-1.069-0.203-1.16-0.561-2.264-1.333-3.182z" fill="#000000"></path>
<path d="M0 4.267v23.466c0 2.356 1.911 4.267 4.267 4.267h23.468c2.356 0 4.267-1.911 4.267-4.267v-23.466c0-2.356-1.911-4.267-4.267-4.267h-23.468c-2.356 0-4.267 1.911-4.267 4.267zM15.63 6.859c0.047 0.056 0.086 0.12 0.141 0.166 1.58 1.338 1.96 3.228 1.393 5.085-0.22 0.721-0.711 1.261-1.23 1.783-0.372 0.374-0.763 0.738-1.079 1.157-0.413 0.547-0.371 1.135 0.095 1.639 0.341 0.37 0.744 0.683 1.114 1.027 0.421 0.393 0.84 0.789 1.253 1.191 1.236 1.201 1.31 3.38 0.568 4.731-0.673 1.226-1.669 2.103-2.97 2.592-2.004 0.754-4.058 0.847-6.132 0.302-0.656-0.172-1.237-0.493-1.776-0.911-2.166-1.684-1.541-4.208-0.027-5.482 1.052-0.885 2.308-1.347 3.655-1.554 0.741-0.114 1.491-0.175 2.308-0.268-0.669-0.897-1.098-1.837-0.529-2.923-0.648-0.035-1.236-0.036-1.816-0.104-1.874-0.222-3.489-2.043-3.609-3.918-0.162-2.529 1.834-4.858 4.4-5.285 0.877-0.146 1.777-0.193 2.667-0.214 1.448-0.034 2.897-0.009 4.346-0.009 0.112 0 0.223 0 0.367 0-0.936 0.756-1.927 1.187-3.142 0.888 0.001 0.037 0.002 0.074 0.002 0.111zM27.582 16.124c-0.97 0-1.93 0-2.936 0 0 0.978 0 1.923 0 2.889-0.57 0-1.094 0-1.652 0 0-0.942 0-1.879 0-2.861-0.978 0-1.923 0-2.891 0 0-0.57 0-1.093 0-1.667 0.945 0 1.89 0 2.872 0 0-1.009 0-1.968 0-2.948 0.562 0 1.085 0 1.648 0 0 0.963 0 1.922 0 2.932 1.005 0 1.973 0 2.96 0-0.001 0.574-0.001 1.098-0.001 1.656z" fill="#000000"></path>
</svg>
