<?xml version="1.0" encoding="utf-8"?>
<!-- Generated by IcoMoon.io -->
<!DOCTYPE svg PUBLIC "-//W3C//DTD SVG 1.1//EN" "http://www.w3.org/Graphics/SVG/1.1/DTD/svg11.dtd">
<svg version="1.1" xmlns="http://www.w3.org/2000/svg" xmlns:xlink="http://www.w3.org/1999/xlink" width="25" height="32" viewBox="0 0 25 32">
<g id="icomoon-ignore">
</g>
<path d="M0 25.089q0-1.214 0.098-2.339t0.429-2.464 0.848-2.366 1.446-1.839 2.143-1.080q-0.393 0.929-0.393 2.143v3.625q-1.036 0.357-1.661 1.25t-0.625 1.982q0 1.429 1 2.429t2.429 1 2.429-1 1-2.429q0-1.089-0.634-1.982t-1.652-1.25v-3.625q0-1.107 0.446-1.661 2.357 1.857 5.268 1.857t5.268-1.857q0.446 0.554 0.446 1.661v1.143q-1.893 0-3.232 1.339t-1.339 3.232v1.589q-0.571 0.518-0.571 1.268 0 0.714 0.5 1.214t1.214 0.5 1.214-0.5 0.5-1.214q0-0.75-0.571-1.268v-1.589q0-0.929 0.679-1.607t1.607-0.679 1.607 0.679 0.679 1.607v1.589q-0.571 0.518-0.571 1.268 0 0.714 0.5 1.214t1.214 0.5 1.214-0.5 0.5-1.214q0-0.75-0.571-1.268v-1.589q0-1.214-0.616-2.277t-1.67-1.67q0-0.179 0.009-0.759t0-0.857-0.045-0.741-0.125-0.839-0.232-0.714q1.214 0.268 2.143 1.080t1.446 1.839 0.848 2.366 0.429 2.464 0.098 2.339q0 2.161-1.304 3.393t-3.464 1.232h-15.607q-2.161 0-3.464-1.232t-1.304-3.393zM4.571 24q0-0.464 0.339-0.804t0.804-0.339 0.804 0.339 0.339 0.804-0.339 0.804-0.804 0.339-0.804-0.339-0.339-0.804zM5.714 9.143q0-2.839 2.009-4.848t4.848-2.009 4.848 2.009 2.009 4.848-2.009 4.848-4.848 2.009-4.848-2.009-2.009-4.848z" fill="#000000"></path>
</svg>
