<?xml version="1.0" encoding="utf-8"?>
<!-- Generated by IcoMoon.io -->
<!DOCTYPE svg PUBLIC "-//W3C//DTD SVG 1.1//EN" "http://www.w3.org/Graphics/SVG/1.1/DTD/svg11.dtd">
<svg version="1.1" xmlns="http://www.w3.org/2000/svg" xmlns:xlink="http://www.w3.org/1999/xlink" width="32" height="32" viewBox="0 0 32 32">
<g id="icomoon-ignore">
</g>
<path d="M0 24.571v-17.143q0-2.125 1.509-3.634t3.634-1.509h17.143q2.125 0 3.634 1.509t1.509 3.634v17.143q0 2.125-1.509 3.634t-3.634 1.509h-17.143q-2.125 0-3.634-1.509t-1.509-3.634zM4.571 24q0 0.464 0.339 0.804t0.804 0.339h2.286q0.464 0 0.804-0.339t0.339-0.804v-5.714h9.143v5.714q0 0.464 0.339 0.804t0.804 0.339h2.286q0.464 0 0.804-0.339t0.339-0.804v-16q0-0.464-0.339-0.804t-0.804-0.339h-2.286q-0.464 0-0.804 0.339t-0.339 0.804v5.714h-9.143v-5.714q0-0.464-0.339-0.804t-0.804-0.339h-2.286q-0.464 0-0.804 0.339t-0.339 0.804v16z" fill="#000000"></path>
</svg>
