<svg id="Layer_1" data-name="Layer 1" xmlns="http://www.w3.org/2000/svg" viewBox="0 0 33 32"><title>Artboard 1</title><path d="M28.85,0H3.72A3.73,3.73,0,0,0,0,3.72V28.86a3.73,3.73,0,0,0,3.72,3.72H28.85a3.73,3.73,0,0,0,3.72-3.72V3.72A3.73,3.73,0,0,0,28.85,0ZM10,27.86H4.85V12.44H10ZM7.43,10.34h0A2.67,2.67,0,1,1,7.46,5a2.67,2.67,0,1,1,0,5.33ZM28.61,27.86H23.45V19.61c0-2.07-.75-3.49-2.61-3.49A2.82,2.82,0,0,0,18.19,18,3.45,3.45,0,0,0,18,19.25v8.61H12.86s.07-14,0-15.42H18v2.19a5.12,5.12,0,0,1,4.65-2.55c3.4,0,5.94,2.2,5.94,6.94Z"/></svg>