<?xml version="1.0" encoding="utf-8"?>
<!-- Generator: Adobe Illustrator 19.1.0, SVG Export Plug-In . SVG Version: 6.00 Build 0)  -->
<svg version="1.1" id="Layer_1" xmlns="http://www.w3.org/2000/svg" xmlns:xlink="http://www.w3.org/1999/xlink" x="0px" y="0px"
	 viewBox="0 0 210.2 49" style="enable-background:new 0 0 210.2 49;" xml:space="preserve">
<style type="text/css">
	.st0{fill:#006C40;}
	.st1{fill:#FFFFFF;}
</style>
<rect y="-0.6" class="st0" width="211" height="50.5"/>
<g>
	<path class="st1" d="M25.2,33.3c-1.5,1.6-3.7,2-5.9,2c-1.7,0-3.5-0.3-5.2-0.7v-3.2c1.6,0.7,3.4,1.2,5.1,1.2c1.6,0,3.3-0.7,3.3-2.5
		c0-0.4-0.1-0.7-0.2-1c-1.1-2.6-8.3-3.3-8.3-8.6c0-3.5,3-5.2,6.2-5.2c1.7,0,3.4,0.3,5.1,0.7v3c-1.4-0.5-3-1-4.5-1
		c-1.3,0-2.9,0.6-2.9,2.1c0,3.4,8.7,3.6,8.7,9.6C26.6,31,26.1,32.3,25.2,33.3"/>
	<path class="st1" d="M35.8,35.1c-4.6,0-7.5-2.8-7.5-7.5c0-4.1,2.5-7.3,6.7-7.3c2.6,0,4.7,1.3,5.4,3.9c0.4,1.3,0.4,2.7,0.5,4.2h-8.7
		c0.2,2.8,1.7,4,4.4,4c1.5,0,2.9-0.4,4.3-0.9v2.6C39.3,34.8,37.5,35.1,35.8,35.1 M34.9,22.8c-2,0-2.6,2-2.7,3.5h5
		C37.2,24.8,36.9,22.8,34.9,22.8"/>
	<path class="st1" d="M50.7,23.6c-1.7,0-2.8,0.9-3.6,2.2v9h-3.8V20.7h3.8v2.7c0.9-1.8,2.4-3,4.5-3c0.3,0,0.5,0,0.7,0.1v3.4
		C51.6,23.7,51.3,23.6,50.7,23.6"/>
	<polygon class="st1" points="62.5,34.8 58.8,34.8 53.4,20.7 57.4,20.7 61.3,30.9 65.2,20.7 67.8,20.7 	"/>
	<path class="st1" d="M82.8,35.1c-4.5,0-7.3-2.9-7.3-7.4c0-4.7,3-7.4,7.5-7.4c1.4,0,2.7,0.2,4,0.6v2.8c-1.2-0.4-2.5-0.8-3.7-0.8
		c-2.6,0-3.7,2.4-3.7,4.7c0,2.6,1.2,4.9,4,4.9c1.2,0,2.4-0.3,3.5-0.7v2.6C85.8,34.9,84.3,35.1,82.8,35.1"/>
	<path class="st1" d="M96.4,35.1c-4.6,0-7.6-2.8-7.6-7.5c0-4.1,2.5-7.3,6.7-7.3c2.7,0,4.7,1.3,5.5,3.9c0.4,1.3,0.4,2.7,0.4,4.2h-8.6
		c0.2,2.8,1.6,4,4.3,4c1.6,0,2.9-0.4,4.3-0.9v2.6C99.9,34.8,98.1,35.1,96.4,35.1 M95.5,22.8c-1.9,0-2.5,2-2.6,3.5h5
		C97.8,24.8,97.5,22.8,95.5,22.8"/>
	<path class="st1" d="M113.9,35.3c-6,0-9.5-4-9.5-10c0-5.9,3.5-9.9,9.5-9.9c6,0,9.5,4,9.5,9.9C123.4,31.3,119.9,35.3,113.9,35.3
		 M113.9,18c-4,0-5.4,3.9-5.4,7.3c0,3.4,1.4,7.4,5.4,7.4c4,0,5.4-4,5.4-7.4C119.3,21.9,117.8,18,113.9,18"/>
	<path class="st1" d="M134.6,34.8v-9c0-1.1-0.1-2.4-1.6-2.4c-1.6,0-2.6,1.3-3.4,2.5v8.9h-3.8V20.7h3.8v2.7c1-1.8,2.6-3,4.7-3
		c2.7,0,4,1.9,4,4.5v9.9H134.6z"/>
	<path class="st1" d="M146.9,35.1c-3.2,0-4.8-1.2-4.8-4.6v-7.4h-1.6v-2.4h1.6v-2.3l3.7-0.4v2.8h3v2.4h-3V30c0,1.6,0.4,2.5,2.2,2.5
		c0.4,0,0.8-0.1,1.1-0.2v2.3C148.4,34.9,147.6,35.1,146.9,35.1"/>
	<path class="st1" d="M162,35.1c-1.5,0-2.5-0.4-3-1.8h-0.1c-1.2,1.2-2.2,1.8-4,1.8c-2.4,0-4.1-1.6-4.1-4c0-1.4,0.5-2.6,1.6-3.4
		c1.6-1.2,3.7-1.5,5.6-1.5h1v-1.2c0-1.6-0.9-2.2-2.4-2.2c-1.6,0-3.2,0.5-4.5,1.3v-2.6c1.7-0.6,3.3-1,5.1-1c1.5,0,3.1,0.3,4.4,1.4
		c1,0.8,1.1,1.9,1.1,3.1V31c0,0.7,0.1,1.6,1.1,1.6c0.2,0,0.3,0,0.5-0.1l0.1,2.1C163.4,35,162.7,35.1,162,35.1 M158.8,28.4h-0.9
		c-1.4,0-3.6,0.4-3.6,2.3c0,1,0.8,1.8,1.9,1.8c1.1,0,1.9-0.6,2.6-1.3V28.4z"/>
	<path class="st1" d="M173.4,23.6c-1.7,0-2.7,0.9-3.6,2.2v9H166V20.7h3.9v2.7c0.9-1.8,2.3-3,4.4-3c0.3,0,0.5,0,0.7,0.1v3.4
		C174.4,23.7,174.1,23.6,173.4,23.6"/>
	<path class="st1" d="M177.1,15.2h3.7v3.2h-3.7V15.2z M177.1,20.7h3.7v14.1h-3.7V20.7z"/>
	<path class="st1" d="M190.5,35.1c-4.5,0-7.1-2.9-7.1-7.4c0-4.5,2.6-7.4,7.1-7.4c4.5,0,7.2,2.9,7.2,7.4
		C197.7,32.2,195,35.1,190.5,35.1 M190.5,22.8c-2.6,0-3.2,2.9-3.2,5c0,2.1,0.6,5,3.2,5c2.5,0,3.2-2.9,3.2-5
		C193.7,25.6,193.1,22.8,190.5,22.8"/>
	<rect x="69.4" y="15.2" class="st1" width="3.8" height="3.2"/>
	<rect x="69.4" y="20.7" class="st1" width="3.8" height="14.1"/>
</g>
</svg>
