<?xml version="1.0" encoding="utf-8"?>
<!-- Generated by IcoMoon.io -->
<!DOCTYPE svg PUBLIC "-//W3C//DTD SVG 1.1//EN" "http://www.w3.org/Graphics/SVG/1.1/DTD/svg11.dtd">
<svg version="1.1" xmlns="http://www.w3.org/2000/svg" xmlns:xlink="http://www.w3.org/1999/xlink" width="33" height="32" viewBox="0 0 33 32">
<g id="icomoon-ignore">
</g>
<path d="M28.881 0h-25.159c-2.047 0-3.722 1.674-3.722 3.722v25.157c0 2.048 1.674 3.722 3.722 3.722h25.159c2.047 0 3.723-1.674 3.723-3.722v-25.157c-0.001-2.047-1.676-3.722-3.724-3.722zM5.814 8.758h20.571c0.263 0 0.315 0.141 0.113 0.312l-9.953 8.469c-0.202 0.173-0.532 0.173-0.736 0.004l-10.108-8.475c-0.204-0.171-0.153-0.31 0.112-0.31zM4.638 23.099l0.001-12.56c0-0.264 0.165-0.341 0.368-0.172l6.402 5.369c0.203 0.169 0.22 0.466 0.037 0.658l-6.478 6.836c-0.182 0.191-0.33 0.132-0.33-0.132zM26.25 24.627h-20.137c-0.265 0-0.333-0.157-0.15-0.35l6.591-6.956c0.182-0.191 0.496-0.209 0.699-0.039l2.097 1.759c0.202 0.168 0.503 0.385 0.667 0.478 0 0 0 0 0.165 0 0.166 0 0.166 0 0.166 0 0.165-0.096 0.466-0.314 0.668-0.485l2.078-1.769c0.202-0.171 0.516-0.155 0.697 0.037l6.611 6.975c0.182 0.193 0.114 0.35-0.151 0.35zM27.726 23.099c0 0.264-0.148 0.323-0.33 0.132l-6.504-6.864c-0.182-0.192-0.165-0.49 0.036-0.661l6.432-5.474c0.201-0.172 0.366-0.096 0.366 0.168v12.698z" fill="#000000"></path>
</svg>
