<?xml version="1.0" encoding="utf-8"?>
<!-- Generated by IcoMoon.io -->
<!DOCTYPE svg PUBLIC "-//W3C//DTD SVG 1.1//EN" "http://www.w3.org/Graphics/SVG/1.1/DTD/svg11.dtd">
<svg version="1.1" xmlns="http://www.w3.org/2000/svg" xmlns:xlink="http://www.w3.org/1999/xlink" width="34" height="32" viewBox="0 0 34 32">
<g id="icomoon-ignore">
</g>
<path d="M0 26.286v-20.571q0-0.464 0.339-0.804t0.804-0.339h32q0.464 0 0.804 0.339t0.339 0.804v20.571q0 0.464-0.339 0.804t-0.804 0.339h-32q-0.464 0-0.804-0.339t-0.339-0.804zM2.286 20.571q1.893 0 3.232 1.339t1.339 3.232h20.571q0-1.893 1.339-3.232t3.232-1.339v-9.143q-1.893 0-3.232-1.339t-1.339-3.232h-20.571q0 1.893-1.339 3.232t-3.232 1.339v9.143zM11.429 16q0-1.25 0.375-2.536t1.063-2.393 1.813-1.804 2.464-0.696 2.464 0.696 1.813 1.804 1.063 2.393 0.375 2.536-0.375 2.536-1.063 2.393-1.813 1.804-2.464 0.696-2.464-0.696-1.813-1.804-1.063-2.393-0.375-2.536zM13.607 13.304l1.375 1.429q0.75-0.661 0.982-1.018h0.036v5.143h-2.286v1.714h6.857v-1.714h-2.286v-8h-2.036z" fill="#000000"></path>
</svg>
