<?xml version="1.0" encoding="utf-8"?>
<!-- Generated by IcoMoon.io -->
<!DOCTYPE svg PUBLIC "-//W3C//DTD SVG 1.1//EN" "http://www.w3.org/Graphics/SVG/1.1/DTD/svg11.dtd">
<svg version="1.1" xmlns="http://www.w3.org/2000/svg" xmlns:xlink="http://www.w3.org/1999/xlink" width="32" height="32" viewBox="0 0 32 32">
<g id="icomoon-ignore">
</g>
<path d="M28 12v-9.938h-28v27.938c0 1.106 0.894 2 2 2h27c1.656 0 3-1.344 3-3v-17h-4zM26 30h-24v-25.938h24v25.938zM4 14h20v2h-20v-2zM16 18h8v2h-8v-2zM16 22h8v2h-8v-2zM16 26h6v2h-6v-2zM4 18h10v10h-10v-10z" fill="#000000"></path>
<path d="M3.994 6.644h1.087l1.969 3.462v-3.463h0.969v4.969h-1.037l-2.025-3.525v3.525h-0.962v-4.969z" fill="#000000"></path>
<path d="M12.669 7.525h-2.631v1.056h2.412v0.863h-2.412v1.275h2.75v0.894h-3.763v-4.969h3.644v0.881z" fill="#000000"></path>
<path d="M14.269 6.644l0.656 2.844 0.144 0.794 0.144-0.775 0.563-2.862h1.094l0.587 2.844 0.15 0.794 0.156-0.762 0.663-2.875h1.056l-1.4 4.969h-0.994l-0.6-2.906-0.175-0.963-0.175 0.963-0.6 2.906h-0.963l-1.406-4.969h1.1z" fill="#000000"></path>
<path d="M20.856 10.081c0.031 0.225 0.094 0.394 0.188 0.506 0.169 0.206 0.469 0.306 0.881 0.306 0.25 0 0.45-0.025 0.606-0.081 0.294-0.106 0.444-0.294 0.444-0.575 0-0.162-0.075-0.294-0.219-0.381s-0.375-0.162-0.688-0.231l-0.538-0.119c-0.531-0.119-0.894-0.244-1.087-0.381-0.337-0.231-0.5-0.588-0.5-1.075 0-0.444 0.163-0.813 0.494-1.106 0.325-0.294 0.806-0.444 1.444-0.444 0.531 0 0.981 0.138 1.356 0.419 0.375 0.275 0.569 0.681 0.587 1.206h-1c-0.019-0.3-0.15-0.513-0.4-0.638-0.169-0.081-0.375-0.125-0.619-0.125-0.275 0-0.494 0.056-0.656 0.162s-0.244 0.256-0.244 0.45c0 0.175 0.081 0.313 0.244 0.4 0.106 0.056 0.325 0.125 0.663 0.206l0.869 0.206c0.381 0.088 0.669 0.213 0.856 0.363 0.294 0.231 0.444 0.569 0.444 1.012 0 0.456-0.175 0.831-0.525 1.131s-0.844 0.45-1.488 0.45c-0.656 0-1.169-0.15-1.544-0.444s-0.563-0.7-0.563-1.219h0.994z" fill="#000000"></path>
</svg>
