<?xml version="1.0" encoding="utf-8"?>
<!-- Generated by IcoMoon.io -->
<!DOCTYPE svg PUBLIC "-//W3C//DTD SVG 1.1//EN" "http://www.w3.org/Graphics/SVG/1.1/DTD/svg11.dtd">
<svg version="1.1" xmlns="http://www.w3.org/2000/svg" xmlns:xlink="http://www.w3.org/1999/xlink" width="32" height="32" viewBox="0 0 32 32">
<g id="icomoon-ignore">
</g>
<path d="M28.625 0c-0.006 0-0.019 0-0.025 0h-25.044c-1.981 0-3.556 1.769-3.556 3.587v24.819c0 1.95 1.762 3.6 3.362 3.6l25.288-0.006c1.319 0 3.281-1.4 3.35-3.381v-25.244c0-1.887-1.994-3.375-3.375-3.375zM3.556 2.694h23.625l-7.256 7.256c-0.544-1.019-1.194-1.331-1.194-1.331-0.169 2.463-0.669 2.95-0.669 2.95-0.538-3.888-5.769-7.781-5.769-7.781 2.95 9.256-2.206 14.35-2.206 14.35-0.512-2.213 0.056-5.631 0.056-5.631-2.719 4.013-3.037 7.175-2.35 9.569l-5.094 5.094v-23.587c0-0.375 0.419-0.888 0.856-0.888zM20.631 12.988l1.188-1.188c-0.012 4.531-1.481 4.4-1.481 4.4 0.244-1.256 0.325-2.319 0.294-3.213zM28.581 29.3l-24.288 0.006 4.725-4.719c1.713 2.413 4.244 3.519 4.244 3.519-2.438-3.181-1.706-5.669-1.444-6.313l0.094-0.094c0.412 1.15 1.181 1.406 1.181 1.406-0.244-0.962-0.306-1.719-0.294-2.294l0.563-0.563c0.244 0.425 0.537 0.444 0.537 0.444 0.050-0.406 0.1-0.788 0.162-1.137l1.75-1.75c0.406 4.494 3.319 5.706 3.319 5.706 0.4-0.806-0.538-3.219-0.538-3.219 4.156 3.087 1.194 7.369 1.194 7.369 7.894-6.044 3.45-14.244 2.281-16.106l7.231-7.225v24.212c-0.031 0.319-0.481 0.681-0.719 0.756z" fill="#000000"></path>
</svg>
