<?xml version="1.0" encoding="utf-8"?>
<!-- Generated by IcoMoon.io -->
<!DOCTYPE svg PUBLIC "-//W3C//DTD SVG 1.1//EN" "http://www.w3.org/Graphics/SVG/1.1/DTD/svg11.dtd">
<svg version="1.1" xmlns="http://www.w3.org/2000/svg" xmlns:xlink="http://www.w3.org/1999/xlink" width="33" height="32" viewBox="0 0 33 32">
<g id="icomoon-ignore">
</g>
<path d="M31.876 27.267l-7.914-7.912c1.073-1.849 1.697-3.991 1.71-6.28 0.047-7.010-5.6-12.728-12.61-12.772-0.027 0-0.055 0-0.083 0-6.971 0-12.644 5.63-12.689 12.608-0.045 7.012 5.602 12.73 12.61 12.773 0.028 0 0.055 0 0.083 0 2.331 0 4.514-0.631 6.392-1.728l7.907 7.907c0.583 0.584 1.529 0.581 2.111 0l2.483-2.481c0.583-0.582 0.583-1.529 0.001-2.114zM12.922 22.447c-5.213-0.032-9.427-4.3-9.394-9.514 0.033-5.181 4.274-9.393 9.451-9.393h0.063c2.526 0.017 4.892 1.013 6.667 2.811 1.774 1.796 2.743 4.179 2.727 6.704-0.016 2.516-1.008 4.875-2.791 6.646-1.784 1.774-4.149 2.748-6.662 2.748h-0.062z" fill="#000000"></path>
</svg>
