<?xml version="1.0" encoding="utf-8"?>
<!-- Generated by IcoMoon.io -->
<!DOCTYPE svg PUBLIC "-//W3C//DTD SVG 1.1//EN" "http://www.w3.org/Graphics/SVG/1.1/DTD/svg11.dtd">
<svg version="1.1" xmlns="http://www.w3.org/2000/svg" xmlns:xlink="http://www.w3.org/1999/xlink" width="89" height="32" viewBox="0 0 89 32">
<g id="icomoon-ignore">
</g>
<path d="M3.506 14.969c0.038-0.056 0.056-0.113 0.063-0.156 0.013-0.088-0.025-0.2-0.112-0.306-0.212-0.262-0.637-0.456-0.931-0.431-0.469 0.044-0.906 0.45-0.981 0.906-0.069 0.456 0.25 0.806 0.725 0.769 0.394-0.031 1.031-0.45 1.238-0.781z" fill="#000000"></path>
<path d="M8.206 14.338c0.031-0.269-0.281-0.519-0.975-0.769-2.088-0.75-3.313-2.612-3.719-5.456 0 0 0-0.012 0-0.025-0.013-0.006-0.019-0.012-0.019-0.012-0.1-0.088-0.225-0.181-0.35-0.069-0.275 0.231-0.1 1.219 0.556 4 0 0 0.256 1.094 0.256 1.094 0.137 0.625 0.169 1.119 0.1 1.606s-0.25 1.012-0.581 1.694l-0.606 1.225c-1.613 3.262-2.15 4.469-1.931 4.688 0.106 0.106 0.275-0.031 0.413-0.156 0 0 0.012-0.012 0.025-0.019 0.006-0.012 0.012-0.031 0.012-0.031 0.431-1.056 0.912-1.994 1.431-2.825 1.156-1.837 2.544-3.163 4.188-3.969 0.612-0.3 0.981-0.556 1.125-0.787 0.050-0.069 0.069-0.131 0.075-0.188z" fill="#000000"></path>
<path d="M22.575 8.669c0 0 0.019 0 0.038 0 0.019-0.006 0.038-0.019 0.038-0.019 0.163-0.069 0.337-0.162 0.413-0.281 0.025-0.044 0.038-0.088 0.038-0.131-0.031-0.4-1.488-0.45-5.375-0.381 0 0-1.394 0.019-1.394 0.019-0.756 0.006-1.281-0.075-1.713-0.263-0.425-0.188-0.787-0.487-1.188-0.981 0 0-0.694-0.869-0.694-0.869-1.738-2.2-2.381-2.913-2.706-2.712-0.037 0.025-0.069 0.056-0.088 0.087-0.063 0.1-0.063 0.237-0.056 0.35 0 0 0 0.013 0 0.031 0.006 0.006 0.019 0.019 0.019 0.019 1.906 1.931 2.606 4.3 1.975 6.969-0.206 0.869-0.2 1.325 0.019 1.438s0.662-0.119 1.4-0.738c2.35-1.956 5.406-2.825 9.275-2.537z" fill="#000000"></path>
<path d="M16.319 4.794c-0.419-0.162-1.019 0.138-1.356 0.669-0.319 0.506-0.369 1.481-0.075 1.606s1.256-0.481 1.581-1c0.337-0.537 0.269-1.112-0.15-1.275z" fill="#000000"></path>
<path d="M10.969 23.144c0 0 0.969-1.2 0.969-1.2 0.544-0.669 1.006-1.1 1.512-1.4s1.094-0.494 1.912-0.637l1.506-0.25c4.175-0.669 5.744-1 5.806-1.462 0.031-0.212-0.219-0.313-0.438-0.375 0 0-0.019-0.006-0.038-0.012-0.019 0.006-0.044 0.006-0.044 0.006-4.156 1.063-7.287 0.656-9.4-1.075-0.65-0.531-1.063-0.694-1.319-0.538-0.050 0.038-0.1 0.081-0.137 0.144-0.15 0.238-0.213 0.7-0.188 1.419 0.063 1.994-0.55 4.044-1.825 6.075-0.575 0.919-1.281 1.825-2.112 2.712 0 0-0.013 0.012-0.025 0.025-0.006 0.019-0.013 0.038-0.013 0.038-0.063 0.212-0.112 0.462 0.037 0.556 0.313 0.212 1.262-0.863 3.794-4.025z" fill="#000000"></path>
<path d="M13.544 22.988c0.144 0.313 0.394 0.55 0.694 0.637 0.238 0.069 0.488 0.044 0.706-0.081 0.213-0.125 0.381-0.337 0.469-0.594 0.106-0.325 0.081-0.694-0.069-1.006-0.269-0.563-1.213-1.094-1.563-0.887-0.044 0.031-0.094 0.075-0.137 0.144-0.037 0.063-0.075 0.144-0.106 0.244-0.162 0.469-0.162 1.175 0.006 1.544z" fill="#000000"></path>
<path d="M31.531 12.525c0.038-0.031 0.056-0.069 0.056-0.106s-0.019-0.075-0.063-0.1c-0.275-0.175-6.375-3.875-11.506-2.537-0.044 0.012-0.081 0.037-0.1 0.069-0.012 0.019-0.019 0.037-0.019 0.056-0.006 0.056 0.038 0.1 0.1 0.106 3.394 0.244 6.7 2.063 7.675 2.644l0.163 0.094-0.163 0.125c-0.988 0.75-4.425 3.206-7.969 4.1-0.069 0.019-0.113 0.075-0.119 0.137 0 0.063 0.044 0.113 0.113 0.119 5.275 0.462 11.563-4.488 11.831-4.706z" fill="#000000"></path>
<path d="M10.063 5.438c0.044-0.031 0.069-0.088 0.050-0.131-1-3.237-5.281-3.975-5.45-4-0.019-0.006-0.050 0.006-0.069 0.025-0.025 0.019-0.044 0.044-0.050 0.069-0.063 0.206-1.55 5.2 0.181 7.794 0.025 0.031 0.075 0.037 0.112 0.012 0.044-0.031 0.069-0.081 0.056-0.131-0.419-2.344 0.244-5.156 0.45-5.95l0.031-0.131 0.106 0.025c0.65 0.156 2.962 0.8 4.444 2.425 0.044 0.025 0.094 0.025 0.137-0.006z" fill="#000000"></path>
<path d="M7.881 24.087c0.025-0.063 0.013-0.125-0.025-0.156v0c-0.044-0.031-0.1-0.019-0.144 0.025-2.175 2.425-5.125 3.794-5.956 4.15l-0.131 0.056 0.006-0.169c0.044-1.006 0.269-4.419 1.481-7.287 0.025-0.056 0.013-0.113-0.025-0.137s-0.087-0.006-0.125 0.038c-2.75 3.45-2.919 9.694-2.925 9.969 0 0.038 0.012 0.069 0.031 0.087s0.050 0.025 0.081 0.012c0.212-0.075 5.656-2.087 7.731-6.587z" fill="#000000"></path>
<path d="M44.556 20.4h1.706v1.6h0.038c0.525-1.137 1.806-1.831 3.138-1.831 2.475 0 3.581 1.619 3.581 4.319v5.975h-1.769v-5.212c0-2.344-0.487-3.488-2.025-3.581-2.006 0-2.906 1.694-2.906 4.137v4.656h-1.763v-10.063z" fill="#000000"></path>
<path d="M61.175 21.119c0.875-0.556 1.931-0.944 3.15-0.944 2.731 0 3.838 1.419 3.838 4.156v4.169c0 1.15 0.044 1.675 0.081 1.975h-1.65v-1.306h-0.031c-0.419 0.613-1.35 1.538-2.969 1.538-2.063 0-3.5-0.944-3.5-3.137 0-2.525 2.625-3.313 4.444-3.313 0.694 0 1.175 0 1.869 0.044 0-1.738-0.6-2.625-2.356-2.625-1 0-2.063 0.394-2.775 1.025l-0.1-1.581zM66.4 25.669c-0.375 0-0.744-0.038-1.125-0.038-0.95 0-3.319 0.156-3.319 1.931 0 1.069 0.975 1.644 1.781 1.644 1.744 0 2.663-1.144 2.663-2.65v-0.887z" fill="#000000"></path>
<path d="M75.094 22.025c-0.25-0.063-0.506-0.075-0.725-0.075-1.662 0-2.744 1.581-2.744 4.106v4.413h-1.856v-9.988h1.737v1.644h0.037c0.494-1.050 1.563-1.8 2.625-1.8 0.406 0 0.662 0.031 0.925 0.081v1.619z" fill="#000000"></path>
<path d="M84.362 20.169c2.9 0 4.856 2.206 4.856 5.269 0 2.881-1.987 5.262-4.856 5.262-2.894 0-4.875-2.381-4.875-5.262 0.006-3.063 1.95-5.269 4.875-5.269zM84.362 29.206c2.056 0 2.981-1.969 2.981-3.769 0-1.913-1.106-3.769-2.981-3.769-1.894 0-3 1.85-3 3.769 0 1.8 0.919 3.769 3 3.769z" fill="#000000"></path>
<path d="M59.375 20.4h-2.581v-2.919l-1.85 0.594v2.319l-1.519 1.519h1.519v5.869c0 2.012 1.181 2.919 3.094 2.919 0.55 0 1.087-0.131 1.5-0.25v-1.556c-0.275 0.163-0.669 0.313-1.181 0.313-0.85 0-1.563-0.631-1.563-1.8v-5.506h2.581v-1.5z" fill="#000000"></path>
<path d="M76.244 20.4h1.856v10.063h-1.856v-10.063z" fill="#000000"></path>
<path d="M77.169 19.063c0.625 0 1.131-0.506 1.131-1.137s-0.506-1.131-1.131-1.131c-0.631 0-1.138 0.506-1.138 1.131 0 0.631 0.506 1.137 1.138 1.137z" fill="#000000"></path>
<path d="M36.856 16.462c3.981 0 6.306 3.038 6.306 7.113 0 4.181-2.313 7.125-6.306 7.125-3.987 0-6.294-2.938-6.294-7.125 0-4.075 2.325-7.113 6.294-7.113zM36.856 28.969c3.019 0 4.319-2.644 4.319-5.387 0-2.8-1.425-5.4-4.319-5.381-2.881-0.019-4.306 2.587-4.306 5.381 0.006 2.738 1.3 5.387 4.306 5.387z" fill="#000000"></path>
</svg>
