<?xml version="1.0" encoding="utf-8"?>
<!-- Generated by IcoMoon.io -->
<!DOCTYPE svg PUBLIC "-//W3C//DTD SVG 1.1//EN" "http://www.w3.org/Graphics/SVG/1.1/DTD/svg11.dtd">
<svg version="1.1" xmlns="http://www.w3.org/2000/svg" xmlns:xlink="http://www.w3.org/1999/xlink" width="32" height="32" viewBox="0 0 32 32">
<g id="icomoon-ignore">
</g>
<path d="M28.35-0.013h-24.7c-2.013 0-3.656 1.644-3.656 3.656v24.712c0 2.012 1.644 3.656 3.656 3.656h24.706c2.012 0 3.656-1.644 3.656-3.656v-24.712c-0.006-2.013-1.65-3.656-3.663-3.656zM27.3 21.869c-0.394 0.331-0.719 0.681-1.188 1.256-0.244 0.3-0.469 0.55-0.506 0.55-0.106 0.006-0.356 0.244-0.325 0.306 0.075 0.119-0.431 0.313-0.85 0.325-0.75 0.025-1.837 0.469-2.069 0.85s-0.225 0.469 0.012 0.569c0.119 0.050 0.269 0.075 0.337 0.056 0.094-0.025 0.15 0.019 0.225 0.188 0.125 0.256 0.081 0.294-0.344 0.294-0.256 0-0.944 0.262-1.119 0.425-0.081 0.075-0.075 0.1 0.063 0.206l0.156 0.119-0.175 0.044c-0.094 0.025-0.3 0.012-0.45-0.025-0.6-0.15-0.738-0.087-1.481 0.694-0.406 0.425-0.506 0.494-0.694 0.5-0.119 0-0.313 0.012-0.425 0.025l-0.206 0.019 0.094-0.175c0.069-0.131 0.156-0.188 0.331-0.212 0.131-0.019 0.275-0.063 0.319-0.094 0.119-0.075 0.175-0.512 0.081-0.575-0.056-0.031-0.063-0.081-0.019-0.169 0.031-0.063 0.081-0.225 0.106-0.35 0.025-0.131 0.094-0.269 0.156-0.313 0.225-0.163 0.425-0.525 0.406-0.75-0.012-0.119-0.025-0.444-0.031-0.725-0.006-0.481 0.006-0.538 0.219-0.919l0.225-0.406-0.113-0.25c-0.063-0.137-0.175-0.306-0.25-0.369-0.131-0.119-0.181-0.288-0.087-0.288 0.025 0 0.212 0.169 0.419 0.375 0.337 0.344 0.675 0.563 1.019 0.656s0.538-0.481 0.281-0.856c-0.169-0.244-0.856-0.988-1.031-1.119-0.063-0.050-0.306-0.113-0.538-0.137s-0.569-0.094-0.762-0.15c-0.244-0.069-0.613-0.1-1.275-0.1-0.869 0-0.931-0.006-1.019-0.131-0.050-0.069-0.238-0.206-0.425-0.3-0.269-0.137-0.331-0.206-0.337-0.344-0.006-0.094-0.088-0.256-0.188-0.356-0.156-0.163-0.169-0.194-0.075-0.231 0.137-0.056 0.131-0.188-0.025-0.406-0.069-0.1-0.181-0.306-0.25-0.456-0.106-0.244-0.156-0.281-0.363-0.319-0.244-0.038-0.912-0.356-1.075-0.512-0.050-0.044-0.094-0.194-0.1-0.325s-0.037-0.325-0.063-0.425l-0.050-0.181-0.506 0.031c-0.475 0.031-0.537 0.019-0.875-0.15l-0.363-0.188-0.262 0.163c-0.238 0.15-0.25 0.175-0.162 0.262s0.063 0.125-0.325 0.375c-0.231 0.15-0.525 0.387-0.65 0.519-0.256 0.275-0.287 0.275-1.188 0.125-0.262-0.044-0.675-0.081-0.919-0.094-0.425-0.012-0.844-0.163-0.844-0.3 0-0.025-0.075-0.050-0.162-0.050-0.1 0-0.25-0.087-0.394-0.219-0.231-0.219-0.237-0.219-0.813-0.219-0.419 0-0.606-0.025-0.669-0.087-0.050-0.050-0.2-0.113-0.338-0.131-0.35-0.063-0.381-0.106-0.431-0.55-0.037-0.363-0.063-0.4-0.244-0.494-0.194-0.1-0.2-0.119-0.194-0.475 0.006-0.406 0.081-2.094 0.119-2.706 0.013-0.206 0.044-0.831 0.063-1.381 0.050-1.256-0.056-1.063 1.444-2.625 0.319-0.331 0.763-0.806 0.981-1.063 0.225-0.256 0.438-0.5 0.475-0.537s0.406-0.469 0.819-0.95c0.412-0.487 0.894-1.038 1.069-1.231 0.85-0.938 1.231-1.369 1.344-1.513l0.125-0.156 0.213 0.119c0.256 0.144 0.681 0.544 0.681 0.637 0 0.037 0.094 0.162 0.206 0.269 0.156 0.15 0.306 0.219 0.581 0.275 0.262 0.050 0.438 0.125 0.569 0.25 0.181 0.169 0.338 0.231 0.631 0.237 0.069 0 0.281 0.144 0.475 0.313l0.344 0.306 1.181 0.037c1.031 0.037 1.212 0.056 1.444 0.175l0.262 0.131-0.044 0.544c-0.025 0.3-0.069 0.569-0.1 0.6s0 0.144 0.063 0.25c0.063 0.106 0.137 0.325 0.156 0.481 0.069 0.506 0.081 0.556 0.137 0.675 0.031 0.063 0.050 0.244 0.038 0.406-0.019 0.231 0.019 0.35 0.169 0.588 0.244 0.381 1 1.3 1.075 1.3 0.144 0 0.544 0.519 0.663 0.85l0.119 0.356 0.775-0.063 0.038 0.325c0.063 0.512 0.087 0.738 0.125 1.113 0.019 0.194 0.044 0.419 0.063 0.506 0.012 0.088 0.044 0.325 0.063 0.537 0.019 0.206 0.050 0.45 0.063 0.537 0.031 0.206 0.087 0.713 0.131 1.106 0.019 0.175 0.044 0.413 0.063 0.538 0.094 0.756 0.156 1.275 0.188 1.6 0.019 0.206 0.125 0.563 0.231 0.794 0.163 0.356 0.244 0.462 0.556 0.681 0.406 0.288 0.975 0.488 1.55 0.55 0.262 0.025 0.469 0.1 0.669 0.225 0.163 0.1 0.344 0.188 0.413 0.188s0.194 0.113 0.294 0.244l0.175 0.244 0.544-0.031c0.469-0.025 0.6-0.056 0.944-0.25 0.4-0.219 0.719-0.319 0.725-0.231 0.006 0.094 0.044 0.256 0.087 0.387 0.031 0.125-0.012 0.2-0.2 0.356z" fill="#000000"></path>
</svg>
