<?xml version="1.0" encoding="utf-8"?>
<!-- Generated by IcoMoon.io -->
<!DOCTYPE svg PUBLIC "-//W3C//DTD SVG 1.1//EN" "http://www.w3.org/Graphics/SVG/1.1/DTD/svg11.dtd">
<svg version="1.1" xmlns="http://www.w3.org/2000/svg" xmlns:xlink="http://www.w3.org/1999/xlink" width="32" height="32" viewBox="0 0 32 32">
<g id="icomoon-ignore">
</g>
<path d="M16 5.807c-5.63 0-10.193 4.563-10.193 10.193s4.563 10.193 10.193 10.193 10.193-4.563 10.193-10.193c0-5.63-4.563-10.193-10.193-10.193zM12.741 21.037h-3.081v-4.444h3.081v4.444zM17.126 21.037h-3.378v-7.23h3.378v7.23zM21.57 21.037h-3.319v-10.133h3.319v10.133z" fill="#000000"></path>
<path d="M26.844 0h-21.689c-5.156 0-5.156 5.096-5.156 5.156v21.63c0 0.059 0 5.156 5.156 5.156h21.689c5.156 0 5.156-5.096 5.156-5.156v-21.63c0 0 0-5.156-5.156-5.156zM16 29.333c-7.348 0-13.333-5.985-13.333-13.333s5.985-13.333 13.333-13.333 13.333 5.985 13.333 13.333c0 7.348-5.985 13.333-13.333 13.333z" fill="#000000"></path>
</svg>
