<?xml version="1.0" encoding="utf-8"?>
<!-- Generated by IcoMoon.io -->
<!DOCTYPE svg PUBLIC "-//W3C//DTD SVG 1.1//EN" "http://www.w3.org/Graphics/SVG/1.1/DTD/svg11.dtd">
<svg version="1.1" xmlns="http://www.w3.org/2000/svg" xmlns:xlink="http://www.w3.org/1999/xlink" width="33" height="32" viewBox="0 0 33 32">
<g id="icomoon-ignore">
</g>
<path d="M0.69 25.941v-19.882q0-2.465 1.75-4.215t4.215-1.75h19.882q2.465 0 4.215 1.75t1.75 4.215v19.882q0 2.465-1.75 4.215t-4.215 1.75h-19.882q-2.465 0-4.215-1.75t-1.75-4.215zM5.992 10.512q0 0.331 0.052 0.704t0.104 0.632 0.186 0.683 0.207 0.611 0.259 0.683 0.228 0.621q1.243 3.396 4.484 6.638t6.638 4.484q0.124 0.041 0.621 0.228t0.683 0.259 0.611 0.207 0.683 0.186 0.632 0.104 0.704 0.052q1.18 0 2.703-0.704t1.957-1.657q0.456-1.098 0.456-2.092 0-0.228-0.041-0.331-0.062-0.166-0.797-0.611t-1.833-1.025l-1.098-0.601q-0.104-0.062-0.393-0.269t-0.518-0.311-0.435-0.104q-0.373 0-0.973 0.673t-1.18 1.357-0.911 0.683q-0.145 0-0.342-0.073t-0.321-0.135-0.352-0.197-0.29-0.176q-2.050-1.139-3.531-2.62t-2.62-3.531q-0.041-0.062-0.176-0.29t-0.197-0.352-0.135-0.321-0.072-0.342q0-0.269 0.425-0.694t0.932-0.797 0.932-0.818 0.425-0.756q0-0.207-0.104-0.435t-0.311-0.518-0.269-0.393q-0.062-0.124-0.311-0.59t-0.518-0.942-0.549-0.984-0.518-0.839-0.342-0.373-0.331-0.041q-0.994 0-2.092 0.456-0.953 0.435-1.657 1.957t-0.704 2.703z" fill="#000000"></path>
</svg>
