<?xml version="1.0" encoding="utf-8"?>
<!-- Generator: Adobe Illustrator 15.1.0, SVG Export Plug-In  -->
<!DOCTYPE svg PUBLIC "-//W3C//DTD SVG 1.1//EN" "http://www.w3.org/Graphics/SVG/1.1/DTD/svg11.dtd" [
	<!ENTITY ns_flows "http://ns.adobe.com/Flows/1.0/">
]>
<svg version="1.1"
	 xmlns="http://www.w3.org/2000/svg" xmlns:xlink="http://www.w3.org/1999/xlink" xmlns:a="http://ns.adobe.com/AdobeSVGViewerExtensions/3.0/"
	 x="0px" y="0px" width="64px" height="64px" viewBox="-0.007 0 64 64" enable-background="new -0.007 0 64 64"
	 xml:space="preserve">
<defs>
</defs>
<path display="none" d="M23.175,31.884c0-1.466,0.063-2.944,0.183-4.402c-4.295-0.764-7.455-2.19-9.382-4.232
	c-1.274,2.614-2.01,5.537-2.01,8.635c0,3.105,0.739,6.035,2.018,8.653c1.969-2.065,5.171-3.566,9.363-4.394
	C23.234,34.731,23.175,33.301,23.175,31.884z"/>
<path display="none" d="M31.771,25.39c1.944,0,3.748-0.098,5.407-0.281c-0.992-7.413-3.492-11.766-5.407-11.766
	s-4.416,4.356-5.408,11.774C28.021,25.294,29.826,25.39,31.771,25.39z"/>
<path display="none" d="M23.66,24.728c0.712-5.165,2.197-9.782,4.401-12.248c-3.776,0.798-7.271,2.713-9.834,4.993
	c-0.033,0.032-0.068,0.062-0.103,0.094c-0.151,0.137-0.295,0.277-0.438,0.416c-0.829,0.84-1.584,1.753-2.254,2.729
	C16.764,22.605,19.616,23.977,23.66,24.728z"/>
<path display="none" d="M26.072,27.859c-0.095,1.272-0.146,2.614-0.146,4.025c0,1.343,0.05,2.62,0.137,3.838
	c1.772-0.213,3.676-0.328,5.708-0.328c1.822,0,3.772,0.074,5.712,0.271c0.084-1.201,0.134-2.458,0.134-3.782
	c0-1.413-0.053-2.757-0.147-4.031c-1.753,0.188-3.648,0.287-5.698,0.287C29.722,28.14,27.825,28.043,26.072,27.859z"/>
<path display="none" d="M48.057,20.643c-0.166-0.24-0.347-0.467-0.523-0.699c-2.315-2.849-6.68-6.288-12.043-7.451
	c2.196,2.466,3.678,7.068,4.389,12.218C43.885,23.947,46.719,22.557,48.057,20.643z"/>
<path display="none" d="M31.771,38.146c-1.942,0-3.758,0.107-5.435,0.307c0.974,7.539,3.503,11.973,5.435,11.973
	c1.937,0,4.472-4.448,5.44-12.016C35.54,38.238,33.727,38.146,31.771,38.146z"/>
<path display="none" d="M56.682,0H7.306C3.287,0,0,3.288,0,7.306v49.387C0,60.713,3.287,64,7.306,64h49.376
	c4.018,0,7.305-3.287,7.305-7.307V7.306C63.986,3.288,60.699,0,56.682,0z M51.51,42.777l-0.404,0.721
	c-0.104,0.162-0.216,0.313-0.321,0.47c-1.502,2.356-3.429,4.409-5.674,6.063c-0.026,0.02-0.053,0.039-0.079,0.058
	c-0.327,0.24-0.655,0.479-0.997,0.7c-0.488,0.325-0.986,0.628-1.495,0.909c-0.025,0.014-0.053,0.027-0.078,0.041
	c-2.535,1.395-5.317,2.261-8.274,2.568c-0.09,0.009-0.179,0.016-0.268,0.025c-0.708,0.063-1.422,0.107-2.148,0.107
	c-7.046,0-12.998-2.82-17.375-8.189c-0.049-0.061-0.094-0.125-0.143-0.186c-0.336-0.42-0.661-0.855-0.976-1.305
	c-0.115-0.164-0.23-0.33-0.341-0.497c-0.095-0.142-0.193-0.274-0.286-0.417l-0.431-0.668l0.025-0.052
	c-1.916-3.313-3.03-7.146-3.03-11.242c0-4.103,1.119-7.941,3.041-11.259l-0.004-0.008l0.355-0.63
	c0.702-1.248,1.696-2.504,2.905-3.696c3.722-3.879,8.808-6.427,14.483-6.873c0.588-0.054,1.181-0.089,1.774-0.089
	c0.581,0,1.157,0.034,1.732,0.087c6.584,0.504,12.372,3.841,16.168,8.799c0.273,0.34,0.528,0.681,0.765,1.023
	c0.021,0.03,0.042,0.059,0.062,0.089c0.12,0.176,0.247,0.352,0.356,0.527l0.404,0.648l-0.021,0.042
	c1.951,3.337,3.089,7.204,3.089,11.34C54.326,35.834,53.299,39.545,51.51,42.777z"/>
<path display="none" d="M40.182,27.468c0.121,1.463,0.185,2.946,0.185,4.416c0,1.381-0.055,2.774-0.162,4.15
	c3.809,0.649,7.338,1.89,9.534,4.128c1.168-2.523,1.838-5.321,1.838-8.278c0-3.129-0.75-6.08-2.047-8.712
	C47.602,25.243,44.454,26.69,40.182,27.468z"/>
<path display="none" d="M15.436,43.061c0.309,0.448,0.634,0.883,0.977,1.305c0.053,0.067,0.106,0.129,0.159,0.193
	c2.889,3.459,6.935,5.912,11.536,6.775c-2.253-2.477-3.763-7.19-4.47-12.453C19.689,39.686,16.818,41.124,15.436,43.061z"/>
<path display="none" d="M39.918,38.785c-0.702,5.301-2.219,10.057-4.483,12.549c3.695-0.638,6.621-2.555,6.759-2.641
	c2.325-1.479,4.395-3.483,6.124-5.975C46.95,40.86,44.036,39.517,39.918,38.785z"/>
<path display="none" d="M56.58,0.131H7.406c-4.003,0-7.275,3.274-7.275,7.276v49.185c0,4.001,3.272,7.275,7.275,7.275H56.58
	c4,0,7.275-3.274,7.275-7.275V7.408C63.855,3.406,60.58,0.131,56.58,0.131z M52.711,36.073c-0.847,2.232-2.038,3.971-3.573,5.213
	c-1.536,1.244-3.312,1.865-5.327,1.865c-1.488,0-2.779-0.396-3.872-1.186c-1.092-0.792-1.827-1.866-2.202-3.223h-0.34
	c-0.925,1.47-2.063,2.572-3.42,3.306c-1.354,0.735-2.882,1.103-4.577,1.103c-3.072,0-5.488-0.989-7.247-2.968
	c-1.765-1.978-2.645-4.651-2.645-8.024c0-3.881,1.169-7.033,3.506-9.453c2.334-2.42,5.471-3.63,9.408-3.63
	c1.433,0,3.02,0.127,4.762,0.382c1.743,0.253,3.293,0.607,4.648,1.059l-0.621,13.141v0.679c0,3.013,0.979,4.52,2.938,4.52
	c1.489,0,2.672-0.96,3.548-2.881s1.313-4.371,1.313-7.347c0-3.223-0.658-6.053-1.977-8.493c-1.32-2.439-3.194-4.318-5.625-5.638
	c-2.429-1.318-5.218-1.978-8.363-1.978c-4.015,0-7.502,0.83-10.47,2.486c-2.967,1.659-5.232,4.027-6.796,7.107
	c-1.565,3.081-2.346,6.655-2.346,10.725c0,5.463,1.458,9.664,4.38,12.604c2.92,2.938,7.111,4.407,12.575,4.407
	c4.162,0,8.505-0.848,13.027-2.542v4.634c-3.958,1.619-8.262,2.431-12.916,2.431c-6.97,0-12.404-1.881-16.303-5.639
	c-3.903-3.758-5.852-9-5.852-15.726c0-4.917,1.055-9.292,3.166-13.125c2.11-3.834,5.033-6.769,8.774-8.803
	c3.738-2.035,7.974-3.052,12.702-3.052c4.088,0,7.728,0.848,10.922,2.543c3.193,1.695,5.67,4.111,7.432,7.248
	c1.762,3.137,2.642,6.758,2.642,10.865C53.983,31.377,53.559,33.841,52.711,36.073z"/>
<path display="none" d="M26.954,25.745c-1.348,1.601-2.02,3.777-2.02,6.527c0,4.391,1.725,6.583,5.171,6.583
	c3.636,0,5.623-2.758,5.963-8.279l0.338-6.753c-1.187-0.32-2.458-0.481-3.814-0.481C30.181,23.342,28.301,24.144,26.954,25.745z"/>
<path d="M56.676,0.173H7.311c-4.02,0-7.305,3.288-7.305,7.305v49.379c0,4.015,3.285,7.304,7.305,7.304h49.365
	c4.018,0,7.305-3.289,7.305-7.304V7.478C63.98,3.46,60.693,0.173,56.676,0.173z M35.985,43.69c-3.21,0-6.229-1.736-7.263-3.704
	c0,0-1.723,6.847-2.089,8.168c-1.285,4.671-5.072,9.344-5.365,9.727c-0.204,0.265-0.658,0.183-0.706-0.17
	c-0.082-0.596-1.046-6.488,0.09-11.295c0.568-2.412,3.82-16.195,3.82-16.195s-0.946-1.897-0.946-4.702
	c0-4.405,2.554-7.693,5.73-7.693c2.704,0,4.011,2.029,4.011,4.462c0,2.719-1.732,6.781-2.624,10.547
	c-0.749,3.152,1.58,5.724,4.69,5.724c5.628,0,9.422-7.233,9.422-15.801c0-6.514-4.386-11.389-12.367-11.389
	c-9.012,0-14.632,6.723-14.632,14.234c0,2.588,0.764,4.416,1.961,5.829c0.551,0.649,0.627,0.911,0.427,1.655
	c-0.143,0.549-0.471,1.863-0.605,2.385c-0.197,0.754-0.808,1.024-1.488,0.746c-4.15-1.696-6.087-6.244-6.087-11.355
	c0-8.442,7.119-18.566,21.239-18.566c11.351,0,18.816,8.209,18.816,17.027C52.02,34.98,45.539,43.69,35.985,43.69z"/>
</svg>
