<?xml version="1.0" encoding="utf-8"?>
<!-- Generated by IcoMoon.io -->
<!DOCTYPE svg PUBLIC "-//W3C//DTD SVG 1.1//EN" "http://www.w3.org/Graphics/SVG/1.1/DTD/svg11.dtd">
<svg version="1.1" xmlns="http://www.w3.org/2000/svg" xmlns:xlink="http://www.w3.org/1999/xlink" width="32" height="32" viewBox="0 0 32 32">
<g id="icomoon-ignore">
</g>
<path d="M22.365 17.442c0-0.1-0.081-0.18-0.18-0.18h-0.048c-0.1 0-0.18 0.081-0.18 0.18 0 1.357-0.555 2.046-1.092 2.713-0.44 0.547-0.856 1.064-0.856 1.868 0 2.287 2.107 2.313 2.129 2.313h0.048c0.021 0 2.129-0.026 2.129-2.313 0-0.804-0.415-1.32-0.856-1.868-0.537-0.666-1.092-1.355-1.092-2.713z" fill="#000000"></path>
<path d="M28.366 0h-24.686c-2.009 0-3.653 1.644-3.653 3.653v24.694c0 2.009 1.644 3.653 3.653 3.653h24.687c2.009 0 3.653-1.644 3.653-3.653v-24.694c-0-2.009-1.644-3.653-3.654-3.653zM7.429 18.977c0 0-2.856-0.174-2.856-1.637s1.393-0.766 2.577-2.473c1.184-1.706 2.647-1.881 2.647-1.881h4.248l0.336-1.822-0.67-0.207 0.088-0.428-0.151-0.265c-0.046 0.499-0.129 1.224-0.246 1.534 0 0-0.455 0.074-0.6-0.136-0.115-0.167 0.475-1.275 0.646-1.748l-0.164-0.287 0.253-0.097c0.039-0.478-0.033-1.796 0.145-1.902 0.219-0.131 0.599 0.136 0.599 0.136-0.025 0.371-0.307 1.202-0.472 1.662l0.236-0.091 0.109-0.534 0.625-0.065 0.366-1.394c0 0 0.29-1.717 1.811-1.422 1.532 0.296 1.411 0.833 1.411 0.833l0.418 6.162 4.109-0.104c0-4.040 2.357-3.966 2.386-3.556 0.064 0.888 0.155 4.044 0.155 4.044s0.766-0.139 0.766 1.079c0 0.312-0.31 0.744-0.771 1.215-0.948-0.597-2.068-0.944-3.268-0.944-2.798 0-5.163 1.879-5.905 4.442-4.708 0.185-8.827-0.115-8.827-0.115zM22.16 26.11c-2.933 0-5.311-2.378-5.311-5.312s2.378-5.311 5.311-5.311 5.312 2.378 5.312 5.311c0 2.934-2.378 5.312-5.312 5.312z" fill="#000000"></path>
</svg>
