<?xml version="1.0" encoding="utf-8"?>
<!-- Generated by IcoMoon.io -->
<!DOCTYPE svg PUBLIC "-//W3C//DTD SVG 1.1//EN" "http://www.w3.org/Graphics/SVG/1.1/DTD/svg11.dtd">
<svg version="1.1" xmlns="http://www.w3.org/2000/svg" xmlns:xlink="http://www.w3.org/1999/xlink" width="33" height="32" viewBox="0 0 33 32">
<g id="icomoon-ignore">
</g>
<path d="M25.418 18.43l-0.001-4.258c0-0.167-0.067-0.318-0.177-0.427s-0.261-0.177-0.427-0.177h-5.778v-5.779c0.001-0.167-0.067-0.318-0.177-0.427s-0.26-0.177-0.427-0.177h-4.258c-0.334 0-0.604 0.27-0.604 0.604l-0.001 5.779-5.778 0.001c-0.334 0-0.604 0.27-0.604 0.604v4.259c0 0.161 0.064 0.315 0.177 0.427 0.114 0.113 0.267 0.177 0.427 0.177l5.779-0.001-0.001 5.779c0 0.161 0.063 0.314 0.176 0.427s0.267 0.177 0.427 0.177l4.259-0.001c0.334 0 0.604-0.269 0.604-0.604l0.001-5.777 5.779-0.001c0.333 0.001 0.604-0.269 0.604-0.604z" fill="#000000"></path>
</svg>
