<?xml version="1.0" encoding="utf-8"?>
<!-- Generated by IcoMoon.io -->
<!DOCTYPE svg PUBLIC "-//W3C//DTD SVG 1.1//EN" "http://www.w3.org/Graphics/SVG/1.1/DTD/svg11.dtd">
<svg version="1.1" xmlns="http://www.w3.org/2000/svg" xmlns:xlink="http://www.w3.org/1999/xlink" width="33" height="32" viewBox="0 0 33 32">
<g id="icomoon-ignore">
</g>
<path d="M28.868 0h-25.147c-2.046 0-3.72 1.674-3.72 3.721v25.153c0 2.047 1.674 3.721 3.72 3.721h25.147c2.047 0 3.721-1.674 3.721-3.721v-25.153c0-2.047-1.674-3.721-3.721-3.721zM8.238 6.469c0-0.629 0.51-1.139 1.138-1.139h10.294l4.466 4.636v3.397c0 0.628-0.51 1.139-1.139 1.139l-13.621 0c-0.629 0-1.138-0.511-1.138-1.139v-6.894zM24.146 26.421c0 0.628-0.509 1.14-1.139 1.14h-13.611c-0.629 0-1.138-0.511-1.138-1.14v-1.567c0-0.63 0.51-1.14 1.138-1.14h13.61c0.629 0 1.139 0.51 1.139 1.14l0 1.567zM27.6 23.187c0 0.628-0.51 1.139-1.139 1.139h-1.102l-0.057-1.707-18.171 0 0.031 1.708h-1.221c-0.628 0-1.138-0.511-1.138-1.139v-9.13c0-0.63 0.51-1.14 1.138-1.14h1.245l-0.014 2.848h18.166l-0.020-2.848h1.144c0.629 0 1.139 0.51 1.139 1.14v9.13z" fill="#000000"></path>
</svg>
