<?xml version="1.0" encoding="utf-8"?>
<!-- Generated by IcoMoon.io -->
<!DOCTYPE svg PUBLIC "-//W3C//DTD SVG 1.1//EN" "http://www.w3.org/Graphics/SVG/1.1/DTD/svg11.dtd">
<svg version="1.1" xmlns="http://www.w3.org/2000/svg" xmlns:xlink="http://www.w3.org/1999/xlink" width="32" height="32" viewBox="0 0 32 32">
<g id="icomoon-ignore">
</g>
<path d="M26.839 0h-21.677c-5.161 0-5.161 5.124-5.161 5.161v21.679c0 0.043 0 5.161 5.161 5.161h21.678c5.161 0 5.161-5.105 5.161-5.161v-21.679c0-0.022 0-5.161-5.161-5.161zM7.487 27.563c-1.75 0-3.167-1.421-3.167-3.172s1.417-3.171 3.167-3.171c1.749 0 3.167 1.42 3.167 3.171s-1.418 3.172-3.167 3.172zM15.141 27.563c0-5.985-4.845-10.835-10.82-10.835v-4.493c8.454 0 15.307 6.861 15.307 15.328h-4.487zM22.795 27.563c0-10.217-8.272-18.499-18.475-18.499v-4.626c12.754 0 23.093 10.353 23.093 23.125l-4.619 0z" fill="#000000"></path>
</svg>
