<?xml version="1.0" encoding="utf-8"?>
<!-- Generated by IcoMoon.io -->
<!DOCTYPE svg PUBLIC "-//W3C//DTD SVG 1.1//EN" "http://www.w3.org/Graphics/SVG/1.1/DTD/svg11.dtd">
<svg version="1.1" xmlns="http://www.w3.org/2000/svg" xmlns:xlink="http://www.w3.org/1999/xlink" width="33" height="32" viewBox="0 0 33 32">
<g id="icomoon-ignore">
</g>
<path d="M21.174 17.111c0.947-1.631 1.497-3.521 1.509-5.541 0.042-6.185-4.941-11.229-11.125-11.268-0.023 0-0.048 0-0.073 0-6.15 0-11.155 4.967-11.195 11.123-0.039 6.186 4.942 11.231 11.125 11.269 0.024 0 0.048 0 0.073 0 2.056 0 3.982-0.557 5.639-1.525l9.608 9.626c1.41 1.205 2.972 0.486 3.829-0.39 0.716-0.732 1.664-2.041 0.037-3.852l-9.428-9.444zM11.434 19.839c-4.599-0.028-8.317-3.794-8.288-8.394 0.029-4.571 3.77-8.287 8.338-8.287h0.056c2.229 0.015 4.316 0.894 5.882 2.48 1.565 1.585 2.42 3.687 2.406 5.914-0.014 2.22-0.89 4.301-2.462 5.863-1.574 1.565-3.66 2.424-5.878 2.424h-0.054z" fill="#000000"></path>
</svg>
