<?xml version="1.0" encoding="utf-8"?>
<!-- Generated by IcoMoon.io -->
<!DOCTYPE svg PUBLIC "-//W3C//DTD SVG 1.1//EN" "http://www.w3.org/Graphics/SVG/1.1/DTD/svg11.dtd">
<svg version="1.1" xmlns="http://www.w3.org/2000/svg" xmlns:xlink="http://www.w3.org/1999/xlink" width="89" height="32" viewBox="0 0 89 32">
<g id="icomoon-ignore">
</g>
<path d="M5.444 14.912c-0.731 0.787-1.813 0.963-2.85 0.963-0.837 0-1.688-0.144-2.544-0.325v-1.55c0.794 0.319 1.637 0.6 2.494 0.6 0.788 0 1.6-0.319 1.6-1.213 0-0.175-0.031-0.331-0.094-0.5-0.544-1.262-4.013-1.594-4.013-4.162 0-1.713 1.475-2.513 3.006-2.513 0.85 0 1.644 0.131 2.469 0.319v1.462c-0.7-0.25-1.438-0.513-2.206-0.513-0.65 0-1.387 0.275-1.387 1.006 0 1.662 4.219 1.75 4.219 4.662-0.006 0.669-0.237 1.275-0.694 1.762v0z" fill="#000000"></path>
<path d="M10.162 9.819c-0.956 0-1.244 0.963-1.319 1.725h2.431c-0.019-0.75-0.156-1.725-1.113-1.725v0zM10.588 15.794c-2.213 0-3.65-1.369-3.65-3.625 0-1.988 1.213-3.525 3.262-3.525 1.275 0 2.262 0.625 2.644 1.912 0.2 0.65 0.206 1.325 0.225 2.031h-4.206c0.119 1.344 0.819 1.95 2.125 1.95 0.738 0 1.4-0.188 2.081-0.412v1.275c-0.8 0.238-1.631 0.394-2.481 0.394v0z" fill="#000000"></path>
<path d="M17.819 10.206c-0.825 0-1.35 0.419-1.769 1.081v4.344h-1.844v-6.819h1.844v1.3c0.413-0.869 1.169-1.469 2.163-1.469 0.119 0 0.238 0.012 0.35 0.044v1.656c-0.281-0.1-0.438-0.137-0.744-0.137v0z" fill="#000000"></path>
<path d="M23.544 15.637h-1.813l-2.581-6.825h1.919l1.875 4.931 1.913-4.931h1.281l-2.594 6.825z" fill="#000000"></path>
<path d="M33.419 15.794c-2.169 0-3.525-1.387-3.525-3.569 0-2.281 1.438-3.581 3.656-3.581 0.656 0 1.313 0.113 1.931 0.275v1.344c-0.581-0.2-1.194-0.375-1.813-0.375-1.269 0-1.781 1.162-1.781 2.306 0 1.262 0.606 2.369 1.944 2.369 0.581 0 1.169-0.144 1.706-0.363v1.281c-0.669 0.219-1.406 0.313-2.119 0.313v0z" fill="#000000"></path>
<path d="M39.556 9.819c-0.913 0-1.206 0.963-1.269 1.725h2.406c-0.025-0.75-0.156-1.725-1.138-1.725v0zM40 15.794c-2.219 0-3.669-1.369-3.669-3.625 0-1.988 1.231-3.525 3.263-3.525 1.3 0 2.3 0.625 2.663 1.912 0.194 0.65 0.206 1.325 0.212 2.031h-4.169c0.119 1.344 0.8 1.95 2.106 1.95 0.75 0 1.413-0.188 2.063-0.412v1.275c-0.769 0.238-1.612 0.394-2.469 0.394v0z" fill="#000000"></path>
<path d="M48.494 7.481c-1.925 0-2.606 1.906-2.606 3.538 0 1.65 0.663 3.575 2.606 3.575 1.919 0 2.612-1.925 2.612-3.575 0-1.619-0.694-3.537-2.612-3.537v0zM48.494 15.881c-2.9 0-4.625-1.95-4.625-4.85 0-2.881 1.712-4.819 4.625-4.819 2.919 0 4.619 1.938 4.619 4.819 0 2.9-1.719 4.85-4.619 4.85v0z" fill="#000000"></path>
<path d="M58.55 15.637v-4.375c0-0.525-0.038-1.15-0.775-1.15-0.756 0-1.288 0.65-1.631 1.219v4.306h-1.831v-6.825h1.831v1.3c0.5-0.869 1.269-1.469 2.288-1.469 1.3 0 1.956 0.938 1.956 2.188v4.806h-1.837z" fill="#000000"></path>
<path d="M64.531 15.794c-1.569 0-2.35-0.594-2.35-2.225v-3.6h-0.781v-1.156h0.781v-1.138l1.794-0.206v1.344h1.475v1.156h-1.475v3.363c0 0.781 0.194 1.231 1.050 1.231 0.194 0 0.375-0.037 0.55-0.088v1.125c-0.344 0.113-0.688 0.194-1.044 0.194v0z" fill="#000000"></path>
<path d="M70.313 12.531h-0.412c-0.7 0-1.769 0.206-1.769 1.125 0 0.488 0.388 0.881 0.906 0.881s0.919-0.281 1.275-0.613v-1.394zM71.85 15.794c-0.719 0-1.213-0.169-1.475-0.894h-0.069c-0.581 0.575-1.069 0.894-1.938 0.894-1.181 0-2-0.787-2-1.95 0-0.681 0.263-1.244 0.775-1.675 0.756-0.6 1.787-0.713 2.694-0.713h0.475v-0.594c0-0.8-0.444-1.075-1.156-1.075-0.781 0-1.537 0.231-2.194 0.625v-1.281c0.8-0.294 1.581-0.488 2.463-0.488 0.713 0 1.513 0.156 2.112 0.669 0.463 0.406 0.544 0.912 0.544 1.494v3.019c0 0.35 0.063 0.787 0.525 0.787 0.094 0 0.162-0.012 0.225-0.031l0.031 1.044c-0.306 0.1-0.644 0.169-1.013 0.169v0z" fill="#000000"></path>
<path d="M77.412 10.206c-0.838 0-1.319 0.419-1.737 1.081v4.344h-1.869v-6.819h1.869v1.3c0.419-0.869 1.138-1.469 2.125-1.469 0.125 0 0.244 0.012 0.35 0.044v1.656c-0.275-0.1-0.425-0.137-0.737-0.137v0z" fill="#000000"></path>
<path d="M79.175 15.637v-6.825h1.806v6.825h-1.806zM79.175 7.675v-1.55h1.806v1.55h-1.806z" fill="#000000"></path>
<path d="M85.706 9.819c-1.244 0-1.537 1.4-1.537 2.406s0.3 2.412 1.537 2.412c1.237 0 1.556-1.412 1.556-2.412 0-1.019-0.319-2.406-1.556-2.406v0zM85.706 15.794c-2.181 0-3.456-1.394-3.456-3.569s1.275-3.581 3.456-3.581c2.188 0 3.506 1.406 3.506 3.581s-1.319 3.569-3.506 3.569v0z" fill="#000000"></path>
<path d="M26.906 7.675v-1.556h1.856v1.556h-1.856z" fill="#000000"></path>
<path d="M26.906 15.637v-6.825h1.856v6.825h-1.856z" fill="#000000"></path>
</svg>
