<?xml version="1.0" encoding="utf-8"?>
<!-- Generated by IcoMoon.io -->
<!DOCTYPE svg PUBLIC "-//W3C//DTD SVG 1.1//EN" "http://www.w3.org/Graphics/SVG/1.1/DTD/svg11.dtd">
<svg version="1.1" xmlns="http://www.w3.org/2000/svg" xmlns:xlink="http://www.w3.org/1999/xlink" width="32" height="32" viewBox="0 0 32 32">
<g id="icomoon-ignore">
</g>
<path d="M28.326 0h-24.652c-2.015 0-3.674 1.659-3.674 3.674v24.652c0 2.015 1.659 3.674 3.674 3.674h24.652c2.015 0 3.674-1.659 3.674-3.674v-24.652c0-2.015-1.659-3.674-3.674-3.674zM18.548 18.548v-3.852c-12.267 0-13.807 8.711-13.985 10.963 0 0.178 0 0.356 0 0.533 0 0 0-0.178 0-0.533 0.356-14.756 13.985-14.815 13.985-14.815v-5.096l8.948 6.4-8.948 6.4z" fill="#000000"></path>
</svg>
