<?xml version="1.0" encoding="utf-8"?>
<!-- Generated by IcoMoon.io -->
<!DOCTYPE svg PUBLIC "-//W3C//DTD SVG 1.1//EN" "http://www.w3.org/Graphics/SVG/1.1/DTD/svg11.dtd">
<svg version="1.1" xmlns="http://www.w3.org/2000/svg" xmlns:xlink="http://www.w3.org/1999/xlink" width="32" height="32" viewBox="0 0 32 32">
<g id="icomoon-ignore">
</g>
<path d="M32 8.727l-10.182 7.273v-4.364c-13.955 0-15.737 9.953-15.967 12.499 0.377-16.832 15.967-16.863 15.967-16.863v-5.818l10.182 7.273zM5.852 24.135c-0.003 0.205-0.033 0.381-0.033 0.592 0 0 0.001-0.218 0.033-0.592zM2.909 7.273v20.364h23.273v-10.39l2.909-2.079v12.468c0 1.606-1.303 2.909-2.909 2.909h-23.273c-1.606 0-2.909-1.303-2.909-2.909v-20.364c0-1.606 1.303-2.909 2.909-2.909h18.909c-0.001 0-5.7 0.019-10.841 2.909h-8.068z" fill="#000000"></path>
</svg>
