<?xml version="1.0" encoding="utf-8"?>
<!-- Generated by IcoMoon.io -->
<!DOCTYPE svg PUBLIC "-//W3C//DTD SVG 1.1//EN" "http://www.w3.org/Graphics/SVG/1.1/DTD/svg11.dtd">
<svg version="1.1" xmlns="http://www.w3.org/2000/svg" xmlns:xlink="http://www.w3.org/1999/xlink" width="32" height="32" viewBox="0 0 32 32">
<g id="icomoon-ignore">
</g>
<path d="M16 0c-8.83 0-16 7.17-16 16s7.17 16 16 16 16-7.17 16-16-7.17-16-16-16zM16 28.148c-6.696 0-12.148-5.452-12.148-12.148s5.452-12.148 12.148-12.148 12.148 5.452 12.148 12.148-5.452 12.148-12.148 12.148z" fill="#000000"></path>
<path d="M25.363 18.844l-1.481-3.081-3.615 7.526-4.207-10.844-3.793 7.17-3.319-3.378-2.726 1.719-1.185-0.711 4.267-2.667 2.489 2.607 4.563-8.474 4.089 10.607 3.437-7.23 3.081 6.519z" fill="#000000"></path>
</svg>
