<?xml version="1.0" encoding="utf-8"?>
<!-- Generated by IcoMoon.io -->
<!DOCTYPE svg PUBLIC "-//W3C//DTD SVG 1.1//EN" "http://www.w3.org/Graphics/SVG/1.1/DTD/svg11.dtd">
<svg version="1.1" xmlns="http://www.w3.org/2000/svg" xmlns:xlink="http://www.w3.org/1999/xlink" width="25" height="32" viewBox="0 0 25 32">
<g id="icomoon-ignore">
</g>
<path d="M0 13.714v-9.143q0-0.464 0.339-0.804t0.804-0.339q0.107 0 0.286 0.036 0.304-0.536 0.839-0.857t1.161-0.321q0.946 0 1.616 0.67t0.67 1.616-0.67 1.616-1.616 0.67q-0.589 0-1.143-0.321v7.179q0 1.893 1.679 3.232t4.036 1.339 4.036-1.339 1.679-3.232v-7.179q-0.554 0.321-1.143 0.321-0.946 0-1.616-0.67t-0.67-1.616 0.67-1.616 1.616-0.67q0.625 0 1.161 0.321t0.839 0.857q0.179-0.036 0.286-0.036 0.464 0 0.804 0.339t0.339 0.804v9.143q0 2.571-1.964 4.5t-4.893 2.286v2.357q0 1.893 1.679 3.232t4.036 1.339 4.036-1.339 1.679-3.232v-7.054q-1.018-0.375-1.652-1.25t-0.634-1.982q0-1.429 1-2.429t2.429-1 2.429 1 1 2.429q0 1.107-0.634 1.982t-1.652 1.25v7.054q0 2.839-2.348 4.848t-5.652 2.009-5.652-2.009-2.348-4.848v-2.357q-2.929-0.357-4.893-2.286t-1.964-4.5zM20.571 12.571q0 0.464 0.339 0.804t0.804 0.339 0.804-0.339 0.339-0.804-0.339-0.804-0.804-0.339-0.804 0.339-0.339 0.804z" fill="#000000"></path>
</svg>
