<?xml version="1.0" encoding="utf-8"?>
<!-- Generated by IcoMoon.io -->
<!DOCTYPE svg PUBLIC "-//W3C//DTD SVG 1.1//EN" "http://www.w3.org/Graphics/SVG/1.1/DTD/svg11.dtd">
<svg version="1.1" xmlns="http://www.w3.org/2000/svg" xmlns:xlink="http://www.w3.org/1999/xlink" width="30" height="32" viewBox="0 0 30 32">
<g id="icomoon-ignore">
</g>
<path d="M0 24.571v-19.429q0-1.179 0.839-2.018t2.018-0.839h24q1.179 0 2.018 0.839t0.839 2.018v19.429q0 1.179-0.839 2.018t-2.018 0.839h-24q-1.179 0-2.018-0.839t-0.839-2.018zM2.286 24.571q0 0.25 0.161 0.411t0.411 0.161h5.714q0.25 0 0.411-0.161t0.161-0.411v-3.429q0-0.25-0.161-0.411t-0.411-0.161h-5.714q-0.25 0-0.411 0.161t-0.161 0.411v3.429zM2.286 17.714q0 0.25 0.161 0.411t0.411 0.161h5.714q0.25 0 0.411-0.161t0.161-0.411v-3.429q0-0.25-0.161-0.411t-0.411-0.161h-5.714q-0.25 0-0.411 0.161t-0.161 0.411v3.429zM2.286 10.857q0 0.25 0.161 0.411t0.411 0.161h5.714q0.25 0 0.411-0.161t0.161-0.411v-3.429q0-0.25-0.161-0.411t-0.411-0.161h-5.714q-0.25 0-0.411 0.161t-0.161 0.411v3.429zM11.429 24.571q0 0.25 0.161 0.411t0.411 0.161h5.714q0.25 0 0.411-0.161t0.161-0.411v-3.429q0-0.25-0.161-0.411t-0.411-0.161h-5.714q-0.25 0-0.411 0.161t-0.161 0.411v3.429zM11.429 17.714q0 0.25 0.161 0.411t0.411 0.161h5.714q0.25 0 0.411-0.161t0.161-0.411v-3.429q0-0.25-0.161-0.411t-0.411-0.161h-5.714q-0.25 0-0.411 0.161t-0.161 0.411v3.429zM11.429 10.857q0 0.25 0.161 0.411t0.411 0.161h5.714q0.25 0 0.411-0.161t0.161-0.411v-3.429q0-0.25-0.161-0.411t-0.411-0.161h-5.714q-0.25 0-0.411 0.161t-0.161 0.411v3.429zM20.571 24.571q0 0.25 0.161 0.411t0.411 0.161h5.714q0.25 0 0.411-0.161t0.161-0.411v-3.429q0-0.25-0.161-0.411t-0.411-0.161h-5.714q-0.25 0-0.411 0.161t-0.161 0.411v3.429zM20.571 17.714q0 0.25 0.161 0.411t0.411 0.161h5.714q0.25 0 0.411-0.161t0.161-0.411v-3.429q0-0.25-0.161-0.411t-0.411-0.161h-5.714q-0.25 0-0.411 0.161t-0.161 0.411v3.429zM20.571 10.857q0 0.25 0.161 0.411t0.411 0.161h5.714q0.25 0 0.411-0.161t0.161-0.411v-3.429q0-0.25-0.161-0.411t-0.411-0.161h-5.714q-0.25 0-0.411 0.161t-0.161 0.411v3.429z" fill="#000000"></path>
</svg>
