<?xml version="1.0" encoding="utf-8"?>
<!-- Generated by IcoMoon.io -->
<!DOCTYPE svg PUBLIC "-//W3C//DTD SVG 1.1//EN" "http://www.w3.org/Graphics/SVG/1.1/DTD/svg11.dtd">
<svg version="1.1" xmlns="http://www.w3.org/2000/svg" xmlns:xlink="http://www.w3.org/1999/xlink" width="30" height="32" viewBox="0 0 30 32">
<g id="icomoon-ignore">
</g>
<path d="M0 26.286v-11.429q0-0.464 0.339-0.804t0.804-0.339h5.143q0.464 0 0.804 0.339t0.339 0.804v11.429q0 0.464-0.339 0.804t-0.804 0.339h-5.143q-0.464 0-0.804-0.339t-0.339-0.804zM2.286 24q0 0.482 0.33 0.813t0.813 0.33q0.464 0 0.804-0.33t0.339-0.813q0-0.464-0.339-0.804t-0.804-0.339q-0.482 0-0.813 0.339t-0.33 0.804zM8.571 26.286v-11.446q0-0.446 0.321-0.777t0.768-0.366q0.429-0.036 1.357-1.054t1.804-2.161q1.214-1.554 1.804-2.143 0.321-0.321 0.554-0.857t0.313-0.866 0.241-1.080q0.125-0.696 0.223-1.089t0.348-0.929 0.607-0.893q0.339-0.339 0.804-0.339 0.821 0 1.473 0.188t1.071 0.464 0.714 0.723 0.429 0.804 0.214 0.893 0.089 0.804 0.009 0.696q0 0.679-0.17 1.357t-0.339 1.071-0.491 1q-0.054 0.107-0.179 0.321t-0.196 0.393-0.143 0.429h4.946q1.393 0 2.411 1.018t1.018 2.411q0 1.536-0.982 2.661 0.268 0.786 0.268 1.357 0.054 1.357-0.768 2.446 0.304 1 0 2.089-0.268 1.018-0.964 1.679 0.161 2-0.875 3.232-1.143 1.357-3.518 1.393h-2.304q-1.179 0-2.571-0.277t-2.17-0.518-2.152-0.705q-2.196-0.768-2.821-0.786-0.464-0.018-0.804-0.348t-0.339-0.795z" fill="#000000"></path>
</svg>
