<?xml version="1.0" encoding="utf-8"?>
<!-- Generated by IcoMoon.io -->
<!DOCTYPE svg PUBLIC "-//W3C//DTD SVG 1.1//EN" "http://www.w3.org/Graphics/SVG/1.1/DTD/svg11.dtd">
<svg version="1.1" xmlns="http://www.w3.org/2000/svg" xmlns:xlink="http://www.w3.org/1999/xlink" width="32" height="32" viewBox="0 0 32 32">
<g id="icomoon-ignore">
</g>
<path d="M0 18.286v-11.429q0-0.946 0.67-1.616t1.616-0.67h5.143q0.393 0 2.464-0.714 2.286-0.786 3.982-1.179t3.571-0.393h2q2.5 0 4.045 1.411t1.527 3.857v0.089q1.071 1.375 1.071 3.179 0 0.393-0.054 0.768 0.679 1.196 0.679 2.571 0 0.643-0.161 1.232 0.875 1.321 0.875 2.911 0 1.839-1.357 3.196t-3.214 1.357h-3.143q0.857 1.768 0.857 3.429 0 2.107-0.625 3.321-0.625 1.232-1.821 1.813t-2.696 0.58q-0.911 0-1.607-0.661-0.607-0.589-0.964-1.464t-0.455-1.616-0.313-1.509-0.554-1.143q-0.857-0.893-1.911-2.268-1.804-2.339-2.446-2.768h-4.893q-0.946 0-1.616-0.67t-0.67-1.616zM2.286 8q0 0.464 0.339 0.804t0.804 0.339 0.804-0.339 0.339-0.804-0.339-0.804-0.804-0.339-0.804 0.339-0.339 0.804zM6.857 18.286h0.571q0.286 0 0.634 0.161t0.714 0.482 0.688 0.634 0.714 0.786 0.616 0.759 0.563 0.732 0.411 0.536q0.982 1.214 1.375 1.625 0.732 0.768 1.063 1.955t0.545 2.241 0.679 1.518q1.714 0 2.286-0.839t0.571-2.589q0-1.054-0.857-2.866t-0.857-2.848h6.286q0.893 0 1.589-0.688t0.696-1.598q0-0.625-0.384-1.446t-0.955-0.839q0.268-0.304 0.446-0.848t0.179-0.991q0-1.232-0.946-2.125 0.321-0.571 0.321-1.232t-0.313-1.313-0.848-0.938q0.089-0.536 0.089-1 0-1.518-0.875-2.25t-2.429-0.732h-2.286q-2.339 0-6.107 1.304-0.089 0.036-0.518 0.188t-0.634 0.223-0.625 0.205-0.679 0.196-0.589 0.116-0.563 0.054h-0.571v11.429z" fill="#000000"></path>
</svg>
