<?xml version="1.0" encoding="utf-8"?>
<!-- Generated by IcoMoon.io -->
<!DOCTYPE svg PUBLIC "-//W3C//DTD SVG 1.1//EN" "http://www.w3.org/Graphics/SVG/1.1/DTD/svg11.dtd">
<svg version="1.1" xmlns="http://www.w3.org/2000/svg" xmlns:xlink="http://www.w3.org/1999/xlink" width="30" height="32" viewBox="0 0 30 32">
<g id="icomoon-ignore">
</g>
<path d="M0 19.429q0 0.464 0.339 0.804t0.804 0.339h5.143q0.464 0 0.804-0.339t0.339-0.804v-11.429q0-0.464-0.339-0.804t-0.804-0.339h-5.143q-0.464 0-0.804 0.339t-0.339 0.804v11.429zM2.286 10.286q0-0.482 0.33-0.813t0.813-0.33q0.464 0 0.804 0.33t0.339 0.813q0 0.464-0.339 0.804t-0.804 0.339q-0.482 0-0.813-0.339t-0.33-0.804zM8.571 19.446v-11.446q0-0.464 0.339-0.795t0.804-0.348q0.625-0.018 2.821-0.786 1.375-0.464 2.152-0.705t2.17-0.518 2.571-0.277h2.304q2.375 0.036 3.518 1.393 1.036 1.232 0.875 3.232 0.696 0.661 0.964 1.679 0.304 1.089 0 2.089 0.821 1.089 0.768 2.446 0 0.571-0.268 1.357 0.982 1.089 0.982 2.661-0.018 1.393-1.027 2.411t-2.402 1.018h-4.946q0.071 0.25 0.143 0.429t0.196 0.393 0.179 0.321q0.321 0.661 0.482 1.018t0.339 1.045 0.179 1.366q0 0.429-0.009 0.696t-0.089 0.804-0.214 0.893-0.429 0.804-0.714 0.723-1.071 0.464-1.473 0.188q-0.464 0-0.804-0.339-0.357-0.357-0.607-0.893t-0.348-0.929-0.223-1.089q-0.161-0.75-0.241-1.080t-0.313-0.866-0.554-0.857q-0.589-0.589-1.804-2.143-0.875-1.143-1.804-2.161t-1.357-1.054q-0.446-0.036-0.768-0.366t-0.321-0.777z" fill="#000000"></path>
</svg>
