<?xml version="1.0" encoding="utf-8"?>
<!-- Generated by IcoMoon.io -->
<!DOCTYPE svg PUBLIC "-//W3C//DTD SVG 1.1//EN" "http://www.w3.org/Graphics/SVG/1.1/DTD/svg11.dtd">
<svg version="1.1" xmlns="http://www.w3.org/2000/svg" xmlns:xlink="http://www.w3.org/1999/xlink" width="32" height="32" viewBox="0 0 32 32">
<g id="icomoon-ignore">
</g>
<path d="M0.15 4.378v23.244c0 2.334 1.892 4.227 4.227 4.227h23.247c2.334 0 4.227-1.892 4.227-4.227v-23.244c0-2.334-1.892-4.227-4.227-4.227h-23.247c-2.334 0-4.227 1.892-4.227 4.227zM24.401 11.691c0.008 0.186 0.012 0.373 0.012 0.561 0 5.729-4.361 12.335-12.335 12.335-2.449 0-4.727-0.718-6.646-1.948 0.339 0.040 0.684 0.060 1.034 0.060 2.031 0 3.901-0.693 5.384-1.856-1.897-0.035-3.498-1.289-4.050-3.011 0.265 0.050 0.537 0.078 0.816 0.078 0.396 0 0.778-0.053 1.142-0.152-1.983-0.399-3.478-2.15-3.478-4.251 0-0.018 0-0.036 0.001-0.055 0.585 0.325 1.253 0.52 1.964 0.542-1.164-0.777-1.928-2.105-1.928-3.609 0-0.795 0.214-1.539 0.587-2.18 2.138 2.623 5.333 4.349 8.936 4.53-0.074-0.318-0.112-0.648-0.112-0.988 0-2.395 1.941-4.335 4.335-4.335 1.247 0 2.374 0.527 3.165 1.369 0.987-0.194 1.916-0.555 2.753-1.052-0.323 1.013-1.011 1.862-1.906 2.399 0.877-0.104 1.712-0.338 2.49-0.683-0.582 0.87-1.317 1.633-2.164 2.245z" fill="#000000"></path>
</svg>
