<?xml version="1.0" encoding="utf-8"?>
<!-- Generated by IcoMoon.io -->
<!DOCTYPE svg PUBLIC "-//W3C//DTD SVG 1.1//EN" "http://www.w3.org/Graphics/SVG/1.1/DTD/svg11.dtd">
<svg version="1.1" xmlns="http://www.w3.org/2000/svg" xmlns:xlink="http://www.w3.org/1999/xlink" width="89" height="32" viewBox="0 0 89 32">
<g id="icomoon-ignore">
</g>
<path d="M13.581 22.46c0 0.598-0.212 1.109-0.638 1.533s-0.936 0.64-1.533 0.64h-3.832c-1.788 0-3.321-0.637-4.598-1.905-1.277-1.267-1.915-2.797-1.915-4.587v-8.66c0-0.596 0.217-1.107 0.651-1.533s0.949-0.64 1.545-0.64c0.596 0 1.107 0.214 1.533 0.64 0.426 0.428 0.638 0.937 0.638 1.533v2.172h5.924c0.596 0 1.107 0.214 1.533 0.64 0.426 0.425 0.638 0.936 0.638 1.532s-0.212 1.109-0.638 1.533c-0.426 0.428-0.937 0.64-1.533 0.64h-5.95v2.144c0 0.58 0.214 1.081 0.638 1.509 0.426 0.428 0.929 0.638 1.507 0.638h3.857c0.598 0 1.107 0.214 1.533 0.64s0.64 0.936 0.64 1.532z" fill="#000000"></path>
<path d="M51.529 22.46c0 0.598-0.212 1.109-0.638 1.533-0.425 0.424-0.937 0.64-1.533 0.64h-1.599c-1.788 0-3.321-0.637-4.598-1.905-1.279-1.267-1.917-2.797-1.917-4.587v-8.66c0-0.596 0.217-1.107 0.651-1.533 0.436-0.426 0.95-0.64 1.545-0.64 0.598 0 1.107 0.214 1.533 0.64 0.426 0.428 0.638 0.937 0.638 1.533v3.938h3.775c0.596 0 1.107 0.214 1.532 0.64s0.638 0.937 0.638 1.533c0 0.594-0.212 1.109-0.638 1.532-0.426 0.428-0.937 0.64-1.532 0.64h-3.801v0.377c0 0.58 0.214 1.081 0.64 1.509 0.425 0.428 0.927 0.638 1.507 0.638h1.625c0.596 0 1.109 0.214 1.533 0.64 0.426 0.426 0.639 0.936 0.639 1.532z" fill="#000000"></path>
<path d="M62.983 22.46c0 0.598-0.212 1.109-0.638 1.533s-0.937 0.64-1.533 0.64h-1.599c-1.79 0-3.323-0.637-4.6-1.905-1.277-1.267-1.917-2.797-1.917-4.587v-8.66c0-0.596 0.219-1.107 0.651-1.533 0.434-0.426 0.95-0.64 1.546-0.64s1.107 0.214 1.532 0.64c0.426 0.428 0.638 0.937 0.638 1.533v3.938h3.775c0.596 0 1.107 0.214 1.532 0.64 0.426 0.426 0.638 0.937 0.638 1.533 0 0.594-0.212 1.109-0.638 1.532-0.425 0.428-0.936 0.64-1.532 0.64h-3.8v0.377c0 0.58 0.212 1.081 0.638 1.509s0.927 0.638 1.507 0.638h1.625c0.596 0 1.107 0.214 1.533 0.64s0.64 0.936 0.64 1.532z" fill="#000000"></path>
<path d="M40.088 9.417c0 0.599-0.215 1.114-0.643 1.54-0.429 0.431-0.942 0.645-1.543 0.645-0.599 0-1.118-0.214-1.556-0.645-0.436-0.428-0.655-0.941-0.655-1.54 0-0.601 0.214-1.115 0.642-1.543 0.429-0.429 0.944-0.643 1.543-0.643 0.601 0 1.12 0.214 1.556 0.643 0.438 0.428 0.656 0.942 0.656 1.543zM40.088 22.502c0 0.602-0.215 1.117-0.643 1.541-0.429 0.431-0.942 0.645-1.543 0.645-0.599 0-1.118-0.214-1.556-0.645-0.436-0.426-0.655-0.939-0.655-1.541v-7.096c0-0.601 0.214-1.117 0.642-1.543 0.429-0.429 0.944-0.643 1.543-0.643 0.601 0 1.12 0.214 1.556 0.643 0.438 0.428 0.656 0.942 0.656 1.543v7.096z" fill="#000000"></path>
<path d="M88.186 14.6c0 0.599-0.214 1.117-0.642 1.541-0.429 0.429-0.944 0.645-1.543 0.645h-1.956c-0.581 0-1.089 0.211-1.517 0.63s-0.643 0.929-0.643 1.53v3.56c0 0.602-0.214 1.117-0.643 1.541-0.428 0.431-0.942 0.645-1.543 0.645-0.599 0-1.118-0.214-1.556-0.645-0.436-0.426-0.655-0.939-0.655-1.541v-3.56c0-1.801 0.638-3.339 1.917-4.616 1.275-1.275 2.815-1.914 4.614-1.914h1.956c0.599 0 1.118 0.212 1.556 0.643 0.436 0.425 0.655 0.937 0.655 1.54z" fill="#000000"></path>
<path d="M34.553 18.157c0 3.324-2.701 6.531-6.126 6.531-1.644 0-2.689-0.555-3.942-1.672-1.218 1.119-2.253 1.672-3.914 1.672-3.422 0-6.128-3.239-6.128-6.531v-4.345c0-0.601 0.214-1.115 0.643-1.541 0.429-0.429 0.944-0.645 1.543-0.645s1.115 0.216 1.543 0.645c0.429 0.428 0.643 0.941 0.643 1.541v4.345c0 0.581 0.011 1.089 0.441 1.518 0.429 0.426 0.733 0.643 1.316 0.643s0.882-0.211 1.301-0.63c0.42-0.421 0.428-0.929 0.428-1.532v-4.32c0-0.598 0.217-1.117 0.655-1.554 0.438-0.436 0.955-0.655 1.556-0.655s1.114 0.216 1.543 0.645c0.428 0.428 0.642 0.941 0.642 1.541v4.345c0 0.601 0.008 1.11 0.428 1.532 0.421 0.42 0.718 0.63 1.301 0.63 0.599 0 0.908-0.217 1.328-0.643 0.42-0.429 0.429-0.936 0.429-1.518v-4.345c0-0.601 0.212-1.115 0.642-1.541 0.428-0.429 0.944-0.645 1.543-0.645 0.601 0 1.115 0.216 1.543 0.645 0.428 0.428 0.643 0.941 0.643 1.541v4.343h-0.002z" fill="#000000"></path>
<path d="M70.116 11.758c0.034 0.002 0.067 0.003 0.1 0.005 2.446 0.127 4.907 1.605 5.948 3.873 0.362 0.787 0.542 1.612 0.542 2.482 0 0.469-0.175 0.887-0.527 1.247-0.353 0.363-0.792 0.534-1.316 0.514 0 0-7.206 0-7.214 0 0.083 0.212 0.617 0.673 0.743 0.762 0.292 0.209 0.63 0.349 0.978 0.433 1.073 0.258 2.291 0.096 3.297-0.327 0.191-0.082 0.387-0.17 0.542-0.245 0.153-0.070 0.307-0.136 0.462-0.188 0.153-0.054 0.33-0.082 0.529-0.082 0.379 0.020 0.71 0.126 0.99 0.325 0.281 0.198 0.488 0.446 0.624 0.746 0.135 0.297 0.181 0.62 0.135 0.962-0.046 0.345-0.211 0.604-0.482 0.893-0.488 0.398-1.030 0.702-1.62 0.941-1.91 0.776-4.306 0.958-6.224 0.108-0.797-0.353-1.496-0.833-2.103-1.439-0.606-0.604-1.084-1.316-1.437-2.131-0.351-0.811-0.529-1.654-0.529-2.521 0-0.851 0.176-1.672 0.529-2.467 0.998-2.258 3.548-3.973 6.033-3.893zM72.583 16.632c-0.307-0.38-0.668-0.684-1.084-0.909-0.416-0.227-0.877-0.338-1.383-0.338-0.524 0-0.99 0.111-1.398 0.338-0.407 0.225-0.764 0.527-1.071 0.909h4.936z" fill="#000000"></path>
</svg>
