<?xml version="1.0" encoding="utf-8"?>
<!-- Generated by IcoMoon.io -->
<!DOCTYPE svg PUBLIC "-//W3C//DTD SVG 1.1//EN" "http://www.w3.org/Graphics/SVG/1.1/DTD/svg11.dtd">
<svg version="1.1" xmlns="http://www.w3.org/2000/svg" xmlns:xlink="http://www.w3.org/1999/xlink" width="32" height="32" viewBox="0 0 32 32">
<g id="icomoon-ignore">
</g>
<path d="M16 0c-8.83 0-16 7.17-16 16s7.17 16 16 16 16-7.17 16-16-7.17-16-16-16zM16 28.148c-6.696 0-12.148-5.452-12.148-12.148s5.452-12.148 12.148-12.148 12.148 5.452 12.148 12.148-5.452 12.148-12.148 12.148z" fill="#000000"></path>
<path d="M12.267 9.778h-4.563c-0.652 0-1.185 0.533-1.185 1.185v10.074c0 0.652 0.533 1.185 1.185 1.185h11.852c0.652 0 1.185-0.533 1.185-1.185v-2.963l3.556 2.963c0.711 0 1.185-0.533 1.185-1.185v-8.296c0-0.652-0.533-1.185-1.185-1.185l-3.556 3.556v-2.963c0-0.652-0.533-1.185-1.185-1.185h-5.867z" fill="#000000"></path>
</svg>
