<?xml version="1.0" encoding="utf-8"?>
<!-- Generated by IcoMoon.io -->
<!DOCTYPE svg PUBLIC "-//W3C//DTD SVG 1.1//EN" "http://www.w3.org/Graphics/SVG/1.1/DTD/svg11.dtd">
<svg version="1.1" xmlns="http://www.w3.org/2000/svg" xmlns:xlink="http://www.w3.org/1999/xlink" width="32" height="32" viewBox="0 0 32 32">
<g id="icomoon-ignore">
</g>
<path d="M28.326 0h-24.652c-2.015 0-3.674 1.659-3.674 3.674v24.652c0 2.015 1.659 3.674 3.674 3.674h24.652c2.015 0 3.674-1.659 3.674-3.674v-24.652c0-2.015-1.659-3.674-3.674-3.674zM27.378 20.622c0 0.77-0.533 1.422-1.422 1.422l-4.267-3.556v3.556c0 0.77-0.652 1.422-1.422 1.422h-14.222c-0.77 0-1.422-0.652-1.422-1.422v-12.089c0-0.77 0.652-1.422 1.422-1.422h14.281c0.77 0 1.422 0.652 1.422 1.422v3.556l4.267-4.267c0.77 0 1.422 0.652 1.422 1.422v9.956z" fill="#000000"></path>
</svg>
