<?xml version="1.0" encoding="utf-8"?>
<!-- Generated by IcoMoon.io -->
<!DOCTYPE svg PUBLIC "-//W3C//DTD SVG 1.1//EN" "http://www.w3.org/Graphics/SVG/1.1/DTD/svg11.dtd">
<svg version="1.1" xmlns="http://www.w3.org/2000/svg" xmlns:xlink="http://www.w3.org/1999/xlink" width="33" height="32" viewBox="0 0 33 32">
<g id="icomoon-ignore">
</g>
<path d="M6.607 19.638h1.61v8.936h1.61v-8.936h1.609v-1.542h-4.828zM19.812 20.461c-0.526-0.020-1.413 0.591-1.413 0.887 0-0.202 0-3.252 0-3.252h-1.445v10.478h1.445v-0.657c0 0 0.691 0.642 1.413 0.642s1.149-0.249 1.149-0.906c0-1.21 0-4.838 0-5.879 0.001-0.985-0.722-1.297-1.149-1.313zM19.664 26.766c0 0.313-0.361 0.624-0.657 0.624s-0.443-0.18-0.657-0.378c0 0 0-4.4 0-4.696 0 0 0.18-0.394 0.723-0.394 0.263 0 0.591 0.312 0.591 0.706-0 0.393-0 3.825-0 4.137zM14.358 26.77c0 0 0 0-0.328 0.317-0.328 0.318-0.854 0.351-0.854 0 0-0.348 0-6.517 0-6.517h-1.396c0 0-0.001 5.652-0.001 6.606 0 0.95 0.198 1.35 1.019 1.386s1.56-0.836 1.56-0.836v0.835h1.428l0-7.99h-1.428v6.2zM24.312 20.569c-0.444 0-2.168 0.19-2.168 2.485 0 2.301 0 0.164 0 2.924s1.856 2.582 2.233 2.596c0.296 0.011 1.971 0.393 1.938-2.693h-1.363c0 0 0.115 1.494-0.706 1.512-0.673 0.013-0.689-1.379-0.689-2.516h2.792c0-0.102 0-0.495 0-1.859 0-2.277-1.593-2.448-2.036-2.448zM24.952 22.875v0.804h-1.396c0 0 0-0.767 0-0.787 0-0.016-0.082-0.969 0.698-0.969s0.698 0.953 0.698 0.953zM27.301 0h-22.073c-5.255 0-5.255 5.218-5.255 5.255v22.073c0 0.044 0 5.255 5.255 5.255h22.073c5.256 0 5.256-5.196 5.256-5.255v-22.073c-0.001-0.022-0.001-5.255-5.256-5.255zM19.368 5.687h1.396c0 0 0 6.067 0 6.412s0.525 0.312 0.852 0c0.327-0.313 0.327-0.313 0.327-0.313v-6.099h1.429v7.857h-1.429v-0.821c0 0-0.736 0.856-1.556 0.823-0.819-0.034-1.019-0.429-1.019-1.364-0.002-0.937-0.001-6.494-0.001-6.494zM16.264 5.696c0.040 0.039 1.971-0.084 1.971 1.837s0 2.25 0 4.122c0 1.872-1.971 1.889-1.971 1.889s-2.037 0.115-2.037-1.889c0 0 0-2.184 0-4.073s1.997-1.927 2.037-1.886zM10.598 3.165l1.002 4.072 1.117-4.072h1.511l-1.855 6.059v4.319h-1.495v-4.336l-1.905-6.043h1.625zM30.566 26.189c0 2.374-0.906 4.151-3.126 4.151h-22.352c-2.673 0-3.126-1.777-3.126-3.912v-5.858c0-2.474 0.188-4.569 3.126-4.569h22.352c2.937 0 3.126 2.096 3.126 4.569v5.619zM16.293 12.362c0 0 0.648-0.011 0.648-1.297 0-1.287 0-1.515 0-2.837 0-1.324-0.634-1.235-0.648-1.267-0.013-0.026-0.669 0-0.669 1.298 0 1.301 0 2.805 0 2.805 0 1.375 0.669 1.298 0.669 1.298z" fill="#000000"></path>
</svg>
