<?xml version="1.0" encoding="utf-8"?>
<!-- Generated by IcoMoon.io -->
<!DOCTYPE svg PUBLIC "-//W3C//DTD SVG 1.1//EN" "http://www.w3.org/Graphics/SVG/1.1/DTD/svg11.dtd">
<svg version="1.1" xmlns="http://www.w3.org/2000/svg" xmlns:xlink="http://www.w3.org/1999/xlink" width="89" height="32" viewBox="0 0 89 32">
<g id="icomoon-ignore">
</g>
<path d="M36.78 15.491c0 0.028-0.001 0.030-0.001 0.071-0.007 0.362-0.006 0.283 0.001-0.071z" fill="#000000"></path>
<path d="M26.688 10.738h2.69c0 0 0 11.279 0 11.921 0 0.647 1.010 0.578 1.642 0 0.629-0.581 0.629-0.581 0.629-0.581v-11.339h2.752v14.608h-2.752v-1.53c0 0-1.418 1.593-2.996 1.53-1.577-0.063-1.962-0.798-1.962-2.537-0.006-1.741-0.003-12.072-0.003-12.072z" fill="#000000"></path>
<path d="M9.57 5.846l1.882 7.654 2.101-7.654h2.837l-3.486 11.387v8.114h-2.809v-8.146l-3.579-11.355z" fill="#000000"></path>
<path d="M20.504 10.621c-0.076-0.080-3.74-0.006-3.74 3.534 0 3.549 0 7.64 0 7.64 0 3.767 3.74 3.55 3.74 3.55s3.617-0.030 3.617-3.55c0-3.508 0-4.124 0-7.729s-3.544-3.371-3.617-3.445zM21.745 20.69c0 2.412-1.189 2.438-1.189 2.438s-1.228 0.145-1.228-2.438c0 0 0-2.823 0-5.26 0-2.434 1.203-2.483 1.228-2.434 0.026 0.054 1.189-0.11 1.189 2.376 0 2.479 0 2.905 0 5.318z" fill="#000000"></path>
<path d="M82.68 12.988c0-0.032 0-0.061 0-0.093 0-0.010 0-0.017 0-0.028h-0.006c-0.382-8.321-1.787-11.237-7.311-11.743-4.32-0.394-10.082-0.503-12.899-0.503-0.545 0-1.427 0-2.713 0.001-1.286-0.001-2.165-0.001-2.712-0.001-2.819 0-8.579 0.108-12.899 0.503-5.522 0.506-6.928 3.422-7.311 11.743h-0.006c0 0.010 0 0.017 0 0.028 0 0.032 0 0.061 0 0.093-0.055 1.25-0.060 2.171-0.049 3.011-0.010 0.841-0.006 1.763 0.049 3.012 0 0.033 0 0.063 0 0.093 0 0.012 0 0.017 0 0.029h0.006c0.382 8.319 1.787 11.236 7.311 11.741 4.32 0.394 10.080 0.503 12.899 0.503 0.546 0 1.425 0 2.712 0s2.168 0 2.713 0c2.818 0 8.579-0.108 12.899-0.503 5.523-0.506 6.93-3.422 7.311-11.741h0.006c0-0.012 0-0.017 0-0.029 0-0.030 0-0.060 0-0.093 0.057-1.248 0.060-2.171 0.049-3.012 0.010-0.84 0.009-1.76-0.049-3.011zM50.317 8.325h-3.068v17.023h-3.070v-17.023h-3.069v-2.941h9.207v2.941zM58.087 25.347h-2.508v-1.543c0 0-1.299 1.611-2.743 1.543-1.44-0.063-1.789-0.804-1.789-2.563 0-1.763 0-12.224 0-12.224h2.453c0 0 0 11.42 0 12.064s0.927 0.587 1.501 0c0.574-0.587 0.577-0.587 0.577-0.587v-11.477h2.508v14.787h0.002zM68.416 23.604c0 1.229-0.792 1.7-2.126 1.7-1.337 0-2.617-1.209-2.617-1.209v1.235h-2.674v-19.659h2.674c0 0 0 5.725 0 6.106 0-0.558 1.642-1.704 2.617-1.665 0.789 0.032 2.126 0.615 2.126 2.46 0 1.955 0 8.762 0 11.032zM78.852 18.425h-5.329c0 2.129 0.031 4.74 1.315 4.717 1.566-0.030 1.35-2.832 1.35-2.832h2.598c0.065 5.779-3.13 5.063-3.695 5.047-0.721-0.026-4.266 0.307-4.266-4.865 0-5.178 0-1.17 0-5.483 0-4.301 3.293-4.659 4.138-4.659 0.847 0 3.889 0.317 3.889 4.589 0 2.554 0 3.296 0 3.486z" fill="#000000"></path>
<path d="M74.81 12.723c-1.472 0-1.319 1.872-1.319 1.906 0 0.032 0 1.54 0 1.54h2.636v-1.575c0.001 0 0.156-1.872-1.317-1.872z" fill="#000000"></path>
<path d="M64.85 12.816c-0.997 0-1.33 0.743-1.33 0.743 0 0.557 0 8.823 0 8.823 0.394 0.372 0.664 0.709 1.209 0.709s1.206-0.584 1.206-1.173c0-0.584 0-7.037 0-7.773 0.003-0.74-0.602-1.33-1.085-1.33z" fill="#000000"></path>
</svg>
